Atma-ExtraBold.ufo
<glyph name="dollar" format="1">
  <advance width="505"/>
  <unicode hex="0024"/>
  <outline>
    <contour>
      <point x="287" y="180" type="curve" smooth="yes"/>
      <point x="287" y="152"/>
      <point x="272" y="132"/>
      <point x="235" y="132" type="curve" smooth="yes"/>
      <point x="187" y="132"/>
      <point x="148" y="190"/>
      <point x="148" y="263" type="curve"/>
      <point x="111" y="263"/>
      <point x="52" y="256"/>
      <point x="-5" y="230" type="curve"/>
      <point x="-5" y="132"/>
      <point x="86" y="30"/>
      <point x="243" y="30" type="curve" smooth="yes"/>
      <point x="371" y="30"/>
      <point x="489" y="104"/>
      <point x="489" y="221" type="curve" smooth="yes"/>
      <point x="489" y="309"/>
      <point x="450" y="358"/>
      <point x="337" y="432" type="curve" smooth="yes"/>
      <point x="269" y="476"/>
      <point x="244" y="508"/>
      <point x="244" y="544" type="curve" smooth="yes"/>
      <point x="244" y="567"/>
      <point x="258" y="585"/>
      <point x="277" y="585" type="curve" smooth="yes"/>
      <point x="305" y="585"/>
      <point x="319" y="560"/>
      <point x="332" y="485" type="curve"/>
      <point x="399" y="487"/>
      <point x="452" y="498"/>
      <point x="495" y="523" type="curve"/>
      <point x="470" y="630"/>
      <point x="401" y="692"/>
      <point x="272" y="692" type="curve" smooth="yes"/>
      <point x="130" y="692"/>
      <point x="38" y="604"/>
      <point x="38" y="497" type="curve" smooth="yes"/>
      <point x="38" y="399"/>
      <point x="92" y="356"/>
      <point x="167" y="301" type="curve" smooth="yes"/>
      <point x="228" y="256"/>
      <point x="287" y="230"/>
    </contour>
    <contour>
      <point x="328" y="644" type="line"/>
      <point x="323" y="693"/>
      <point x="325" y="733"/>
      <point x="333" y="786" type="curve"/>
      <point x="298" y="794"/>
      <point x="242" y="792"/>
      <point x="206" y="780" type="curve"/>
      <point x="202" y="735"/>
      <point x="209" y="680"/>
      <point x="214" y="648" type="curve"/>
    </contour>
    <contour>
      <point x="178" y="-69" type="curve"/>
      <point x="213" y="-77"/>
      <point x="269" y="-75"/>
      <point x="305" y="-63" type="curve"/>
      <point x="309" y="-18"/>
      <point x="302" y="37"/>
      <point x="297" y="69" type="curve"/>
      <point x="183" y="73" type="line"/>
      <point x="188" y="24"/>
      <point x="186" y="-16"/>
    </contour>
  </outline>
</glyph>
<glyph name="period" format="1">
  <advance width="271"/>
  <unicode hex="002E"/>
  <outline>
    <contour>
      <point x="240" y="33"/>
      <point x="244" y="84"/>
      <point x="246" y="142" type="curve"/>
      <point x="166" y="154"/>
      <point x="101" y="146"/>
      <point x="55" y="135" type="curve"/>
      <point x="55" y="77"/>
      <point x="57" y="40"/>
      <point x="62" y="-23" type="curve"/>
      <point x="116" y="-30"/>
      <point x="165" y="-31"/>
      <point x="231" y="-24" type="curve"/>
    </contour>
  </outline>
</glyph>
<glyph name="A" format="1">
  <advance width="673"/>
  <unicode hex="0041"/>
  <outline>
    <contour>
      <point x="672" y="-55" type="curve"/>
      <point x="629" y="210"/>
      <point x="549" y="484"/>
      <point x="420" y="689" type="curve"/>
      <point x="363" y="703"/>
      <point x="317" y="710"/>
      <point x="244" y="710" type="curve"/>
      <point x="175" y="466"/>
      <point x="111" y="278"/>
      <point x="-9" y="55" type="curve"/>
      <point x="24" y="13"/>
      <point x="85" y="-21"/>
      <point x="152" y="-32" type="curve"/>
      <point x="221" y="109"/>
      <point x="296" y="356"/>
      <point x="341" y="537" type="curve"/>
      <point x="304" y="535" type="line"/>
      <point x="387" y="347"/>
      <point x="451" y="99"/>
      <point x="473" y="-117" type="curve"/>
      <point x="554" y="-107"/>
      <point x="621" y="-89"/>
    </contour>
    <contour>
      <point x="481" y="142" type="curve"/>
      <point x="471" y="279" type="line"/>
      <point x="366" y="279"/>
      <point x="272" y="269"/>
      <point x="174" y="250" type="curve"/>
      <point x="180" y="124" type="line"/>
      <point x="279" y="139"/>
      <point x="382" y="142"/>
    </contour>
  </outline>
</glyph>
<glyph name="Q" format="1">
  <advance width="666"/>
  <unicode hex="0051"/>
  <outline>
    <contour>
      <point x="628" y="382" type="curve" smooth="yes"/>
      <point x="628" y="584"/>
      <point x="531" y="673"/>
      <point x="367" y="673" type="curve" smooth="yes"/>
      <point x="180" y="673"/>
      <point x="30" y="512"/>
      <point x="30" y="273" type="curve" smooth="yes"/>
      <point x="30" y="114"/>
      <point x="97" y="-40"/>
      <point x="278" y="-40" type="curve" smooth="yes"/>
      <point x="547" y="-40"/>
      <point x="628" y="230"/>
    </contour>
    <contour>
      <point x="339" y="543" type="curve" smooth="yes"/>
      <point x="390" y="543"/>
      <point x="419" y="497"/>
      <point x="419" y="327" type="curve" smooth="yes"/>
      <point x="419" y="230"/>
      <point x="403" y="90"/>
      <point x="321" y="90" type="curve" smooth="yes"/>
      <point x="254" y="90"/>
      <point x="235" y="209"/>
      <point x="235" y="301" type="curve" smooth="yes"/>
      <point x="235" y="444"/>
      <point x="270" y="543"/>
    </contour>
    <contour>
      <point x="536" y="-130" type="curve"/>
      <point x="589" y="-96"/>
      <point x="632" y="-58"/>
      <point x="646" y="-11" type="curve"/>
      <point x="577" y="75"/>
      <point x="469" y="161"/>
      <point x="360" y="217" type="curve"/>
      <point x="328" y="200"/>
      <point x="309" y="178"/>
      <point x="297" y="153" type="curve"/>
      <point x="389" y="73"/>
      <point x="468" y="-22"/>
    </contour>
  </outline>
</glyph>
<glyph name="V" format="1">
  <advance width="622"/>
  <unicode hex="0056"/>
  <outline>
    <contour>
      <point x="378" y="-76" type="curve"/>
      <point x="491" y="155"/>
      <point x="588" y="458"/>
      <point x="627" y="730" type="curve"/>
      <point x="572" y="752"/>
      <point x="508" y="765"/>
      <point x="447" y="769" type="curve"/>
      <point x="419" y="553"/>
      <point x="379" y="301"/>
      <point x="317" y="120" type="curve"/>
      <point x="268" y="267"/>
      <point x="238" y="476"/>
      <point x="216" y="640" type="curve"/>
      <point x="136" y="639"/>
      <point x="60" y="624"/>
      <point x="0" y="597" type="curve"/>
      <point x="48" y="354"/>
      <point x="122" y="118"/>
      <point x="207" y="-98" type="curve"/>
      <point x="271" y="-98"/>
      <point x="338" y="-92"/>
    </contour>
  </outline>
</glyph>
<glyph name="asciicircum" format="1">
  <advance width="500"/>
  <unicode hex="005E"/>
  <outline>
    <contour>
      <point x="181" y="498" type="line"/>
      <point x="265" y="387"/>
      <point x="335" y="260"/>
      <point x="394" y="122" type="curve"/>
      <point x="438" y="131"/>
      <point x="467" y="140"/>
      <point x="504" y="159" type="curve"/>
      <point x="458" y="283"/>
      <point x="355" y="473"/>
      <point x="282" y="565" type="curve"/>
      <point x="218" y="565" type="line"/>
      <point x="145" y="473"/>
      <point x="42" y="283"/>
      <point x="-4" y="159" type="curve"/>
      <point x="33" y="140"/>
      <point x="62" y="131"/>
      <point x="106" y="122" type="curve"/>
      <point x="165" y="260"/>
      <point x="235" y="387"/>
      <point x="319" y="498" type="curve"/>
    </contour>
  </outline>
</glyph>
<glyph name="g" format="1">
  <advance width="577"/>
  <unicode hex="0067"/>
  <outline>
    <contour>
      <point x="337" y="417" type="curve"/>
      <point x="496" y="515" type="line"/>
      <point x="442" y="530"/>
      <point x="371" y="541"/>
      <point x="321" y="541" type="curve" smooth="yes"/>
      <point x="124" y="541"/>
      <point x="30.0" y="433.0"/>
      <point x="30" y="243" type="curve" smooth="yes"/>
      <point x="30" y="103"/>
      <point x="111.0" y="4.0"/>
      <point x="241" y="4" type="curve" smooth="yes"/>
      <point x="325" y="4"/>
      <point x="370" y="74"/>
      <point x="401" y="172" type="curve"/>
      <point x="357" y="202" type="line"/>
      <point x="348.971960699" y="156.842278931"/>
      <point x="327.065217391" y="125.0"/>
      <point x="306" y="125" type="curve" smooth="yes"/>
      <point x="268.325581395" y="125.0"/>
      <point x="225.0" y="172.0"/>
      <point x="225" y="285" type="curve" smooth="yes"/>
      <point x="225.0" y="376.0"/>
      <point x="244.47826087" y="424.0"/>
      <point x="289" y="424" type="curve" smooth="yes"/>
      <point x="305.744186047" y="424.0"/>
      <point x="323.737578146" y="421.420807285"/>
    </contour>
    <contour>
      <point x="424" y="515"/>
      <point x="342" y="506"/>
      <point x="292" y="488" type="curve"/>
      <point x="307.0650022" y="437.783325999"/>
      <point x="333.0" y="273.443478261"/>
      <point x="333" y="150" type="curve" smooth="yes"/>
      <point x="333" y="-10"/>
      <point x="324" y="-135"/>
      <point x="267" y="-135" type="curve" smooth="yes"/>
      <point x="238.090909091" y="-135.0"/>
      <point x="225" y="-98"/>
      <point x="214" y="-24" type="curve"/>
      <point x="157" y="-31"/>
      <point x="95" y="-53"/>
      <point x="51" y="-87" type="curve"/>
      <point x="51" y="-128"/>
      <point x="79.2789473684" y="-247.0"/>
      <point x="250" y="-247" type="curve" smooth="yes"/>
      <point x="398" y="-247"/>
      <point x="533" y="-147"/>
      <point x="533" y="169" type="curve" smooth="yes"/>
      <point x="533" y="298"/>
      <point x="513" y="457"/>
      <point x="496" y="515" type="curve"/>
    </contour>
    <contour>
      <point x="302" y="560" type="move" name="top"/>
    </contour>
  </outline>
</glyph>
<glyph name="n" format="1">
  <advance width="598"/>
  <unicode hex="006E"/>
  <outline>
    <contour>
      <point x="521" y="58"/>
      <point x="548" y="217"/>
      <point x="548" y="343" type="curve" smooth="yes"/>
      <point x="548" y="492"/>
      <point x="487" y="543"/>
      <point x="406" y="543" type="curve" smooth="yes"/>
      <point x="314.026737968" y="543.0"/>
      <point x="254" y="475"/>
      <point x="217" y="375" type="curve"/>
      <point x="236" y="267" type="line"/>
      <point x="254.246908298" y="346.938836354"/>
      <point x="287.0" y="392.0"/>
      <point x="317" y="392" type="curve" smooth="yes"/>
      <point x="341.0" y="392.0"/>
      <point x="350" y="372"/>
      <point x="350" y="337" type="curve" smooth="yes"/>
      <point x="350" y="250"/>
      <point x="329" y="113"/>
      <point x="314" y="29" type="curve"/>
      <point x="382" y="18"/>
      <point x="447.573770492" y="10.0"/>
      <point x="508" y="10" type="curve"/>
    </contour>
    <contour>
      <point x="41" y="355"/>
      <point x="62" y="86"/>
      <point x="79" y="-42" type="curve"/>
      <point x="134.317919075" y="-42.0"/>
      <point x="206.679600977" y="-33.1961197068"/>
      <point x="244" y="-22" type="curve"/>
      <point x="242" y="24"/>
      <point x="241" y="58"/>
      <point x="241" y="99" type="curve" smooth="yes"/>
      <point x="241" y="247"/>
      <point x="255.931747702" y="455.543234623"/>
      <point x="269" y="543" type="curve"/>
      <point x="241" y="549"/>
      <point x="215.0" y="551.0"/>
      <point x="192" y="551" type="curve" smooth="yes"/>
      <point x="134.577464789" y="551.0"/>
      <point x="72.5303011231" y="540.765150562"/>
      <point x="41" y="525" type="curve"/>
    </contour>
    <contour>
      <point x="312" y="560" type="move" name="top"/>
    </contour>
  </outline>
</glyph>
<glyph name="t" format="1">
  <advance width="460"/>
  <unicode hex="0074"/>
  <outline>
    <contour>
      <point x="272" y="6" type="curve" smooth="yes"/>
      <point x="418" y="6"/>
      <point x="442" y="134"/>
      <point x="442" y="178" type="curve"/>
      <point x="406" y="206"/>
      <point x="356" y="227"/>
      <point x="309" y="232" type="curve"/>
      <point x="307" y="154"/>
      <point x="296" y="118"/>
      <point x="285" y="118" type="curve" smooth="yes"/>
      <point x="261" y="118"/>
      <point x="259" y="181"/>
      <point x="259" y="261" type="curve" smooth="yes"/>
      <point x="259" y="397"/>
      <point x="296" y="576"/>
      <point x="312" y="631" type="curve"/>
      <point x="262" y="649"/>
      <point x="176" y="658"/>
      <point x="104" y="658" type="curve"/>
      <point x="76" y="560"/>
      <point x="60" y="425"/>
      <point x="60" y="285" type="curve" smooth="yes"/>
      <point x="60" y="73"/>
      <point x="163" y="6"/>
    </contour>
    <contour>
      <point x="18" y="545" type="curve"/>
      <point x="2" y="521"/>
      <point x="-5" y="475"/>
      <point x="-5" y="439" type="curve"/>
      <point x="111" y="405"/>
      <point x="336.519480519" y="401.636363636"/>
      <point x="416" y="418" type="curve"/>
      <point x="428" y="452"/>
      <point x="435" y="494"/>
      <point x="435" y="523" type="curve"/>
      <point x="319" y="509"/>
      <point x="95" y="521"/>
    </contour>
  </outline>
</glyph>
<glyph name="exclamdown" format="1">
  <advance width="324"/>
  <unicode hex="00A1"/>
  <outline>
    <contour>
      <point x="258" y="-145"/>
      <point x="259" y="-126"/>
      <point x="259" y="-107" type="curve" smooth="yes"/>
      <point x="259" y="19"/>
      <point x="255" y="142"/>
      <point x="236" y="291" type="curve"/>
      <point x="207" y="297"/>
      <point x="172" y="301"/>
      <point x="139" y="301" type="curve" smooth="yes"/>
      <point x="115" y="301"/>
      <point x="97" y="300"/>
      <point x="83" y="296" type="curve"/>
      <point x="87" y="164"/>
      <point x="69" y="-52"/>
      <point x="40" y="-182" type="curve"/>
      <point x="64" y="-191"/>
      <point x="92" y="-196"/>
      <point x="124" y="-196" type="curve"/>
      <point x="175" y="-196"/>
      <point x="218" y="-184"/>
      <point x="257" y="-164" type="curve"/>
    </contour>
    <contour>
      <point x="246" y="438"/>
      <point x="247" y="489"/>
      <point x="243" y="551" type="curve"/>
      <point x="221" y="562"/>
      <point x="183" y="571"/>
      <point x="142" y="571" type="curve" smooth="yes"/>
      <point x="111" y="571"/>
      <point x="87" y="569"/>
      <point x="53" y="562" type="curve"/>
      <point x="59" y="504"/>
      <point x="62" y="456"/>
      <point x="65" y="394" type="curve"/>
      <point x="127" y="392"/>
      <point x="172" y="389"/>
      <point x="243" y="388" type="curve"/>
    </contour>
  </outline>
</glyph>
<glyph name="copyright" format="1">
  <advance width="876"/>
  <unicode hex="00A9"/>
  <outline>
    <contour>
      <point x="608" y="243" type="curve"/>
      <point x="591" y="257"/>
      <point x="539" y="267"/>
      <point x="497" y="262" type="curve"/>
      <point x="506" y="218"/>
      <point x="492" y="191"/>
      <point x="459" y="191" type="curve" smooth="yes"/>
      <point x="428" y="191"/>
      <point x="413" y="235"/>
      <point x="413" y="305" type="curve" smooth="yes"/>
      <point x="413" y="367"/>
      <point x="425" y="440"/>
      <point x="454" y="440" type="curve" smooth="yes"/>
      <point x="464" y="440"/>
      <point x="481" y="422"/>
      <point x="483" y="374" type="curve"/>
      <point x="554" y="374"/>
      <point x="577" y="382"/>
      <point x="620" y="399" type="curve"/>
      <point x="609" y="477"/>
      <point x="554" y="522"/>
      <point x="479" y="522" type="curve" smooth="yes"/>
      <point x="340" y="522"/>
      <point x="250" y="399"/>
      <point x="250" y="270" type="curve" smooth="yes"/>
      <point x="250" y="149"/>
      <point x="328" y="105"/>
      <point x="417" y="105" type="curve" smooth="yes"/>
      <point x="539" y="105"/>
      <point x="602" y="163"/>
    </contour>
    <contour>
      <point x="720" y="322" type="curve" smooth="yes"/>
      <point x="720" y="127"/>
      <point x="611" y="8"/>
      <point x="440" y="8" type="curve" smooth="yes"/>
      <point x="265" y="8"/>
      <point x="156" y="118"/>
      <point x="156" y="301" type="curve" smooth="yes"/>
      <point x="156" y="478"/>
      <point x="279" y="602"/>
      <point x="448" y="602" type="curve" smooth="yes"/>
      <point x="617" y="602"/>
      <point x="720" y="496"/>
    </contour>
    <contour>
      <point x="851" y="320" type="curve" smooth="yes"/>
      <point x="851" y="515"/>
      <point x="718" y="708"/>
      <point x="460" y="708" type="curve" smooth="yes"/>
      <point x="211" y="708"/>
      <point x="25" y="519"/>
      <point x="25" y="297" type="curve" smooth="yes"/>
      <point x="25" y="52"/>
      <point x="185" y="-98"/>
      <point x="432" y="-98" type="curve" smooth="yes"/>
      <point x="715" y="-98"/>
      <point x="851" y="81"/>
    </contour>
  </outline>
</glyph>
<glyph name="guillemotleft" format="1">
  <advance width="604"/>
  <unicode hex="00AB"/>
  <outline>
    <contour>
      <point x="204" y="24" type="curve"/>
      <point x="257" y="46"/>
      <point x="290" y="75"/>
      <point x="320" y="126" type="curve"/>
      <point x="225" y="189"/>
      <point x="172" y="244"/>
      <point x="116" y="321" type="curve"/>
      <point x="6" y="267" type="line"/>
      <point x="53" y="168"/>
      <point x="123" y="93"/>
    </contour>
    <contour>
      <point x="323" y="406" type="curve"/>
      <point x="300" y="441"/>
      <point x="249" y="479"/>
      <point x="205" y="499" type="curve"/>
      <point x="150" y="400"/>
      <point x="91" y="335"/>
      <point x="6" y="267" type="curve"/>
      <point x="85" y="211" type="line"/>
      <point x="191" y="269"/>
      <point x="252" y="327"/>
    </contour>
    <contour>
      <point x="478" y="24" type="curve"/>
      <point x="531" y="46"/>
      <point x="564" y="75"/>
      <point x="594" y="126" type="curve"/>
      <point x="499" y="189"/>
      <point x="446" y="244"/>
      <point x="390" y="321" type="curve"/>
      <point x="280" y="267" type="line"/>
      <point x="327" y="168"/>
      <point x="397" y="93"/>
    </contour>
    <contour>
      <point x="597" y="406" type="curve"/>
      <point x="574" y="441"/>
      <point x="523" y="479"/>
      <point x="479" y="499" type="curve"/>
      <point x="424" y="400"/>
      <point x="365" y="335"/>
      <point x="280" y="267" type="curve"/>
      <point x="359" y="211" type="line"/>
      <point x="465" y="269"/>
      <point x="526" y="327"/>
    </contour>
  </outline>
</glyph>
<glyph name="acute" format="1">
  <advance width="260"/>
  <unicode hex="00B4"/>
  <outline>
    <contour>
      <point x="150" y="571" type="curve"/>
      <point x="194" y="632"/>
      <point x="215" y="682"/>
      <point x="223" y="733" type="curve"/>
      <point x="172" y="754"/>
      <point x="106" y="753"/>
      <point x="68" y="747" type="curve"/>
      <point x="65" y="695"/>
      <point x="54" y="637"/>
      <point x="37" y="585" type="curve"/>
      <point x="73" y="575"/>
      <point x="109" y="571"/>
    </contour>
    <contour>
      <point x="88.0" y="560.0" type="move" name="_top"/>
    </contour>
  </outline>
</glyph>
<glyph name="ordmasculine" format="1">
  <advance width="364"/>
  <unicode hex="00BA"/>
  <outline>
    <contour>
      <point x="214" y="706" type="curve" smooth="yes"/>
      <point x="95" y="706"/>
      <point x="19" y="623"/>
      <point x="19" y="517" type="curve" smooth="yes"/>
      <point x="19" y="449"/>
      <point x="52" y="379"/>
      <point x="149" y="379" type="curve" smooth="yes"/>
      <point x="306" y="379"/>
      <point x="346" y="524"/>
      <point x="346" y="586" type="curve" smooth="yes"/>
      <point x="346" y="666"/>
      <point x="297" y="706"/>
    </contour>
    <contour>
      <point x="182" y="627" type="curve" smooth="yes"/>
      <point x="195" y="627"/>
      <point x="200" y="606"/>
      <point x="200" y="551" type="curve" smooth="yes"/>
      <point x="200" y="522"/>
      <point x="203" y="458"/>
      <point x="181" y="458" type="curve" smooth="yes"/>
      <point x="169" y="458"/>
      <point x="163" y="502"/>
      <point x="163" y="536" type="curve" smooth="yes"/>
      <point x="163" y="591"/>
      <point x="169" y="627"/>
    </contour>
  </outline>
</glyph>
<glyph name="multiply" format="1">
  <advance width="501"/>
  <unicode hex="00D7"/>
  <outline>
    <contour>
      <point x="374" y="548" type="curve"/>
      <point x="275" y="424"/>
      <point x="165" y="314"/>
      <point x="47" y="223" type="curve"/>
      <point x="74" y="188"/>
      <point x="97" y="162"/>
      <point x="127" y="132" type="curve"/>
      <point x="226" y="203"/>
      <point x="365" y="339"/>
      <point x="447" y="451" type="curve"/>
      <point x="428" y="486"/>
      <point x="404" y="518"/>
    </contour>
    <contour>
      <point x="371" y="133" type="curve"/>
      <point x="403" y="161"/>
      <point x="430" y="190"/>
      <point x="454" y="220" type="curve"/>
      <point x="372" y="332"/>
      <point x="233" y="468"/>
      <point x="134" y="540" type="curve"/>
      <point x="104" y="509"/>
      <point x="81" y="484"/>
      <point x="54" y="448" type="curve"/>
      <point x="169" y="360"/>
      <point x="275" y="253"/>
    </contour>
  </outline>
</glyph>
<glyph name="Oslash" format="1">
  <advance width="649"/>
  <unicode hex="00D8"/>
  <outline>
    <contour>
      <point x="31" y="-22" type="curve"/>
      <point x="68.5691966507" y="-59.5691966507"/>
      <point x="98.6756268068" y="-74.5256868413"/>
      <point x="148" y="-90" type="curve"/>
      <point x="327.016872076" y="203.668127225"/>
      <point x="470.293391606" y="442.586783213"/>
      <point x="607" y="716" type="curve"/>
      <point x="575.396949814" y="750.661409882"/>
      <point x="524.552545599" y="780.601911385"/>
      <point x="484" y="791" type="curve"/>
      <point x="344.473131961" y="499.900778911"/>
      <point x="200.970267934" y="248.544390973"/>
    </contour>
    <contour>
      <point x="619" y="432" type="curve" smooth="yes"/>
      <point x="619" y="627"/>
      <point x="525" y="733"/>
      <point x="368" y="733" type="curve" smooth="yes"/>
      <point x="161" y="733"/>
      <point x="30" y="558"/>
      <point x="30" y="323" type="curve" smooth="yes"/>
      <point x="30" y="149"/>
      <point x="98" y="-20"/>
      <point x="279" y="-20" type="curve" smooth="yes"/>
      <point x="542" y="-20"/>
      <point x="619" y="269"/>
    </contour>
    <contour>
      <point x="322" y="110" type="curve" smooth="yes"/>
      <point x="252" y="110"/>
      <point x="235" y="242"/>
      <point x="235" y="351" type="curve" smooth="yes"/>
      <point x="235" y="502"/>
      <point x="264" y="603"/>
      <point x="325" y="603" type="curve" smooth="yes"/>
      <point x="387" y="603"/>
      <point x="410" y="540"/>
      <point x="410" y="377" type="curve" smooth="yes"/>
      <point x="410" y="264"/>
      <point x="403" y="110"/>
    </contour>
  </outline>
</glyph>
<glyph name="Aogonek" format="1">
  <advance width="673"/>
  <unicode hex="0104"/>
  <outline>
    <contour>
      <point x="672" y="-55" type="curve"/>
      <point x="629" y="210"/>
      <point x="549" y="484"/>
      <point x="420" y="689" type="curve"/>
      <point x="363" y="703"/>
      <point x="317" y="710"/>
      <point x="244" y="710" type="curve"/>
      <point x="175" y="466"/>
      <point x="111" y="278"/>
      <point x="-9" y="55" type="curve"/>
      <point x="24" y="13"/>
      <point x="85" y="-21"/>
      <point x="152" y="-32" type="curve"/>
      <point x="221" y="109"/>
      <point x="296" y="356"/>
      <point x="341" y="537" type="curve"/>
      <point x="304" y="535" type="line"/>
      <point x="387" y="347"/>
      <point x="451" y="99"/>
      <point x="473" y="-117" type="curve"/>
      <point x="554" y="-107"/>
      <point x="621" y="-89"/>
    </contour>
    <contour>
      <point x="481" y="142" type="curve"/>
      <point x="471" y="279" type="line"/>
      <point x="366" y="279"/>
      <point x="272" y="269"/>
      <point x="174" y="250" type="curve"/>
      <point x="180" y="124" type="line"/>
      <point x="279" y="139"/>
      <point x="382" y="142"/>
    </contour>
    <contour>
      <point x="592" y="-86" type="curve"/>
      <point x="551" y="-66" type="line"/>
      <point x="467" y="-111"/>
      <point x="420" y="-154"/>
      <point x="420" y="-219" type="curve" smooth="yes"/>
      <point x="420" y="-268"/>
      <point x="463" y="-298"/>
      <point x="526" y="-298" type="curve" smooth="yes"/>
      <point x="581" y="-298"/>
      <point x="622" y="-274"/>
      <point x="650" y="-237" type="curve"/>
      <point x="641" y="-217"/>
      <point x="628" y="-193"/>
      <point x="612" y="-180" type="curve"/>
      <point x="594" y="-207"/>
      <point x="576" y="-219"/>
      <point x="556" y="-219" type="curve" smooth="yes"/>
      <point x="539" y="-219"/>
      <point x="529" y="-206"/>
      <point x="529" y="-186" type="curve" smooth="yes"/>
      <point x="529" y="-152"/>
      <point x="553" y="-111"/>
    </contour>
  </outline>
</glyph>
<glyph name="eogonek" format="1">
  <advance width="545"/>
  <unicode hex="0119"/>
  <outline>
    <contour>
      <point x="429" y="-4" type="curve" smooth="yes"/>
      <point x="390" y="-29"/>
      <point x="366" y="-70"/>
      <point x="366" y="-104" type="curve" smooth="yes"/>
      <point x="366" y="-124"/>
      <point x="376" y="-137"/>
      <point x="393" y="-137" type="curve" smooth="yes"/>
      <point x="413" y="-137"/>
      <point x="431" y="-125"/>
      <point x="449" y="-98" type="curve"/>
      <point x="465" y="-111"/>
      <point x="478" y="-135"/>
      <point x="487" y="-155" type="curve"/>
      <point x="459" y="-192"/>
      <point x="418" y="-216"/>
      <point x="363" y="-216" type="curve" smooth="yes"/>
      <point x="300" y="-216"/>
      <point x="257" y="-186"/>
      <point x="257" y="-137" type="curve" smooth="yes"/>
      <point x="257" y="-72"/>
      <point x="304" y="-29"/>
      <point x="388" y="16" type="curve"/>
      <point x="367" y="-37" type="line"/>
      <point x="335" y="-49"/>
      <point x="296.0" y="-56.0"/>
      <point x="251.0" y="-56.0" type="curve" smooth="yes"/>
      <point x="97.0" y="-56.0"/>
      <point x="30.0" y="46.0"/>
      <point x="30.0" y="169.0" type="curve" smooth="yes"/>
      <point x="30.0" y="362.0"/>
      <point x="169.0" y="531.0"/>
      <point x="323.0" y="531.0" type="curve" smooth="yes"/>
      <point x="439.0" y="531.0"/>
      <point x="507.0" y="466.0"/>
      <point x="507.0" y="375.0" type="curve" smooth="yes"/>
      <point x="507.0" y="334.0"/>
      <point x="498.0" y="277.0"/>
      <point x="484.0" y="238.0" type="curve"/>
      <point x="437.0" y="215.0"/>
      <point x="372.0" y="208.0"/>
      <point x="299.0" y="208.0" type="curve" smooth="yes"/>
      <point x="256.0" y="208.0"/>
      <point x="208.0" y="216.0"/>
      <point x="164.0" y="234.0" type="curve"/>
      <point x="173.0" y="338.0" type="line"/>
      <point x="215.0" y="315.0"/>
      <point x="259.0" y="305.0"/>
      <point x="285.0" y="305.0" type="curve" smooth="yes"/>
      <point x="295.0" y="305.0"/>
      <point x="313.0" y="306.0"/>
      <point x="318.0" y="307.0" type="curve"/>
      <point x="325.0" y="333.0"/>
      <point x="331.0" y="363.0"/>
      <point x="331.0" y="390.0" type="curve" smooth="yes"/>
      <point x="331.0" y="413.0"/>
      <point x="326.0" y="431.0"/>
      <point x="309.0" y="431.0" type="curve" smooth="yes"/>
      <point x="263.0" y="431.0"/>
      <point x="228.0" y="293.0"/>
      <point x="228.0" y="179.0" type="curve" smooth="yes"/>
      <point x="228.0" y="106.0"/>
      <point x="246.0" y="55.0"/>
      <point x="288.0" y="55.0" type="curve" smooth="yes"/>
      <point x="320.0" y="55.0"/>
      <point x="352.0" y="121.0"/>
      <point x="363.0" y="157.0" type="curve"/>
      <point x="413.0" y="148.0"/>
      <point x="471" y="118"/>
      <point x="505" y="83" type="curve"/>
      <point x="489" y="45"/>
      <point x="470" y="22"/>
    </contour>
  </outline>
</glyph>
<glyph name="ogonek" format="1">
  <advance width="261"/>
  <unicode hex="02DB"/>
  <outline>
    <contour>
      <point x="190" y="-12" type="curve"/>
      <point x="149" y="8" type="line"/>
      <point x="65" y="-37"/>
      <point x="18" y="-80"/>
      <point x="18" y="-145" type="curve" smooth="yes"/>
      <point x="18" y="-194"/>
      <point x="61" y="-224"/>
      <point x="124" y="-224" type="curve" smooth="yes"/>
      <point x="179" y="-224"/>
      <point x="220" y="-200"/>
      <point x="248" y="-163" type="curve"/>
      <point x="239" y="-143"/>
      <point x="226" y="-119"/>
      <point x="210" y="-106" type="curve"/>
      <point x="192" y="-133"/>
      <point x="174" y="-145"/>
      <point x="154" y="-145" type="curve" smooth="yes"/>
      <point x="137" y="-145"/>
      <point x="127" y="-132"/>
      <point x="127" y="-112" type="curve" smooth="yes"/>
      <point x="127" y="-78"/>
      <point x="151" y="-37"/>
    </contour>
    <contour>
      <point x="144.0" y="0.0" type="move" name="_bottom"/>
    </contour>
  </outline>
</glyph>
<glyph name="tilde" format="1">
  <advance width="260"/>
  <unicode hex="02DC"/>
  <outline>
    <contour>
      <point x="173" y="705" type="curve" smooth="yes"/>
      <point x="134.0" y="705.0"/>
      <point x="107" y="737"/>
      <point x="66" y="737" type="curve" smooth="yes"/>
      <point x="11" y="737"/>
      <point x="-19" y="687"/>
      <point x="-12" y="611" type="curve"/>
      <point x="8" y="604"/>
      <point x="38" y="601"/>
      <point x="55" y="602" type="curve"/>
      <point x="54.1135021665" y="628.594935004"/>
      <point x="66.0" y="641.0"/>
      <point x="86" y="641" type="curve" smooth="yes"/>
      <point x="120.0" y="641.0"/>
      <point x="146" y="609"/>
      <point x="193" y="609" type="curve" smooth="yes"/>
      <point x="246" y="609"/>
      <point x="278" y="658"/>
      <point x="271" y="735" type="curve"/>
      <point x="256" y="742"/>
      <point x="231" y="746"/>
      <point x="204" y="744" type="curve"/>
      <point x="204.886497833" y="717.405064996"/>
      <point x="193.0" y="705.0"/>
    </contour>
    <contour>
      <point x="130.0" y="560.0" type="move" name="_top"/>
    </contour>
  </outline>
</glyph>
<glyph name="bn_chandrabindu" format="1">
  <advance width="300"/>
  <unicode hex="0981"/>
  <outline>
    <contour>
      <point x="237" y="686"/>
      <point x="311" y="754"/>
      <point x="328" y="848" type="curve"/>
      <point x="252" y="872" type="line"/>
      <point x="240" y="833"/>
      <point x="212" y="804"/>
      <point x="168" y="804" type="curve" smooth="yes"/>
      <point x="132" y="804"/>
      <point x="96" y="828"/>
      <point x="88" y="859" type="curve"/>
      <point x="-20" y="832" type="line"/>
      <point x="-13" y="750"/>
      <point x="56" y="686"/>
      <point x="146" y="686" type="curve" smooth="yes"/>
    </contour>
    <contour>
      <point x="201" y="838"/>
      <point x="229" y="867"/>
      <point x="229" y="902" type="curve" smooth="yes"/>
      <point x="229" y="938"/>
      <point x="204" y="968"/>
      <point x="165" y="968" type="curve" smooth="yes"/>
      <point x="130" y="968"/>
      <point x="103" y="939"/>
      <point x="103" y="902" type="curve" smooth="yes"/>
      <point x="103" y="868"/>
      <point x="128" y="838"/>
      <point x="167" y="838" type="curve" smooth="yes"/>
    </contour>
  </outline>
</glyph>
<glyph name="bn_bisarga" format="1">
  <advance width="435"/>
  <unicode hex="0983"/>
  <outline>
    <contour>
      <point x="308" y="320"/>
      <point x="389" y="397"/>
      <point x="390" y="493" type="curve" smooth="yes"/>
      <point x="392" y="582"/>
      <point x="325" y="648"/>
      <point x="234" y="648" type="curve" smooth="yes"/>
      <point x="135" y="648"/>
      <point x="57" y="571"/>
      <point x="55" y="472" type="curve" smooth="yes"/>
      <point x="53" y="386"/>
      <point x="121" y="320"/>
      <point x="210" y="320" type="curve" smooth="yes"/>
    </contour>
    <contour>
      <point x="306" y="-26"/>
      <point x="383" y="49"/>
      <point x="383" y="143" type="curve" smooth="yes"/>
      <point x="383" y="228"/>
      <point x="316" y="293"/>
      <point x="229" y="293" type="curve" smooth="yes"/>
      <point x="133" y="293"/>
      <point x="58" y="218"/>
      <point x="58" y="122" type="curve" smooth="yes"/>
      <point x="58" y="38"/>
      <point x="124" y="-26"/>
      <point x="211" y="-26" type="curve" smooth="yes"/>
    </contour>
    <contour>
      <point x="198" y="76"/>
      <point x="161" y="112"/>
      <point x="161" y="152" type="curve" smooth="yes"/>
      <point x="161" y="176"/>
      <point x="176" y="191"/>
      <point x="202" y="191" type="curve" smooth="yes"/>
      <point x="245" y="191"/>
      <point x="280" y="155"/>
      <point x="280" y="112" type="curve" smooth="yes"/>
      <point x="280" y="90"/>
      <point x="265" y="76"/>
      <point x="240" y="76" type="curve" smooth="yes"/>
    </contour>
    <contour>
      <point x="200" y="423"/>
      <point x="158" y="460"/>
      <point x="158" y="505" type="curve" smooth="yes"/>
      <point x="158" y="530"/>
      <point x="176" y="546"/>
      <point x="203" y="546" type="curve" smooth="yes"/>
      <point x="246" y="546"/>
      <point x="287" y="508"/>
      <point x="287" y="461" type="curve" smooth="yes"/>
      <point x="287" y="438"/>
      <point x="269" y="423"/>
      <point x="243" y="423" type="curve" smooth="yes"/>
    </contour>
  </outline>
</glyph>
<glyph name="bn_ra" format="1">
  <advance width="525"/>
  <unicode hex="09B0"/>
  <outline>
    <contour>
      <point x="243" y="11"/>
      <point x="205" y="55"/>
      <point x="151" y="55" type="curve" smooth="yes"/>
      <point x="105" y="55"/>
      <point x="70" y="19"/>
      <point x="70" y="-28" type="curve" smooth="yes"/>
      <point x="70" y="-78"/>
      <point x="107" y="-122"/>
      <point x="163" y="-122" type="curve" smooth="yes"/>
      <point x="208" y="-122"/>
      <point x="243" y="-86"/>
      <point x="243" y="-40" type="curve" smooth="yes"/>
    </contour>
    <component base="bn_ba"/>
  </outline>
</glyph>
<glyph name="bn_ukaar" format="1">
  <advance width="0"/>
  <unicode hex="09C1"/>
  <outline>
    <contour>
      <point x="5" y="-344"/>
      <point x="60" y="-214"/>
      <point x="60" y="-138" type="curve" smooth="yes"/>
      <point x="60.0" y="-77.0"/>
      <point x="47" y="-33"/>
      <point x="27" y="7" type="curve"/>
      <point x="-69" y="-11" type="line"/>
      <point x="-58.8647393061" y="-43.4328342204"/>
      <point x="-53.0" y="-77.0"/>
      <point x="-53" y="-115" type="curve" smooth="yes"/>
      <point x="-53" y="-165"/>
      <point x="-83" y="-237"/>
      <point x="-147" y="-237" type="curve" smooth="yes"/>
      <point x="-172" y="-237"/>
      <point x="-191" y="-224"/>
      <point x="-191" y="-203" type="curve" smooth="yes"/>
      <point x="-191" y="-183"/>
      <point x="-174" y="-170"/>
      <point x="-147" y="-170" type="curve" smooth="yes"/>
      <point x="-115" y="-170"/>
      <point x="-80" y="-194"/>
      <point x="-49" y="-233" type="curve"/>
      <point x="0" y="-145" type="line"/>
      <point x="-36.9062518964" y="-97.4103593967"/>
      <point x="-79.0" y="-63.0"/>
      <point x="-137" y="-63" type="curve" smooth="yes"/>
      <point x="-209.0" y="-63.0"/>
      <point x="-267.0" y="-120.289855072"/>
      <point x="-267" y="-197" type="curve" smooth="yes"/>
      <point x="-267" y="-286"/>
      <point x="-211" y="-344"/>
      <point x="-120" y="-344" type="curve" smooth="yes"/>
    </contour>
    <contour>
      <point x="154" y="-322"/>
      <point x="177" y="-290"/>
      <point x="191" y="-260" type="curve"/>
      <point x="4" y="-129" type="line"/>
      <point x="-36" y="-226" type="line"/>
      <point x="127" y="-348" type="line"/>
    </contour>
    <contour>
      <point x="0" y="-20" type="move" name="_blwm"/>
    </contour>
  </outline>
</glyph>
<glyph name="bn_uukaar" format="1">
  <advance width="0"/>
  <unicode hex="09C2"/>
  <outline>
    <contour>
      <point x="242" y="-312"/>
      <point x="265" y="-280"/>
      <point x="279" y="-250" type="curve"/>
      <point x="92" y="-119" type="line"/>
      <point x="44" y="-161"/>
      <point x="2" y="-189"/>
      <point x="-30" y="-189" type="curve" smooth="yes"/>
      <point x="-41" y="-189"/>
      <point x="-49" y="-182"/>
      <point x="-49" y="-169" type="curve" smooth="yes"/>
      <point x="-49.0" y="-132.351648352"/>
      <point x="4.83715492344" y="-82.2927688506"/>
      <point x="85" y="-54" type="curve" smooth="yes"/>
      <point x="102" y="-48" type="line"/>
      <point x="79" y="33" type="line"/>
      <point x="-12" y="25" type="line"/>
      <point x="-111" y="-32"/>
      <point x="-143.0" y="-98.5428571429"/>
      <point x="-143" y="-163" type="curve" smooth="yes"/>
      <point x="-143" y="-243"/>
      <point x="-83" y="-314"/>
      <point x="4" y="-314" type="curve" smooth="yes"/>
      <point x="52" y="-314"/>
      <point x="100" y="-293"/>
      <point x="139" y="-245" type="curve"/>
      <point x="100" y="-252" type="line"/>
      <point x="215" y="-338" type="line"/>
    </contour>
    <contour>
      <point x="0.0" y="-20.0" type="move" name="_blwm"/>
    </contour>
  </outline>
</glyph>
<glyph name="bn_rikaar" format="1">
  <advance width="0"/>
  <unicode hex="09C3"/>
  <outline>
    <contour>
      <point x="113" y="-256" type="curve"/>
      <point x="-82" y="-115" type="line"/>
      <point x="-64" y="-198" type="line"/>
      <point x="100" y="-37" type="line"/>
      <point x="77" y="18" type="line"/>
      <point x="-40" y="30" type="line"/>
      <point x="-40" y="-7" type="line"/>
      <point x="-168" y="-149" type="line"/>
      <point x="-168" y="-178" type="line"/>
      <point x="49" y="-344" type="line"/>
      <point x="76" y="-318"/>
      <point x="99" y="-286"/>
    </contour>
    <contour>
      <point x="0" y="-20" type="move" name="_blwm"/>
    </contour>
  </outline>
</glyph>
<glyph name="bn_rrikaar" format="1">
  <advance width="0"/>
  <unicode hex="09C4"/>
  <outline>
    <contour>
      <point x="113" y="-256" type="curve"/>
      <point x="-82" y="-115" type="line"/>
      <point x="-64" y="-198" type="line"/>
      <point x="100" y="-37" type="line"/>
      <point x="77" y="18" type="line"/>
      <point x="-40" y="30" type="line"/>
      <point x="-40" y="-7" type="line"/>
      <point x="-168" y="-149" type="line"/>
      <point x="-168" y="-178" type="line"/>
      <point x="49" y="-344" type="line"/>
      <point x="76" y="-318"/>
      <point x="99" y="-286"/>
    </contour>
    <contour>
      <point x="1" y="-422"/>
      <point x="20" y="-396"/>
      <point x="32" y="-371" type="curve"/>
      <point x="-106" y="-274" type="line"/>
      <point x="-84" y="-348" type="line"/>
      <point x="41" y="-239" type="line"/>
      <point x="-84" y="-222" type="line"/>
      <point x="-171" y="-304" type="line"/>
      <point x="-171" y="-328" type="line"/>
      <point x="-22" y="-444" type="line"/>
    </contour>
    <contour>
      <point x="0" y="-20" type="move" name="_blwm"/>
    </contour>
  </outline>
</glyph>
<glyph name="bn_ekaar" format="1">
  <advance width="355"/>
  <unicode hex="09C7"/>
  <outline>
    <contour>
      <point x="342" y="-88"/>
      <point x="387" y="-63"/>
      <point x="430" y="-7" type="curve"/>
      <point x="430" y="34"/>
      <point x="378" y="110"/>
      <point x="333" y="135" type="curve"/>
      <point x="293" y="43"/>
      <point x="275" y="15"/>
      <point x="247" y="15" type="curve" smooth="yes"/>
      <point x="213" y="15"/>
      <point x="201" y="64"/>
      <point x="201" y="202" type="curve" smooth="yes"/>
      <point x="201" y="409"/>
      <point x="243" y="490"/>
      <point x="355" y="504" type="curve"/>
      <point x="362" y="519"/>
      <point x="366" y="549"/>
      <point x="366" y="579" type="curve" smooth="yes"/>
      <point x="366" y="604"/>
      <point x="362" y="624"/>
      <point x="355" y="639" type="curve"/>
      <point x="264" y="623"/>
      <point x="199" y="598"/>
      <point x="156" y="562" type="curve"/>
      <point x="136" y="549" type="line"/>
      <point x="75" y="456"/>
      <point x="51" y="364"/>
      <point x="51" y="229" type="curve" smooth="yes"/>
      <point x="51" y="36"/>
      <point x="140" y="-88"/>
      <point x="280" y="-88" type="curve" smooth="yes"/>
    </contour>
    <contour>
      <point x="213" y="535" type="line"/>
      <point x="178" y="583"/>
      <point x="109" y="616"/>
      <point x="0" y="639" type="curve"/>
      <point x="-7" y="623"/>
      <point x="-10" y="601"/>
      <point x="-10" y="575" type="curve" smooth="yes"/>
      <point x="-10" y="548"/>
      <point x="-6" y="519"/>
      <point x="0" y="504" type="curve"/>
      <point x="50" y="498"/>
      <point x="106" y="470"/>
      <point x="106" y="451" type="curve"/>
    </contour>
  </outline>
</glyph>
<glyph name="bn_yya" format="1">
  <advance width="564"/>
  <unicode hex="09DF"/>
  <outline>
    <contour>
      <point x="247" y="25"/>
      <point x="209" y="69"/>
      <point x="155" y="69" type="curve" smooth="yes"/>
      <point x="109" y="69"/>
      <point x="74" y="33"/>
      <point x="74" y="-14" type="curve" smooth="yes"/>
      <point x="74" y="-64"/>
      <point x="111" y="-108"/>
      <point x="167" y="-108" type="curve" smooth="yes"/>
      <point x="212" y="-108"/>
      <point x="247" y="-72"/>
      <point x="247" y="-26" type="curve" smooth="yes"/>
    </contour>
    <component base="bn_ya"/>
    <contour>
      <point x="414" y="-11" type="move" name="blwm"/>
    </contour>
    <contour>
      <point x="272" y="0" type="move" name="haln"/>
    </contour>
    <contour>
      <point x="293" y="690" type="move" name="reph"/>
    </contour>
    <contour>
      <point x="293" y="690" type="move" name="chandrabindu"/>
    </contour>
  </outline>
</glyph>
<glyph name="bn_lli" format="1">
  <advance width="756"/>
  <unicode hex="09E1"/>
  <outline>
    <contour>
      <point x="494" y="142"/>
      <point x="514" y="232"/>
      <point x="514" y="315" type="curve" smooth="yes"/>
      <point x="514" y="442"/>
      <point x="469" y="538"/>
      <point x="337" y="571" type="curve" smooth="yes"/>
      <point x="273" y="587" type="line" smooth="yes"/>
      <point x="198" y="606"/>
      <point x="163" y="621"/>
      <point x="148" y="720" type="curve"/>
      <point x="119" y="711"/>
      <point x="77" y="696"/>
      <point x="39" y="670" type="curve"/>
      <point x="63" y="507"/>
      <point x="130" y="463"/>
      <point x="266" y="431" type="curve" smooth="yes"/>
      <point x="350" y="414"/>
      <point x="421" y="397"/>
      <point x="421" y="337" type="curve" smooth="yes"/>
      <point x="421" y="273"/>
      <point x="371" y="170"/>
      <point x="303" y="78" type="curve"/>
      <point x="463" y="60" type="line"/>
    </contour>
    <contour>
      <point x="205" y="-36"/>
      <point x="230" y="-20"/>
      <point x="246" y="0" type="curve"/>
      <point x="241" y="50"/>
      <point x="220" y="122"/>
      <point x="195" y="170" type="curve"/>
      <point x="179" y="146"/>
      <point x="162" y="130"/>
      <point x="138" y="130" type="curve" smooth="yes"/>
      <point x="122" y="130"/>
      <point x="102" y="137"/>
      <point x="102" y="165" type="curve" smooth="yes"/>
      <point x="102" y="195"/>
      <point x="124" y="216"/>
      <point x="163" y="216" type="curve" smooth="yes"/>
      <point x="213" y="216"/>
      <point x="279" y="180"/>
      <point x="289" y="28" type="curve"/>
      <point x="365" y="102" type="line"/>
      <point x="365" y="278"/>
      <point x="300" y="397"/>
      <point x="181" y="397" type="curve" smooth="yes"/>
      <point x="75" y="397"/>
      <point x="15" y="306"/>
      <point x="15" y="186" type="curve" smooth="yes"/>
      <point x="15" y="62"/>
      <point x="79" y="-36"/>
      <point x="171" y="-36" type="curve" smooth="yes"/>
    </contour>
    <contour>
      <point x="442" y="-227"/>
      <point x="462" y="-215"/>
      <point x="476" y="-201" type="curve"/>
      <point x="471" y="-151"/>
      <point x="451" y="-80"/>
      <point x="426" y="-32" type="curve"/>
      <point x="411" y="-50"/>
      <point x="398" y="-61"/>
      <point x="378" y="-61" type="curve" smooth="yes"/>
      <point x="365" y="-61"/>
      <point x="349" y="-57"/>
      <point x="349" y="-36" type="curve" smooth="yes"/>
      <point x="349" y="-15"/>
      <point x="366" y="1"/>
      <point x="399" y="1" type="curve" smooth="yes"/>
      <point x="446" y="1"/>
      <point x="514" y="-28"/>
      <point x="514" y="-199" type="curve"/>
      <point x="585" y="-90" type="line"/>
      <point x="585" y="66"/>
      <point x="529" y="174"/>
      <point x="418" y="174" type="curve"/>
      <point x="316" y="124" type="line"/>
      <point x="283" y="89"/>
      <point x="265" y="38"/>
      <point x="265" y="-20" type="curve" smooth="yes"/>
      <point x="265" y="-135"/>
      <point x="326" y="-227"/>
      <point x="412" y="-227" type="curve" smooth="yes"/>
    </contour>
    <contour>
      <point x="691" y="-138"/>
      <point x="729" y="-23"/>
      <point x="729" y="83" type="curve" smooth="yes"/>
      <point x="729" y="195"/>
      <point x="687" y="294"/>
      <point x="567" y="331" type="curve" smooth="yes"/>
      <point x="484" y="357" type="line"/>
      <point x="451" y="210" type="line"/>
      <point x="502" y="194" type="line" smooth="yes"/>
      <point x="575" y="171"/>
      <point x="641" y="163"/>
      <point x="641" y="101" type="curve" smooth="yes"/>
      <point x="641" y="50"/>
      <point x="590" y="-28"/>
      <point x="524" y="-111" type="curve"/>
      <point x="514" y="-199" type="line"/>
      <point x="551" y="-217"/>
      <point x="597" y="-227"/>
      <point x="639" y="-229" type="curve"/>
    </contour>
  </outline>
</glyph>
<glyph name="bn_likaar" format="1">
  <advance width="300"/>
  <unicode hex="09E2"/>
  <outline>
    <contour>
      <point x="281" y="-340"/>
      <point x="303" y="-265"/>
      <point x="303" y="-198" type="curve" smooth="yes"/>
      <point x="303" y="-124"/>
      <point x="278" y="-64"/>
      <point x="202" y="-45" type="curve" smooth="yes"/>
      <point x="164" y="-36" type="line" smooth="yes"/>
      <point x="120" y="-25"/>
      <point x="99" y="-16"/>
      <point x="90" y="42" type="curve"/>
      <point x="73" y="36"/>
      <point x="48" y="27"/>
      <point x="24" y="12" type="curve"/>
      <point x="38" y="-87"/>
      <point x="77" y="-115"/>
      <point x="155" y="-134" type="curve" smooth="yes"/>
      <point x="204" y="-146"/>
      <point x="235" y="-157"/>
      <point x="235" y="-201" type="curve" smooth="yes"/>
      <point x="235" y="-237"/>
      <point x="220" y="-291"/>
      <point x="198" y="-336" type="curve"/>
      <point x="172" y="-387" type="line"/>
      <point x="196" y="-395"/>
      <point x="224" y="-400"/>
      <point x="249" y="-400" type="curve"/>
    </contour>
    <contour>
      <point x="120" y="-399"/>
      <point x="136" y="-390"/>
      <point x="147" y="-379" type="curve"/>
      <point x="145" y="-348"/>
      <point x="131" y="-304"/>
      <point x="116" y="-274" type="curve"/>
      <point x="106" y="-287"/>
      <point x="97" y="-296"/>
      <point x="83" y="-296" type="curve" smooth="yes"/>
      <point x="73" y="-296"/>
      <point x="63" y="-292"/>
      <point x="63" y="-278" type="curve" smooth="yes"/>
      <point x="63" y="-262"/>
      <point x="75" y="-252"/>
      <point x="97" y="-252" type="curve" smooth="yes"/>
      <point x="129" y="-252"/>
      <point x="171" y="-274"/>
      <point x="172" y="-387" type="curve"/>
      <point x="219" y="-314" type="line"/>
      <point x="219" y="-210"/>
      <point x="176" y="-139"/>
      <point x="100" y="-139" type="curve" smooth="yes"/>
      <point x="33" y="-139"/>
      <point x="0" y="-195"/>
      <point x="0" y="-267" type="curve" smooth="yes"/>
      <point x="0" y="-340"/>
      <point x="39" y="-399"/>
      <point x="98" y="-399" type="curve" smooth="yes"/>
    </contour>
  </outline>
</glyph>
<glyph name="asa_ba" format="1">
  <advance width="525"/>
  <unicode hex="09F1"/>
  <outline>
    <contour>
      <point x="27" y="20" type="curve"/>
      <point x="87.4255725718" y="11.0178202934"/>
      <point x="165" y="-31"/>
      <point x="209" y="-78" type="curve"/>
      <point x="231" y="-66"/>
      <point x="249" y="-44"/>
      <point x="257" y="-22" type="curve"/>
      <point x="230" y="30"/>
      <point x="138.838309444" y="90.2102323275"/>
      <point x="79" y="108" type="curve"/>
      <point x="56" y="85"/>
      <point x="39" y="55"/>
    </contour>
    <component base="bn_ba"/>
    <contour>
      <point x="387" y="0" type="move" name="blwm"/>
    </contour>
    <contour>
      <point x="250" y="0" type="move" name="haln"/>
    </contour>
    <contour>
      <point x="429" y="690" type="move" name="chandrabindu"/>
    </contour>
    <contour>
      <point x="429" y="690" type="move" name="reph"/>
    </contour>
  </outline>
</glyph>
<glyph name="bn_currency16" format="1">
  <advance width="500"/>
  <unicode hex="09F9"/>
  <outline>
    <contour>
      <point x="382" y="159"/>
      <point x="449" y="296"/>
      <point x="449" y="410" type="curve" smooth="yes"/>
      <point x="449" y="533"/>
      <point x="385" y="597"/>
      <point x="269" y="597" type="curve" smooth="yes"/>
      <point x="118" y="597"/>
      <point x="51" y="459"/>
      <point x="51" y="346" type="curve" smooth="yes"/>
      <point x="51" y="223"/>
      <point x="116" y="159"/>
      <point x="231" y="159" type="curve" smooth="yes"/>
    </contour>
    <contour>
      <point x="181" y="279"/>
      <point x="147" y="307"/>
      <point x="147" y="362" type="curve" smooth="yes"/>
      <point x="147" y="429"/>
      <point x="197" y="477"/>
      <point x="266" y="477" type="curve" smooth="yes"/>
      <point x="319" y="477"/>
      <point x="353" y="448"/>
      <point x="353" y="393" type="curve" smooth="yes"/>
      <point x="353" y="326"/>
      <point x="303" y="279"/>
      <point x="235" y="279" type="curve" smooth="yes"/>
    </contour>
  </outline>
</glyph>
<glyph name="dagger" format="1">
  <advance width="514"/>
  <unicode hex="2020"/>
  <outline>
    <contour>
      <point x="321" y="727" type="curve"/>
      <point x="303" y="732"/>
      <point x="277" y="734"/>
      <point x="258" y="734" type="curve" smooth="yes"/>
      <point x="230" y="734"/>
      <point x="195" y="725"/>
      <point x="181" y="716" type="curve"/>
      <point x="190" y="646"/>
      <point x="199" y="584"/>
      <point x="212" y="505" type="curve"/>
      <point x="236" y="505"/>
      <point x="289" y="511"/>
      <point x="302" y="515" type="curve"/>
      <point x="314" y="598"/>
      <point x="319" y="669"/>
    </contour>
    <contour>
      <point x="39" y="570" type="curve"/>
      <point x="34" y="552"/>
      <point x="31" y="531"/>
      <point x="31" y="512" type="curve" smooth="yes"/>
      <point x="30" y="484"/>
      <point x="38" y="449"/>
      <point x="46" y="436" type="curve"/>
      <point x="116" y="451"/>
      <point x="167" y="459"/>
      <point x="257" y="457" type="curve"/>
      <point x="259" y="480"/>
      <point x="254" y="529"/>
      <point x="251" y="543" type="curve"/>
      <point x="176" y="556"/>
      <point x="91" y="570"/>
    </contour>
    <contour>
      <point x="469" y="430" type="curve"/>
      <point x="474" y="448"/>
      <point x="477" y="473"/>
      <point x="477" y="492" type="curve" smooth="yes"/>
      <point x="478" y="520"/>
      <point x="471" y="551"/>
      <point x="462" y="564" type="curve"/>
      <point x="393" y="558"/>
      <point x="329" y="552"/>
      <point x="251" y="543" type="curve"/>
      <point x="249" y="518"/>
      <point x="255" y="471"/>
      <point x="257" y="457" type="curve"/>
      <point x="340" y="443"/>
      <point x="411" y="434"/>
    </contour>
    <contour>
      <point x="220" y="-218" type="curve"/>
      <point x="234" y="-221"/>
      <point x="287" y="-220"/>
      <point x="311" y="-218" type="curve"/>
      <point x="309" y="118"/>
      <point x="331" y="264"/>
      <point x="302" y="515" type="curve"/>
      <point x="279" y="515"/>
      <point x="225" y="509"/>
      <point x="212" y="505" type="curve"/>
      <point x="193" y="318"/>
      <point x="200" y="123"/>
    </contour>
  </outline>
</glyph>
<glyph name="radical" format="1">
  <advance width="577"/>
  <unicode hex="221A"/>
  <outline>
    <contour>
      <point x="358" y="-76" type="curve"/>
      <point x="471" y="155"/>
      <point x="568" y="458"/>
      <point x="607" y="730" type="curve"/>
      <point x="552" y="752"/>
      <point x="488" y="765"/>
      <point x="427" y="769" type="curve"/>
      <point x="398" y="499"/>
      <point x="359" y="301"/>
      <point x="297" y="120" type="curve"/>
      <point x="259" y="239"/>
      <point x="238" y="311"/>
      <point x="222" y="419" type="curve"/>
      <point x="142" y="416"/>
      <point x="90" y="402"/>
      <point x="30" y="377" type="curve"/>
      <point x="61" y="231"/>
      <point x="109" y="99"/>
      <point x="206" y="-98" type="curve"/>
      <point x="270" y="-98"/>
      <point x="318" y="-92"/>
    </contour>
  </outline>
</glyph>
<glyph name="lozenge" format="1">
  <advance width="518"/>
  <unicode hex="25CA"/>
  <outline>
    <contour>
      <point x="291" y="-82" type="line"/>
      <point x="364" y="10"/>
      <point x="449" y="156"/>
      <point x="513" y="325" type="curve"/>
      <point x="467" y="449"/>
      <point x="364" y="639"/>
      <point x="291" y="731" type="curve"/>
      <point x="227" y="731" type="line"/>
      <point x="141.117647059" y="622.764705882"/>
      <point x="87" y="532"/>
      <point x="5" y="324" type="curve"/>
      <point x="51" y="200"/>
      <point x="154" y="10"/>
      <point x="227" y="-82" type="curve"/>
    </contour>
    <contour>
      <point x="259" y="85" type="curve"/>
      <point x="212" y="159"/>
      <point x="169" y="240"/>
      <point x="131" y="325" type="curve"/>
      <point x="169" y="410"/>
      <point x="212" y="490"/>
      <point x="259" y="564" type="curve"/>
      <point x="306" y="490"/>
      <point x="349" y="410"/>
      <point x="387" y="325" type="curve"/>
      <point x="349" y="240"/>
      <point x="306" y="159"/>
    </contour>
  </outline>
</glyph>
<glyph name="caron.alt" format="1">
  <advance width="260"/>
  <unicode hex="E189"/>
  <outline>
    <contour>
      <point x="166" y="425" type="curve"/>
      <point x="201" y="521"/>
      <point x="216" y="582"/>
      <point x="221" y="665" type="curve"/>
      <point x="175" y="679"/>
      <point x="114" y="684"/>
      <point x="55" y="680" type="curve"/>
      <point x="56" y="599"/>
      <point x="53" y="546"/>
      <point x="39" y="444" type="curve"/>
      <point x="76" y="434"/>
      <point x="118" y="428"/>
    </contour>
  </outline>
</glyph>
<glyph name="fi" format="1">
  <advance width="703"/>
  <unicode hex="FB01"/>
  <outline>
    <contour>
      <point x="81" y="391" type="curve" smooth="yes"/>
      <point x="81" y="618"/>
      <point x="170" y="727"/>
      <point x="305" y="727" type="curve" smooth="yes"/>
      <point x="417" y="727"/>
      <point x="464" y="656"/>
      <point x="464" y="584" type="curve" smooth="yes"/>
      <point x="464" y="567"/>
      <point x="461" y="549"/>
      <point x="455" y="534" type="curve"/>
      <point x="404" y="534"/>
      <point x="354" y="544"/>
      <point x="313" y="555" type="curve"/>
      <point x="317" y="566"/>
      <point x="318" y="577"/>
      <point x="318" y="586" type="curve" smooth="yes"/>
      <point x="318" y="610"/>
      <point x="312" y="616"/>
      <point x="302" y="616" type="curve" smooth="yes"/>
      <point x="272" y="616"/>
      <point x="264" y="544"/>
      <point x="264" y="449" type="curve" smooth="yes"/>
      <point x="264" y="282"/>
      <point x="317" y="52"/>
      <point x="329" y="11" type="curve"/>
      <point x="277" y="-8"/>
      <point x="190" y="-21"/>
      <point x="120" y="-21" type="curve"/>
      <point x="107" y="38"/>
      <point x="81" y="236"/>
    </contour>
    <contour>
      <point x="408" y="482" type="curve"/>
      <point x="408" y="447"/>
      <point x="402" y="396"/>
      <point x="396" y="368" type="curve"/>
      <point x="376" y="361"/>
      <point x="347" y="359"/>
      <point x="305" y="359" type="curve" smooth="yes"/>
      <point x="165" y="359"/>
      <point x="49" y="384"/>
      <point x="10" y="400" type="curve"/>
      <point x="10" y="423"/>
      <point x="21" y="480"/>
      <point x="31" y="490" type="curve"/>
      <point x="75" y="484"/>
      <point x="196" y="476"/>
      <point x="290" y="476" type="curve" smooth="yes"/>
      <point x="339" y="476"/>
      <point x="381" y="477"/>
    </contour>
    <contour>
      <point x="671" y="639"/>
      <point x="688" y="703"/>
      <point x="700" y="732" type="curve"/>
      <point x="680" y="742"/>
      <point x="645" y="751"/>
      <point x="600" y="751" type="curve" smooth="yes"/>
      <point x="554" y="751"/>
      <point x="516" y="743"/>
      <point x="485" y="726" type="curve"/>
      <point x="480" y="710"/>
      <point x="479" y="692"/>
      <point x="479" y="676" type="curve" smooth="yes"/>
      <point x="479" y="644"/>
      <point x="485" y="614"/>
      <point x="493" y="589" type="curve"/>
      <point x="571" y="588"/>
      <point x="623" y="592"/>
      <point x="664" y="599" type="curve"/>
    </contour>
    <contour>
      <point x="653" y="529"/>
      <point x="627" y="531"/>
      <point x="602" y="531" type="curve" smooth="yes"/>
      <point x="549" y="531"/>
      <point x="499" y="521"/>
      <point x="461" y="499" type="curve"/>
      <point x="433.330097087" y="347.737864078"/>
      <point x="436.712643678" y="93.0114942529"/>
      <point x="452" y="-14" type="curve"/>
      <point x="464" y="-17"/>
      <point x="479" y="-18"/>
      <point x="497" y="-18" type="curve" smooth="yes"/>
      <point x="537" y="-18"/>
      <point x="587" y="-11"/>
      <point x="618" y="6" type="curve"/>
      <point x="626" y="246"/>
      <point x="652" y="443"/>
      <point x="679" y="524" type="curve"/>
    </contour>
  </outline>
</glyph>
<glyph name="bn_aakaar.b" format="1">
  <advance width="288"/>
  <outline>
    <contour>
      <point x="217" y="89"/>
      <point x="227" y="285"/>
      <point x="227" y="488" type="curve"/>
      <point x="111" y="477" type="line"/>
      <point x="82" y="473" type="line"/>
      <point x="79" y="247"/>
      <point x="64" y="87"/>
      <point x="34" y="-55" type="curve"/>
      <point x="71" y="-65"/>
      <point x="147" y="-72"/>
      <point x="206" y="-72" type="curve"/>
    </contour>
    <contour>
      <point x="185" y="454" type="line"/>
      <point x="185" y="606"/>
      <point x="120" y="646"/>
      <point x="56" y="645" type="curve" smooth="yes"/>
      <point x="38" y="645"/>
      <point x="18" y="643"/>
      <point x="0" y="639" type="curve"/>
      <point x="-7" y="622"/>
      <point x="-10" y="600"/>
      <point x="-10" y="577" type="curve" smooth="yes"/>
      <point x="-10" y="550"/>
      <point x="-6" y="523"/>
      <point x="0" y="504" type="curve"/>
      <point x="14" y="507"/>
      <point x="26" y="508"/>
      <point x="35" y="508" type="curve" smooth="yes"/>
      <point x="75" y="508"/>
      <point x="80" y="470"/>
      <point x="80" y="378" type="curve"/>
    </contour>
    <contour>
      <point x="219" y="468"/>
      <point x="244" y="496"/>
      <point x="288" y="504" type="curve"/>
      <point x="300" y="542"/>
      <point x="305" y="614"/>
      <point x="288" y="639" type="curve"/>
      <point x="205" y="624"/>
      <point x="125" y="580"/>
      <point x="89" y="500" type="curve" smooth="yes"/>
      <point x="206" y="434" type="line"/>
    </contour>
  </outline>
</glyph>
<glyph name="bn_b_ba" format="1">
  <advance width="955"/>
  <outline>
    <contour>
      <point x="773" y="29" type="line"/>
      <point x="744" y="124"/>
      <point x="661" y="200"/>
      <point x="579" y="248" type="curve"/>
      <point x="566" y="191" type="line"/>
      <point x="634" y="259"/>
      <point x="734" y="317"/>
      <point x="816" y="343" type="curve"/>
      <point x="784" y="516" type="line"/>
      <point x="632" y="462"/>
      <point x="527" y="396"/>
      <point x="449" y="315" type="curve"/>
      <point x="453" y="250"/>
      <point x="474" y="196"/>
      <point x="514" y="135" type="curve"/>
      <point x="606" y="116"/>
      <point x="687" y="65"/>
      <point x="747" y="-37" type="curve"/>
    </contour>
    <contour>
      <point x="799" y="-37"/>
      <point x="869" y="-28"/>
      <point x="914" y="-4" type="curve"/>
      <point x="894" y="68"/>
      <point x="886" y="170"/>
      <point x="886" y="303" type="curve" smooth="yes"/>
      <point x="886" y="379"/>
      <point x="891" y="455"/>
      <point x="897" y="530" type="curve"/>
      <point x="789" y="560" type="line"/>
      <point x="752" y="392"/>
      <point x="740" y="282"/>
      <point x="740" y="107" type="curve" smooth="yes"/>
      <point x="740" y="50"/>
      <point x="741" y="-4"/>
      <point x="747" y="-37" type="curve"/>
    </contour>
    <contour>
      <point x="343" y="29" type="line"/>
      <point x="314" y="124"/>
      <point x="231" y="200"/>
      <point x="149" y="248" type="curve"/>
      <point x="136" y="191" type="line"/>
      <point x="204" y="259"/>
      <point x="304" y="317"/>
      <point x="386" y="343" type="curve"/>
      <point x="354" y="516" type="line"/>
      <point x="202" y="462"/>
      <point x="97" y="396"/>
      <point x="19" y="315" type="curve"/>
      <point x="23" y="250"/>
      <point x="44" y="196"/>
      <point x="84" y="135" type="curve"/>
      <point x="176" y="116"/>
      <point x="257" y="65"/>
      <point x="317" y="-37" type="curve"/>
    </contour>
    <contour>
      <point x="369" y="-37"/>
      <point x="439" y="-28"/>
      <point x="484" y="-4" type="curve"/>
      <point x="464" y="68"/>
      <point x="456" y="170"/>
      <point x="456" y="303" type="curve" smooth="yes"/>
      <point x="456.0" y="385.696035242"/>
      <point x="461" y="468"/>
      <point x="468" y="550" type="curve"/>
      <point x="359" y="560" type="line"/>
      <point x="322" y="392"/>
      <point x="310" y="282"/>
      <point x="310" y="107" type="curve" smooth="yes"/>
      <point x="310" y="50"/>
      <point x="311" y="-4"/>
      <point x="317" y="-37" type="curve"/>
    </contour>
    <contour>
      <point x="109" y="522"/>
      <point x="311" y="541"/>
      <point x="520" y="541" type="curve" smooth="yes"/>
      <point x="694.852941176" y="541.0"/>
      <point x="863.471778278" y="519.964224719"/>
      <point x="955" y="504" type="curve"/>
      <point x="961" y="520"/>
      <point x="966" y="549"/>
      <point x="966" y="578" type="curve" smooth="yes"/>
      <point x="966" y="604"/>
      <point x="962" y="629"/>
      <point x="955" y="639" type="curve"/>
      <point x="864.584874984" y="657.083025003"/>
      <point x="695.919117647" y="680.0"/>
      <point x="520" y="680" type="curve" smooth="yes"/>
      <point x="310" y="680"/>
      <point x="107" y="661"/>
      <point x="0" y="639" type="curve"/>
      <point x="-7" y="629"/>
      <point x="-11" y="604"/>
      <point x="-11" y="578" type="curve" smooth="yes"/>
      <point x="-11" y="549"/>
      <point x="-6" y="520"/>
      <point x="0" y="504" type="curve"/>
    </contour>
    <contour>
      <point x="822" y="-4" type="move" name="blwm"/>
    </contour>
    <contour>
      <point x="621" y="-4" type="move" name="haln"/>
    </contour>
    <contour>
      <point x="772" y="690" type="move" name="reph"/>
    </contour>
    <contour>
      <point x="772" y="690" type="move" name="chandrabindu"/>
    </contour>
  </outline>
</glyph>
<glyph name="bn_b_bha" format="1">
  <advance width="650"/>
  <outline>
    <contour>
      <point x="610" y="-64" type="curve" smooth="yes"/>
      <point x="610" y="-22"/>
      <point x="599" y="20"/>
      <point x="582" y="56" type="curve"/>
      <point x="553" y="80"/>
      <point x="514" y="106"/>
      <point x="483" y="123" type="curve"/>
      <point x="425" y="71"/>
      <point x="369" y="27"/>
      <point x="334" y="27" type="curve" smooth="yes"/>
      <point x="320" y="27"/>
      <point x="313" y="33"/>
      <point x="313" y="41" type="curve" smooth="yes"/>
      <point x="313" y="66"/>
      <point x="352" y="100"/>
      <point x="388" y="105" type="curve"/>
      <point x="371" y="135"/>
      <point x="327" y="164"/>
      <point x="289" y="167" type="curve"/>
      <point x="250" y="154"/>
      <point x="208" y="119"/>
      <point x="208" y="64" type="curve" smooth="yes"/>
      <point x="208" y="-17"/>
      <point x="290" y="-82"/>
      <point x="384" y="-82" type="curve" smooth="yes"/>
      <point x="447" y="-82"/>
      <point x="503" y="-48"/>
      <point x="548" y="13" type="curve"/>
      <point x="494" y="53" type="line"/>
      <point x="500" y="29"/>
      <point x="505" y="0"/>
      <point x="505" y="-23" type="curve" smooth="yes"/>
      <point x="505" y="-84"/>
      <point x="471" y="-124"/>
      <point x="391" y="-124" type="curve" smooth="yes"/>
      <point x="267" y="-124"/>
      <point x="157" y="18"/>
      <point x="131" y="185" type="curve"/>
      <point x="95" y="175"/>
      <point x="61" y="163"/>
      <point x="28" y="148" type="curve"/>
      <point x="42" y="-20"/>
      <point x="166" y="-260"/>
      <point x="385" y="-260" type="curve" smooth="yes"/>
      <point x="529" y="-260"/>
      <point x="610" y="-179"/>
    </contour>
    <contour>
      <point x="323" y="531" type="curve" smooth="yes"/>
      <point x="441" y="531"/>
      <point x="571" y="518"/>
      <point x="650" y="504" type="curve"/>
      <point x="656" y="521"/>
      <point x="661" y="551"/>
      <point x="661" y="580" type="curve" smooth="yes"/>
      <point x="661" y="603"/>
      <point x="658" y="626"/>
      <point x="650" y="639" type="curve"/>
      <point x="572" y="656"/>
      <point x="443" y="670"/>
      <point x="323" y="670" type="curve" smooth="yes"/>
      <point x="203" y="670"/>
      <point x="77" y="656"/>
      <point x="0" y="639" type="curve"/>
      <point x="-7" y="626"/>
      <point x="-11" y="605"/>
      <point x="-11" y="581" type="curve" smooth="yes"/>
      <point x="-11" y="552"/>
      <point x="-6" y="521"/>
      <point x="0" y="504" type="curve"/>
      <point x="79" y="518"/>
      <point x="205" y="531"/>
    </contour>
    <contour>
      <point x="478" y="172" type="line"/>
      <point x="410" y="237"/>
      <point x="333" y="290"/>
      <point x="245" y="329" type="curve"/>
      <point x="202" y="252" type="line"/>
      <point x="280" y="312"/>
      <point x="395.572667135" y="361.957652044"/>
      <point x="510" y="409" type="curve"/>
      <point x="518" y="557" type="line"/>
      <point x="359.850969123" y="500.689360218"/>
      <point x="212" y="433"/>
      <point x="116" y="362" type="curve"/>
      <point x="119" y="314"/>
      <point x="134" y="277"/>
      <point x="164" y="232" type="curve"/>
      <point x="286.386224141" y="227.851314436"/>
      <point x="392.431406542" y="165.563453983"/>
      <point x="444" y="77" type="curve"/>
    </contour>
    <contour>
      <point x="594" y="15" type="curve"/>
      <point x="565" y="97"/>
      <point x="570.0" y="226.82300885"/>
      <point x="570" y="367" type="curve" smooth="yes"/>
      <point x="570" y="434"/>
      <point x="573" y="488"/>
      <point x="579" y="544" type="curve"/>
      <point x="459" y="560" type="line"/>
      <point x="439" y="439"/>
      <point x="432" y="359"/>
      <point x="432" y="233" type="curve" smooth="yes"/>
      <point x="432" y="154"/>
      <point x="436" y="78"/>
      <point x="440" y="12" type="curve"/>
      <point x="488.240963855" y="12.0"/>
      <point x="555" y="4"/>
    </contour>
    <contour>
      <point x="431" y="-240" type="move" name="blwm"/>
    </contour>
    <contour>
      <point x="235" y="-240" type="move" name="haln"/>
    </contour>
    <contour>
      <point x="448" y="690" type="move" name="reph"/>
    </contour>
    <contour>
      <point x="448" y="690" type="move" name="chandrabindu"/>
    </contour>
  </outline>
</glyph>
<glyph name="bn_b_da" format="1">
  <advance width="781"/>
  <outline>
    <contour>
      <point x="93" y="521"/>
      <point x="226" y="534"/>
      <point x="384" y="534" type="curve" smooth="yes"/>
      <point x="539" y="534"/>
      <point x="690" y="521"/>
      <point x="781" y="504" type="curve"/>
      <point x="786" y="521"/>
      <point x="791" y="547"/>
      <point x="791" y="576" type="curve" smooth="yes"/>
      <point x="791" y="602"/>
      <point x="787" y="624"/>
      <point x="781" y="639" type="curve"/>
      <point x="700" y="660"/>
      <point x="546" y="673"/>
      <point x="388" y="673" type="curve" smooth="yes"/>
      <point x="230" y="673"/>
      <point x="90" y="660"/>
      <point x="0" y="639" type="curve"/>
      <point x="-7" y="629"/>
      <point x="-11" y="604"/>
      <point x="-11" y="578" type="curve" smooth="yes"/>
      <point x="-11" y="549"/>
      <point x="-6" y="520"/>
      <point x="0" y="504" type="curve"/>
    </contour>
    <contour>
      <point x="603" y="-47"/>
      <point x="672" y="-33"/>
      <point x="699" y="-17" type="curve"/>
      <point x="689" y="38"/>
      <point x="684" y="89"/>
      <point x="684" y="137" type="curve" smooth="yes"/>
      <point x="684" y="221"/>
      <point x="698" y="296"/>
      <point x="719" y="368" type="curve"/>
      <point x="681" y="419"/>
      <point x="650" y="457"/>
      <point x="601" y="476" type="curve"/>
      <point x="502" y="417"/>
      <point x="410" y="320"/>
      <point x="317" y="166" type="curve"/>
      <point x="455" y="236" type="line"/>
      <point x="463" y="324"/>
      <point x="470" y="413"/>
      <point x="470" y="492" type="curve" smooth="yes"/>
      <point x="470" y="513"/>
      <point x="469" y="533"/>
      <point x="468" y="552" type="curve"/>
      <point x="351" y="538" type="line"/>
      <point x="348" y="420"/>
      <point x="323" y="280"/>
      <point x="284" y="158" type="curve"/>
      <point x="317" y="134"/>
      <point x="367" y="99"/>
      <point x="408" y="94" type="curve"/>
      <point x="463" y="186"/>
      <point x="560" y="289"/>
      <point x="656" y="347" type="curve"/>
      <point x="602" y="349" type="line"/>
      <point x="573" y="273"/>
      <point x="557" y="178"/>
      <point x="557" y="87" type="curve" smooth="yes"/>
      <point x="557" y="41"/>
      <point x="562" y="-5"/>
      <point x="570" y="-47" type="curve"/>
    </contour>
    <contour>
      <point x="328" y="210" type="line"/>
      <point x="311" y="277"/>
      <point x="260" y="333"/>
      <point x="203" y="365" type="curve"/>
      <point x="160" y="288" type="line"/>
      <point x="222" y="336"/>
      <point x="310" y="382"/>
      <point x="400" y="419" type="curve"/>
      <point x="408" y="567" type="line"/>
      <point x="276" y="520"/>
      <point x="155" y="458"/>
      <point x="74" y="398" type="curve"/>
      <point x="77" y="350"/>
      <point x="92" y="313"/>
      <point x="122" y="268" type="curve"/>
      <point x="211" y="265"/>
      <point x="275" y="229"/>
      <point x="284" y="158" type="curve"/>
    </contour>
    <contour>
      <point x="607" y="-22" type="move" name="blwm"/>
    </contour>
    <contour>
      <point x="438" y="-22" type="move" name="haln"/>
    </contour>
    <contour>
      <point x="422" y="690" type="move" name="reph"/>
    </contour>
    <contour>
      <point x="422" y="690" type="move" name="chandrabindu"/>
    </contour>
  </outline>
</glyph>
<glyph name="bn_b_la" format="1">
  <advance width="525"/>
  <outline>
    <contour>
      <point x="356" y="18" type="line"/>
      <point x="321.861730251" y="128.447343306"/>
      <point x="242.077599508" y="207.236431743"/>
      <point x="150" y="260" type="curve"/>
      <point x="136" y="206" type="line"/>
      <point x="196" y="269"/>
      <point x="284" y="322"/>
      <point x="358" y="346" type="curve"/>
      <point x="330" y="516" type="line"/>
      <point x="188" y="466"/>
      <point x="90" y="405"/>
      <point x="18" y="331" type="curve"/>
      <point x="22" y="267"/>
      <point x="43" y="211"/>
      <point x="84" y="150" type="curve"/>
      <point x="174.142828892" y="129.036551421"/>
      <point x="291" y="78"/>
      <point x="312" y="-68" type="curve"/>
    </contour>
    <contour>
      <point x="362" y="-199"/>
      <point x="432" y="-193"/>
      <point x="476" y="-177" type="curve"/>
      <point x="447" y="-63"/>
      <point x="440" y="106"/>
      <point x="440" y="292" type="curve" smooth="yes"/>
      <point x="440" y="385"/>
      <point x="443" y="460"/>
      <point x="449" y="538" type="curve"/>
      <point x="329" y="560" type="line"/>
      <point x="309" y="393"/>
      <point x="302" y="282"/>
      <point x="302" y="107" type="curve" smooth="yes"/>
      <point x="302" y="-3"/>
      <point x="306" y="-108"/>
      <point x="310" y="-199" type="curve"/>
    </contour>
    <contour>
      <point x="77" y="518"/>
      <point x="176" y="531"/>
      <point x="278" y="531" type="curve" smooth="yes"/>
      <point x="356" y="531"/>
      <point x="462" y="518"/>
      <point x="525" y="504" type="curve"/>
      <point x="531" y="521"/>
      <point x="536" y="549"/>
      <point x="536" y="577" type="curve" smooth="yes"/>
      <point x="536" y="601"/>
      <point x="532" y="624"/>
      <point x="525" y="639" type="curve"/>
      <point x="469" y="656"/>
      <point x="362" y="670"/>
      <point x="282" y="670" type="curve" smooth="yes"/>
      <point x="179" y="670"/>
      <point x="76" y="656"/>
      <point x="0" y="639" type="curve"/>
      <point x="-8" y="623"/>
      <point x="-11" y="602"/>
      <point x="-11" y="579" type="curve" smooth="yes"/>
      <point x="-11" y="551"/>
      <point x="-6" y="523"/>
      <point x="0" y="504" type="curve"/>
    </contour>
    <contour>
      <point x="113" y="-233"/>
      <point x="128" y="-178"/>
      <point x="128" y="-135" type="curve"/>
      <point x="114" y="-140"/>
      <point x="96" y="-143"/>
      <point x="78" y="-143" type="curve" smooth="yes"/>
      <point x="58" y="-143"/>
      <point x="33" y="-131"/>
      <point x="33" y="-113" type="curve" smooth="yes"/>
      <point x="33" y="-100"/>
      <point x="48" y="-93"/>
      <point x="72" y="-93" type="curve" smooth="yes"/>
      <point x="105.824175824" y="-93.0"/>
      <point x="126.158752068" y="-116.448440085"/>
      <point x="153" y="-150" type="curve"/>
      <point x="183" y="-98" type="line"/>
      <point x="159.137401894" y="-14.4809066299"/>
      <point x="118.511811024" y="45.0"/>
      <point x="66" y="45" type="curve" smooth="yes"/>
      <point x="-1" y="45"/>
      <point x="-49" y="-18"/>
      <point x="-49" y="-103" type="curve" smooth="yes"/>
      <point x="-49" y="-202"/>
      <point x="9" y="-257"/>
      <point x="90" y="-265" type="curve"/>
    </contour>
    <contour>
      <point x="206" y="-167"/>
      <point x="230" y="-159"/>
      <point x="249" y="-151" type="curve"/>
      <point x="173" y="-30" type="line"/>
      <point x="105" y="-85" type="line"/>
      <point x="171" y="-175" type="line"/>
    </contour>
    <contour>
      <point x="317" y="-56" type="line"/>
      <point x="294.020107499" y="8.68414185341"/>
      <point x="262.425373134" y="47.0"/>
      <point x="214" y="47" type="curve" smooth="yes"/>
      <point x="174" y="47"/>
      <point x="147" y="3"/>
      <point x="142" y="-64" type="curve"/>
      <point x="180" y="-136" type="line"/>
      <point x="244" y="-143" type="line"/>
      <point x="234" y="-126"/>
      <point x="226" y="-113"/>
      <point x="226" y="-98" type="curve" smooth="yes"/>
      <point x="226" y="-87"/>
      <point x="230" y="-80"/>
      <point x="242" y="-80" type="curve" smooth="yes"/>
      <point x="265.181818182" y="-80.0"/>
      <point x="302.021404904" y="-130.184617299"/>
      <point x="310" y="-199" type="curve"/>
    </contour>
    <contour>
      <point x="341" y="690" type="move" name="reph"/>
    </contour>
    <contour>
      <point x="341" y="690" type="move" name="chandrabindu"/>
    </contour>
    <contour>
      <point x="360" y="-211" type="move" name="blwm"/>
    </contour>
    <contour>
      <point x="222" y="-211" type="move" name="haln"/>
    </contour>
  </outline>
</glyph>
<glyph name="bn_b_ra" format="1">
  <advance width="525"/>
  <outline>
    <contour>
      <point x="356" y="18" type="line"/>
      <point x="321.861730251" y="128.447343306"/>
      <point x="242.077599508" y="207.236431743"/>
      <point x="150" y="260" type="curve"/>
      <point x="136" y="206" type="line"/>
      <point x="196" y="269"/>
      <point x="284" y="322"/>
      <point x="358" y="346" type="curve"/>
      <point x="330" y="516" type="line"/>
      <point x="188" y="466"/>
      <point x="90" y="405"/>
      <point x="18" y="331" type="curve"/>
      <point x="22" y="267"/>
      <point x="43" y="211"/>
      <point x="84" y="150" type="curve"/>
      <point x="173.356312369" y="129.21946224"/>
      <point x="254.503316531" y="73.9672257034"/>
      <point x="312" y="-38" type="curve"/>
    </contour>
    <contour>
      <point x="362" y="-199"/>
      <point x="432" y="-193"/>
      <point x="476" y="-177" type="curve"/>
      <point x="447" y="-63"/>
      <point x="440" y="106"/>
      <point x="440" y="292" type="curve" smooth="yes"/>
      <point x="440" y="385"/>
      <point x="443" y="460"/>
      <point x="449" y="538" type="curve"/>
      <point x="329" y="560" type="line"/>
      <point x="309" y="393"/>
      <point x="302" y="282"/>
      <point x="302" y="107" type="curve" smooth="yes"/>
      <point x="302" y="-3"/>
      <point x="306" y="-108"/>
      <point x="310" y="-199" type="curve"/>
    </contour>
    <contour>
      <point x="350" y="-168" type="line"/>
      <point x="297" y="-72"/>
      <point x="257" y="-16"/>
      <point x="188" y="-16" type="curve" smooth="yes"/>
      <point x="171" y="-16"/>
      <point x="140" y="-18"/>
      <point x="126" y="-18" type="curve" smooth="yes"/>
      <point x="100" y="-18"/>
      <point x="81" y="-4"/>
      <point x="81" y="17" type="curve" smooth="yes"/>
      <point x="81" y="33"/>
      <point x="86" y="51"/>
      <point x="91" y="67" type="curve"/>
      <point x="66" y="77"/>
      <point x="29" y="84"/>
      <point x="-8" y="84" type="curve"/>
      <point x="-25" y="50"/>
      <point x="-37" y="9"/>
      <point x="-37" y="-35" type="curve" smooth="yes"/>
      <point x="-37" y="-110"/>
      <point x="26" y="-159"/>
      <point x="126" y="-159" type="curve" smooth="yes"/>
      <point x="158" y="-159"/>
      <point x="186" y="-157"/>
      <point x="215" y="-157" type="curve" smooth="yes"/>
      <point x="269" y="-157"/>
      <point x="287" y="-177"/>
      <point x="310" y="-199" type="curve"/>
    </contour>
    <contour>
      <point x="77" y="518"/>
      <point x="176" y="531"/>
      <point x="278" y="531" type="curve" smooth="yes"/>
      <point x="356" y="531"/>
      <point x="462" y="518"/>
      <point x="525" y="504" type="curve"/>
      <point x="531" y="521"/>
      <point x="536" y="549"/>
      <point x="536" y="577" type="curve" smooth="yes"/>
      <point x="536" y="601"/>
      <point x="532" y="624"/>
      <point x="525" y="639" type="curve"/>
      <point x="469" y="656"/>
      <point x="362" y="670"/>
      <point x="282" y="670" type="curve" smooth="yes"/>
      <point x="179" y="670"/>
      <point x="76" y="656"/>
      <point x="0" y="639" type="curve"/>
      <point x="-8" y="623"/>
      <point x="-11" y="602"/>
      <point x="-11" y="579" type="curve" smooth="yes"/>
      <point x="-11" y="551"/>
      <point x="-6" y="523"/>
      <point x="0" y="504" type="curve"/>
    </contour>
    <contour>
      <point x="361" y="-211" type="move" name="blwm"/>
    </contour>
    <contour>
      <point x="187" y="-211" type="move" name="haln"/>
    </contour>
    <contour>
      <point x="352" y="690" type="move" name="reph"/>
    </contour>
    <contour>
      <point x="352" y="690" type="move" name="chandrabindu"/>
    </contour>
  </outline>
</glyph>
<glyph name="bn_b_ra_ukaar" format="1">
  <advance width="694"/>
  <outline>
    <contour>
      <point x="636" y="80"/>
      <point x="679" y="161"/>
      <point x="679" y="279" type="curve" smooth="yes"/>
      <point x="679" y="412"/>
      <point x="619" y="482"/>
      <point x="545" y="482" type="curve" smooth="yes"/>
      <point x="513" y="482"/>
      <point x="491" y="470"/>
      <point x="480" y="457" type="curve"/>
      <point x="479" y="396"/>
      <point x="491" y="331"/>
      <point x="510" y="289" type="curve"/>
      <point x="525" y="314"/>
      <point x="549" y="340"/>
      <point x="564" y="340" type="curve" smooth="yes"/>
      <point x="579" y="340"/>
      <point x="586" y="329"/>
      <point x="586" y="307" type="curve" smooth="yes"/>
      <point x="586" y="276"/>
      <point x="567" y="246"/>
      <point x="536" y="246" type="curve" smooth="yes"/>
      <point x="500" y="246"/>
      <point x="440" y="285"/>
      <point x="440" y="370" type="curve"/>
      <point x="417" y="300" type="line"/>
      <point x="442" y="152"/>
      <point x="491" y="80"/>
      <point x="566" y="80" type="curve" smooth="yes"/>
    </contour>
    <contour>
      <point x="75" y="519"/>
      <point x="216" y="535"/>
      <point x="347" y="535" type="curve" smooth="yes"/>
      <point x="473" y="535"/>
      <point x="623" y="518"/>
      <point x="694" y="504" type="curve"/>
      <point x="699" y="520"/>
      <point x="704" y="551"/>
      <point x="704" y="577" type="curve" smooth="yes"/>
      <point x="704" y="600"/>
      <point x="700" y="625"/>
      <point x="694" y="639" type="curve"/>
      <point x="630" y="656"/>
      <point x="479" y="674"/>
      <point x="351" y="674" type="curve" smooth="yes"/>
      <point x="219" y="674"/>
      <point x="73" y="657"/>
      <point x="0" y="639" type="curve"/>
      <point x="-8" y="625"/>
      <point x="-11" y="598"/>
      <point x="-11" y="577" type="curve" smooth="yes"/>
      <point x="-11" y="551"/>
      <point x="-6" y="521"/>
      <point x="0" y="504" type="curve"/>
    </contour>
    <contour>
      <point x="356" y="18" type="line"/>
      <point x="322" y="128"/>
      <point x="242" y="207"/>
      <point x="150" y="260" type="curve"/>
      <point x="136" y="206" type="line"/>
      <point x="196" y="269"/>
      <point x="284" y="322"/>
      <point x="358" y="346" type="curve"/>
      <point x="330" y="516" type="line"/>
      <point x="188" y="466"/>
      <point x="90" y="405"/>
      <point x="18" y="331" type="curve"/>
      <point x="22" y="267"/>
      <point x="43" y="211"/>
      <point x="84" y="150" type="curve"/>
      <point x="173" y="129"/>
      <point x="255" y="74"/>
      <point x="312" y="-38" type="curve"/>
    </contour>
    <contour>
      <point x="362" y="-199"/>
      <point x="432" y="-193"/>
      <point x="476" y="-177" type="curve"/>
      <point x="447" y="-63"/>
      <point x="440" y="106"/>
      <point x="440" y="292" type="curve" smooth="yes"/>
      <point x="440" y="385"/>
      <point x="443" y="460"/>
      <point x="449" y="538" type="curve"/>
      <point x="329" y="560" type="line"/>
      <point x="309" y="393"/>
      <point x="302" y="282"/>
      <point x="302" y="107" type="curve" smooth="yes"/>
      <point x="302" y="-3"/>
      <point x="306" y="-108"/>
      <point x="310" y="-199" type="curve"/>
    </contour>
    <contour>
      <point x="350" y="-168" type="line"/>
      <point x="297" y="-72"/>
      <point x="257" y="-16"/>
      <point x="188" y="-16" type="curve" smooth="yes"/>
      <point x="171" y="-16"/>
      <point x="140" y="-18"/>
      <point x="126" y="-18" type="curve" smooth="yes"/>
      <point x="100" y="-18"/>
      <point x="81" y="-4"/>
      <point x="81" y="17" type="curve" smooth="yes"/>
      <point x="81" y="33"/>
      <point x="86" y="51"/>
      <point x="91" y="67" type="curve"/>
      <point x="66" y="77"/>
      <point x="29" y="84"/>
      <point x="-8" y="84" type="curve"/>
      <point x="-25" y="50"/>
      <point x="-37" y="9"/>
      <point x="-37" y="-35" type="curve" smooth="yes"/>
      <point x="-37" y="-110"/>
      <point x="26" y="-159"/>
      <point x="126" y="-159" type="curve" smooth="yes"/>
      <point x="158" y="-159"/>
      <point x="186" y="-157"/>
      <point x="215" y="-157" type="curve" smooth="yes"/>
      <point x="269" y="-157"/>
      <point x="287" y="-177"/>
      <point x="310" y="-199" type="curve"/>
    </contour>
    <contour>
      <point x="345" y="690" type="move" name="chandrabindu"/>
    </contour>
    <contour>
      <point x="345" y="690" type="move" name="reph"/>
    </contour>
    <contour>
      <point x="356" y="-213" type="move" name="blwm"/>
    </contour>
    <contour>
      <point x="211" y="-213" type="move" name="haln"/>
    </contour>
  </outline>
</glyph>
<glyph name="bn_ba_phala" format="1">
  <advance width="0"/>
  <outline>
    <contour>
      <point x="-6" y="-280" type="line"/>
      <point x="-28.174095469" y="-227.669134693"/>
      <point x="-116.152847387" y="-189.38514806"/>
      <point x="-190" y="-150" type="curve"/>
      <point x="-207" y="-194" type="line"/>
      <point x="-132" y="-146"/>
      <point x="-46" y="-104"/>
      <point x="60" y="-98" type="curve"/>
      <point x="-14" y="19" type="line"/>
      <point x="-138.935610862" y="-13.5035735575"/>
      <point x="-221.280698991" y="-57.0660587112"/>
      <point x="-304" y="-102" type="curve"/>
      <point x="-304" y="-155"/>
      <point x="-287" y="-197"/>
      <point x="-256" y="-248" type="curve"/>
      <point x="-175.076547097" y="-255.992439793"/>
      <point x="-78.2716189322" y="-278.094451509"/>
      <point x="-38" y="-335" type="curve"/>
    </contour>
    <contour>
      <point x="2" y="-338"/>
      <point x="59" y="-333"/>
      <point x="93" y="-321" type="curve"/>
      <point x="82" y="-285"/>
      <point x="76" y="-241"/>
      <point x="76" y="-183" type="curve" smooth="yes"/>
      <point x="76.0" y="-129.184971098"/>
      <point x="77.9175362479" y="-91.5050904814"/>
      <point x="94" y="7" type="curve"/>
      <point x="-14" y="19" type="line"/>
      <point x="-52" y="-109"/>
      <point x="-41" y="-197"/>
      <point x="-41" y="-293" type="curve" smooth="yes"/>
      <point x="-41" y="-309"/>
      <point x="-40" y="-324"/>
      <point x="-38" y="-335" type="curve"/>
    </contour>
    <contour>
      <point x="0" y="0" type="move" name="_blwm"/>
    </contour>
  </outline>
</glyph>
<glyph name="bn_bh_la" format="1">
  <advance width="581"/>
  <outline>
    <contour>
      <point x="276" y="531" type="curve" smooth="yes"/>
      <point x="384" y="531"/>
      <point x="519" y="517"/>
      <point x="581" y="503" type="curve"/>
      <point x="586" y="522"/>
      <point x="590" y="549"/>
      <point x="590" y="578" type="curve" smooth="yes"/>
      <point x="590" y="599"/>
      <point x="588" y="622"/>
      <point x="582" y="639" type="curve"/>
      <point x="527" y="656"/>
      <point x="390" y="670"/>
      <point x="282" y="670" type="curve" smooth="yes"/>
      <point x="174" y="670"/>
      <point x="69" y="656"/>
      <point x="0" y="639" type="curve"/>
      <point x="-7" y="626"/>
      <point x="-10" y="604"/>
      <point x="-10" y="581" type="curve" smooth="yes"/>
      <point x="-10" y="553"/>
      <point x="-6" y="523"/>
      <point x="0" y="504" type="curve"/>
      <point x="70" y="518"/>
      <point x="171" y="531"/>
    </contour>
    <contour>
      <point x="349" y="-146" type="curve"/>
      <point x="398" y="-146"/>
      <point x="459" y="-140"/>
      <point x="506" y="-125" type="curve"/>
      <point x="521.162835773" y="11.4655219571"/>
      <point x="531.0" y="152.108433735"/>
      <point x="531" y="335" type="curve"/>
      <point x="532" y="366"/>
      <point x="523" y="396"/>
      <point x="502" y="422" type="curve"/>
      <point x="470" y="453"/>
      <point x="425" y="487"/>
      <point x="389" y="507" type="curve"/>
      <point x="325" y="398"/>
      <point x="262" y="334"/>
      <point x="223" y="334" type="curve" smooth="yes"/>
      <point x="209" y="334"/>
      <point x="201" y="342"/>
      <point x="201" y="353" type="curve" smooth="yes"/>
      <point x="201" y="382"/>
      <point x="257" y="417"/>
      <point x="308" y="426" type="curve"/>
      <point x="289" y="466"/>
      <point x="232" y="501"/>
      <point x="187" y="507" type="curve"/>
      <point x="146" y="490"/>
      <point x="103" y="446"/>
      <point x="103" y="377" type="curve" smooth="yes"/>
      <point x="103" y="286"/>
      <point x="179" y="214"/>
      <point x="264" y="214" type="curve" smooth="yes"/>
      <point x="335" y="214"/>
      <point x="397" y="275"/>
      <point x="446" y="384" type="curve"/>
      <point x="378" y="363" type="line"/>
      <point x="396" y="354"/>
      <point x="399" y="335"/>
      <point x="399" y="319" type="curve" smooth="yes"/>
      <point x="399.0" y="215.840336135"/>
      <point x="370.223467516" y="-1.47829262699"/>
    </contour>
    <contour>
      <point x="171" y="-37" type="curve"/>
      <point x="157" y="-42"/>
      <point x="139" y="-45"/>
      <point x="121" y="-45" type="curve" smooth="yes"/>
      <point x="101" y="-45"/>
      <point x="76" y="-33"/>
      <point x="76" y="-15" type="curve" smooth="yes"/>
      <point x="76" y="-2"/>
      <point x="91" y="5"/>
      <point x="115" y="5" type="curve" smooth="yes"/>
      <point x="149" y="5"/>
      <point x="169" y="-18"/>
      <point x="196" y="-52" type="curve"/>
      <point x="226" y="0" type="line"/>
      <point x="202" y="84"/>
      <point x="162" y="143"/>
      <point x="109" y="143" type="curve" smooth="yes"/>
      <point x="42" y="143"/>
      <point x="-6" y="80"/>
      <point x="-6" y="-5" type="curve" smooth="yes"/>
      <point x="-6.0" y="-91.7777777778"/>
      <point x="41" y="-136"/>
      <point x="143" y="-147" type="curve"/>
      <point x="161.643248997" y="-121.061566613"/>
      <point x="171.0" y="-73.3846153846"/>
    </contour>
    <contour>
      <point x="292" y="-53" type="curve"/>
      <point x="216" y="68" type="line"/>
      <point x="148" y="13" type="line"/>
      <point x="214" y="-77" type="line"/>
      <point x="249" y="-69"/>
      <point x="273" y="-61"/>
    </contour>
    <contour>
      <point x="384" y="22" type="line"/>
      <point x="356.433158509" y="99.9062911715"/>
      <point x="316.184466019" y="145.0"/>
      <point x="257" y="145" type="curve" smooth="yes"/>
      <point x="217" y="145"/>
      <point x="190" y="101"/>
      <point x="185" y="34" type="curve"/>
      <point x="223" y="-38" type="line"/>
      <point x="287" y="-45" type="line"/>
      <point x="277" y="-28"/>
      <point x="269" y="-15"/>
      <point x="269" y="0" type="curve" smooth="yes"/>
      <point x="269" y="11"/>
      <point x="273" y="18"/>
      <point x="285" y="18" type="curve" smooth="yes"/>
      <point x="314.0" y="18.0"/>
      <point x="357" y="-43"/>
      <point x="349" y="-146" type="curve"/>
    </contour>
    <contour>
      <point x="404" y="-125" type="move" name="blwm"/>
    </contour>
    <contour>
      <point x="257" y="-110" type="move" name="haln"/>
    </contour>
    <contour>
      <point x="483" y="690" type="move" name="reph"/>
    </contour>
    <contour>
      <point x="481" y="690" type="move" name="chandrabindu"/>
    </contour>
  </outline>
</glyph>
<glyph name="bn_c_ca" format="1">
  <advance width="868"/>
  <outline>
    <contour>
      <point x="343" y="47"/>
      <point x="446" y="187"/>
      <point x="446" y="322" type="curve" smooth="yes"/>
      <point x="446" y="385"/>
      <point x="412" y="417"/>
      <point x="352" y="444" type="curve" smooth="yes"/>
      <point x="294" y="470"/>
      <point x="241" y="502"/>
      <point x="233" y="564" type="curve"/>
      <point x="204" y="485" type="line"/>
      <point x="206" y="432"/>
      <point x="226" y="399"/>
      <point x="257" y="374" type="curve" smooth="yes"/>
      <point x="271" y="363"/>
      <point x="283" y="355"/>
      <point x="283" y="340" type="curve" smooth="yes"/>
      <point x="283" y="269"/>
      <point x="237" y="140"/>
      <point x="192" y="140" type="curve" smooth="yes"/>
      <point x="180" y="140"/>
      <point x="176" y="152"/>
      <point x="176" y="179" type="curve" smooth="yes"/>
      <point x="176" y="282"/>
      <point x="207" y="473"/>
      <point x="247" y="583" type="curve"/>
      <point x="104" y="640" type="line"/>
      <point x="69" y="519"/>
      <point x="44" y="331"/>
      <point x="44" y="224" type="curve" smooth="yes"/>
      <point x="44" y="112"/>
      <point x="123" y="47"/>
      <point x="211" y="47" type="curve" smooth="yes"/>
    </contour>
    <contour>
      <point x="731" y="-37"/>
      <point x="839" y="122"/>
      <point x="839" y="275" type="curve" smooth="yes"/>
      <point x="839" y="347"/>
      <point x="804" y="383"/>
      <point x="740" y="414" type="curve" smooth="yes"/>
      <point x="679" y="443"/>
      <point x="624" y="479"/>
      <point x="615" y="550" type="curve"/>
      <point x="585" y="460" type="line"/>
      <point x="587" y="400"/>
      <point x="608" y="363"/>
      <point x="641" y="334" type="curve" smooth="yes"/>
      <point x="655" y="322"/>
      <point x="668" y="312"/>
      <point x="668" y="295" type="curve" smooth="yes"/>
      <point x="668" y="215"/>
      <point x="619" y="68"/>
      <point x="572" y="68" type="curve" smooth="yes"/>
      <point x="559" y="68"/>
      <point x="555" y="82"/>
      <point x="555" y="112" type="curve" smooth="yes"/>
      <point x="555" y="230"/>
      <point x="588" y="447"/>
      <point x="630" y="572" type="curve"/>
      <point x="479" y="636" type="line"/>
      <point x="443" y="499"/>
      <point x="416" y="285"/>
      <point x="416" y="164" type="curve" smooth="yes"/>
      <point x="416" y="36"/>
      <point x="499" y="-37"/>
      <point x="592" y="-37" type="curve" smooth="yes"/>
    </contour>
    <contour>
      <point x="101" y="521"/>
      <point x="287" y="541"/>
      <point x="480" y="541" type="curve" smooth="yes"/>
      <point x="636.008333333" y="541.0"/>
      <point x="785.769722187" y="517.84073983"/>
      <point x="868" y="504" type="curve"/>
      <point x="874" y="520"/>
      <point x="879" y="549"/>
      <point x="879" y="578" type="curve" smooth="yes"/>
      <point x="879" y="604"/>
      <point x="875" y="629"/>
      <point x="868" y="639" type="curve"/>
      <point x="787.154966176" y="655.332330065"/>
      <point x="637" y="680"/>
      <point x="480" y="680" type="curve" smooth="yes"/>
      <point x="286" y="680"/>
      <point x="99" y="659"/>
      <point x="0" y="639" type="curve"/>
      <point x="-7" y="629"/>
      <point x="-11" y="604"/>
      <point x="-11" y="578" type="curve" smooth="yes"/>
      <point x="-11" y="549"/>
      <point x="-6" y="520"/>
      <point x="0" y="504" type="curve"/>
    </contour>
    <contour>
      <point x="597" y="-14" type="move" name="blwm"/>
    </contour>
    <contour>
      <point x="430" y="-4" type="move" name="haln"/>
    </contour>
    <contour>
      <point x="456" y="690" type="move" name="chandrabindu"/>
    </contour>
    <contour>
      <point x="456" y="690" type="move" name="reph"/>
    </contour>
  </outline>
</glyph>
<glyph name="bn_c_ch_ba" format="1">
  <advance width="929"/>
  <outline>
    <contour>
      <point x="343" y="47"/>
      <point x="446" y="187"/>
      <point x="446" y="322" type="curve" smooth="yes"/>
      <point x="446" y="385"/>
      <point x="412" y="417"/>
      <point x="352" y="444" type="curve" smooth="yes"/>
      <point x="294" y="470"/>
      <point x="241" y="502"/>
      <point x="233" y="564" type="curve"/>
      <point x="204" y="485" type="line"/>
      <point x="206" y="432"/>
      <point x="226" y="399"/>
      <point x="257" y="374" type="curve" smooth="yes"/>
      <point x="271" y="363"/>
      <point x="283" y="355"/>
      <point x="283" y="340" type="curve" smooth="yes"/>
      <point x="283" y="269"/>
      <point x="237" y="140"/>
      <point x="192" y="140" type="curve" smooth="yes"/>
      <point x="180" y="140"/>
      <point x="176" y="152"/>
      <point x="176" y="179" type="curve" smooth="yes"/>
      <point x="176" y="282"/>
      <point x="207" y="473"/>
      <point x="247" y="583" type="curve"/>
      <point x="104" y="640" type="line"/>
      <point x="69" y="519"/>
      <point x="44" y="331"/>
      <point x="44" y="224" type="curve" smooth="yes"/>
      <point x="44" y="112"/>
      <point x="123" y="47"/>
      <point x="211" y="47" type="curve" smooth="yes"/>
    </contour>
    <contour>
      <point x="109" y="522"/>
      <point x="311" y="541"/>
      <point x="520" y="541" type="curve" smooth="yes"/>
      <point x="684" y="541"/>
      <point x="842" y="519"/>
      <point x="928" y="504" type="curve"/>
      <point x="934" y="520"/>
      <point x="939" y="549"/>
      <point x="939" y="578" type="curve" smooth="yes"/>
      <point x="939" y="604"/>
      <point x="935" y="629"/>
      <point x="928" y="639" type="curve"/>
      <point x="843" y="656"/>
      <point x="685" y="680"/>
      <point x="520" y="680" type="curve" smooth="yes"/>
      <point x="310" y="680"/>
      <point x="107" y="661"/>
      <point x="0" y="639" type="curve"/>
      <point x="-7" y="629"/>
      <point x="-11" y="604"/>
      <point x="-11" y="578" type="curve" smooth="yes"/>
      <point x="-11" y="549"/>
      <point x="-6" y="520"/>
      <point x="0" y="504" type="curve"/>
    </contour>
    <contour>
      <point x="871" y="-146"/>
      <point x="901" y="-114"/>
      <point x="924" y="-84" type="curve"/>
      <point x="802.807253228" y="4.87468096613"/>
      <point x="707" y="90"/>
      <point x="600" y="145" type="curve"/>
      <point x="647" y="60" type="line"/>
      <point x="787" y="60"/>
      <point x="891" y="123"/>
      <point x="891" y="249" type="curve" smooth="yes"/>
      <point x="891" y="343"/>
      <point x="836" y="426"/>
      <point x="772" y="478" type="curve"/>
      <point x="674" y="488"/>
      <point x="569" y="518"/>
      <point x="550" y="562" type="curve"/>
      <point x="535" y="497" type="line"/>
      <point x="541" y="459"/>
      <point x="587" y="422"/>
      <point x="650" y="414" type="curve"/>
      <point x="638" y="444" type="line"/>
      <point x="641" y="436"/>
      <point x="642" y="428"/>
      <point x="642" y="419" type="curve" smooth="yes"/>
      <point x="642" y="364"/>
      <point x="602" y="316"/>
      <point x="572" y="316" type="curve" smooth="yes"/>
      <point x="559" y="316"/>
      <point x="556" y="324"/>
      <point x="556" y="344" type="curve" smooth="yes"/>
      <point x="556" y="391"/>
      <point x="566" y="494"/>
      <point x="581" y="553" type="curve"/>
      <point x="432" y="585" type="line"/>
      <point x="421" y="513"/>
      <point x="415" y="406"/>
      <point x="415" y="378" type="curve" smooth="yes"/>
      <point x="415" y="288"/>
      <point x="493" y="235"/>
      <point x="565" y="235" type="curve" smooth="yes"/>
      <point x="686" y="235"/>
      <point x="774" y="335"/>
      <point x="774" y="440" type="curve"/>
      <point x="721" y="383" type="line"/>
      <point x="740" y="365"/>
      <point x="751" y="342"/>
      <point x="751" y="308" type="curve" smooth="yes"/>
      <point x="751" y="240"/>
      <point x="700" y="199"/>
      <point x="613" y="199" type="curve" smooth="yes"/>
      <point x="569" y="199"/>
      <point x="514" y="207"/>
      <point x="456" y="228" type="curve"/>
      <point x="470" y="80" type="line"/>
      <point x="594" y="33"/>
      <point x="710.698759751" y="-58.6056179295"/>
      <point x="838" y="-172" type="curve"/>
    </contour>
    <contour>
      <point x="641" y="-210" type="line"/>
      <point x="616" y="-157"/>
      <point x="517" y="-117"/>
      <point x="434" y="-77" type="curve"/>
      <point x="417" y="-120" type="line"/>
      <point x="490" y="-78"/>
      <point x="597" y="-49"/>
      <point x="684" y="-35" type="curve"/>
      <point x="586" y="67" type="line"/>
      <point x="470" y="40"/>
      <point x="382" y="11"/>
      <point x="315" y="-33" type="curve"/>
      <point x="315" y="-83"/>
      <point x="325" y="-128"/>
      <point x="358" y="-175" type="curve"/>
      <point x="451" y="-183"/>
      <point x="565" y="-203"/>
      <point x="609" y="-259" type="curve"/>
    </contour>
    <contour>
      <point x="655" y="-261"/>
      <point x="718" y="-257"/>
      <point x="760" y="-238" type="curve"/>
      <point x="749" y="-206"/>
      <point x="743" y="-167"/>
      <point x="743" y="-115" type="curve" smooth="yes"/>
      <point x="743.0" y="-82.9554140127"/>
      <point x="750" y="-35"/>
      <point x="757" y="2" type="curve"/>
      <point x="648" y="12" type="line"/>
      <point x="625" y="-61"/>
      <point x="606.0" y="-150.262773723"/>
      <point x="606" y="-222" type="curve" smooth="yes"/>
      <point x="606" y="-236"/>
      <point x="607" y="-249"/>
      <point x="609" y="-259" type="curve"/>
    </contour>
    <contour>
      <point x="663" y="-235" type="move" name="blwm"/>
    </contour>
    <contour>
      <point x="517" y="-229" type="move" name="haln"/>
    </contour>
    <contour>
      <point x="749" y="690" type="move" name="reph"/>
    </contour>
    <contour>
      <point x="749" y="690" type="move" name="chandrabindu"/>
    </contour>
  </outline>
</glyph>
<glyph name="bn_c_cha" format="1">
  <advance width="929"/>
  <outline>
    <contour>
      <point x="343" y="47"/>
      <point x="446" y="187"/>
      <point x="446" y="322" type="curve" smooth="yes"/>
      <point x="446" y="385"/>
      <point x="412" y="417"/>
      <point x="352" y="444" type="curve" smooth="yes"/>
      <point x="294" y="470"/>
      <point x="241" y="502"/>
      <point x="233" y="564" type="curve"/>
      <point x="204" y="485" type="line"/>
      <point x="206" y="432"/>
      <point x="226" y="399"/>
      <point x="257" y="374" type="curve" smooth="yes"/>
      <point x="271" y="363"/>
      <point x="283" y="355"/>
      <point x="283" y="340" type="curve" smooth="yes"/>
      <point x="283" y="269"/>
      <point x="237" y="140"/>
      <point x="192" y="140" type="curve" smooth="yes"/>
      <point x="180" y="140"/>
      <point x="176" y="152"/>
      <point x="176" y="179" type="curve" smooth="yes"/>
      <point x="176" y="282"/>
      <point x="207" y="473"/>
      <point x="247" y="583" type="curve"/>
      <point x="104" y="640" type="line"/>
      <point x="69" y="519"/>
      <point x="44" y="331"/>
      <point x="44" y="224" type="curve" smooth="yes"/>
      <point x="44" y="112"/>
      <point x="123" y="47"/>
      <point x="211" y="47" type="curve" smooth="yes"/>
    </contour>
    <contour>
      <point x="109.193477913" y="522.379100243"/>
      <point x="310.916666667" y="541.0"/>
      <point x="520" y="541" type="curve" smooth="yes"/>
      <point x="683.928571429" y="541.0"/>
      <point x="841.82900274" y="518.712121483"/>
      <point x="928" y="504" type="curve"/>
      <point x="934" y="520"/>
      <point x="939" y="549"/>
      <point x="939" y="578" type="curve" smooth="yes"/>
      <point x="939" y="604"/>
      <point x="935" y="629"/>
      <point x="928" y="639" type="curve"/>
      <point x="842.89859901" y="655.810153282"/>
      <point x="684.839285714" y="680.0"/>
      <point x="520" y="680" type="curve" smooth="yes"/>
      <point x="309.833333333" y="680.0"/>
      <point x="106.938492135" y="660.603735785"/>
      <point x="0" y="639" type="curve"/>
      <point x="-7" y="629"/>
      <point x="-11" y="604"/>
      <point x="-11" y="578" type="curve" smooth="yes"/>
      <point x="-11" y="549"/>
      <point x="-6" y="520"/>
      <point x="0" y="504" type="curve"/>
    </contour>
    <contour>
      <point x="871" y="-146"/>
      <point x="901" y="-114"/>
      <point x="924" y="-84" type="curve"/>
      <point x="804" y="4"/>
      <point x="698" y="73"/>
      <point x="590" y="128" type="curve"/>
      <point x="647" y="60" type="line"/>
      <point x="787" y="60"/>
      <point x="891" y="123"/>
      <point x="891" y="249" type="curve" smooth="yes"/>
      <point x="891" y="343"/>
      <point x="836" y="426"/>
      <point x="772" y="478" type="curve"/>
      <point x="674" y="488"/>
      <point x="569" y="518"/>
      <point x="550" y="562" type="curve"/>
      <point x="535" y="497" type="line"/>
      <point x="541" y="459"/>
      <point x="587" y="422"/>
      <point x="650" y="414" type="curve"/>
      <point x="638" y="444" type="line"/>
      <point x="641" y="436"/>
      <point x="642" y="428"/>
      <point x="642" y="419" type="curve" smooth="yes"/>
      <point x="642" y="364"/>
      <point x="602" y="316"/>
      <point x="572" y="316" type="curve" smooth="yes"/>
      <point x="559" y="316"/>
      <point x="556" y="324"/>
      <point x="556" y="344" type="curve" smooth="yes"/>
      <point x="556" y="391"/>
      <point x="566" y="494"/>
      <point x="581" y="553" type="curve"/>
      <point x="432" y="585" type="line"/>
      <point x="421" y="513"/>
      <point x="415" y="406"/>
      <point x="415" y="378" type="curve" smooth="yes"/>
      <point x="415" y="288"/>
      <point x="493" y="235"/>
      <point x="565" y="235" type="curve" smooth="yes"/>
      <point x="686" y="235"/>
      <point x="774" y="335"/>
      <point x="774" y="440" type="curve"/>
      <point x="721" y="383" type="line"/>
      <point x="740" y="365"/>
      <point x="751" y="342"/>
      <point x="751" y="308" type="curve" smooth="yes"/>
      <point x="751" y="240"/>
      <point x="700" y="199"/>
      <point x="613" y="199" type="curve" smooth="yes"/>
      <point x="569" y="199"/>
      <point x="514" y="207"/>
      <point x="456" y="228" type="curve"/>
      <point x="477" y="51" type="line"/>
      <point x="597" y="6"/>
      <point x="719" y="-66"/>
      <point x="838" y="-172" type="curve"/>
    </contour>
  </outline>
</glyph>
<glyph name="bn_c_nya" format="1">
  <advance width="957"/>
  <outline>
    <contour>
      <point x="327" y="147"/>
      <point x="423" y="261"/>
      <point x="423" y="371" type="curve" smooth="yes"/>
      <point x="423" y="428"/>
      <point x="389" y="457"/>
      <point x="329" y="481" type="curve" smooth="yes"/>
      <point x="275" y="502"/>
      <point x="226" y="528"/>
      <point x="219" y="578" type="curve"/>
      <point x="192" y="514" type="line"/>
      <point x="194" y="471"/>
      <point x="212" y="444"/>
      <point x="241" y="424" type="curve" smooth="yes"/>
      <point x="254" y="415"/>
      <point x="265" y="409"/>
      <point x="265" y="396" type="curve" smooth="yes"/>
      <point x="265" y="339"/>
      <point x="222" y="234"/>
      <point x="181" y="234" type="curve" smooth="yes"/>
      <point x="170" y="234"/>
      <point x="166" y="244"/>
      <point x="166" y="266" type="curve" smooth="yes"/>
      <point x="166" y="349"/>
      <point x="195" y="504"/>
      <point x="232" y="594" type="curve"/>
      <point x="99" y="640" type="line"/>
      <point x="67" y="542"/>
      <point x="44" y="389"/>
      <point x="44" y="302" type="curve" smooth="yes"/>
      <point x="44" y="204"/>
      <point x="120" y="147"/>
      <point x="205" y="147" type="curve" smooth="yes"/>
    </contour>
    <contour>
      <point x="111.244313197" y="522.72429034"/>
      <point x="316.895833333" y="541.0"/>
      <point x="530" y="541" type="curve" smooth="yes"/>
      <point x="701.874213836" y="541.0"/>
      <point x="866.876439784" y="519.386949305"/>
      <point x="957" y="504" type="curve"/>
      <point x="963" y="520"/>
      <point x="968" y="549"/>
      <point x="968" y="578" type="curve" smooth="yes"/>
      <point x="968" y="604"/>
      <point x="964" y="629"/>
      <point x="957" y="639" type="curve"/>
      <point x="868.015049061" y="656.57727426"/>
      <point x="702.769392034" y="680.0"/>
      <point x="530" y="680" type="curve" smooth="yes"/>
      <point x="315.791666667" y="680.0"/>
      <point x="108.926520595" y="661.005357696"/>
      <point x="0" y="639" type="curve"/>
      <point x="-7" y="629"/>
      <point x="-11" y="604"/>
      <point x="-11" y="578" type="curve" smooth="yes"/>
      <point x="-11" y="549"/>
      <point x="-6" y="520"/>
      <point x="0" y="504" type="curve"/>
    </contour>
    <contour>
      <point x="892" y="100"/>
      <point x="931" y="159"/>
      <point x="931" y="232" type="curve" smooth="yes"/>
      <point x="931" y="317"/>
      <point x="870" y="362"/>
      <point x="798" y="362" type="curve" smooth="yes"/>
      <point x="717" y="362"/>
      <point x="649" y="305"/>
      <point x="619" y="242" type="curve"/>
      <point x="629" y="91" type="line"/>
      <point x="674" y="192"/>
      <point x="741" y="242"/>
      <point x="799" y="242" type="curve" smooth="yes"/>
      <point x="825" y="242"/>
      <point x="841" y="230"/>
      <point x="841" y="209" type="curve" smooth="yes"/>
      <point x="841" y="180"/>
      <point x="819" y="144"/>
      <point x="791" y="110" type="curve"/>
      <point x="845" y="55" type="line"/>
    </contour>
    <contour>
      <point x="871" y="-133"/>
      <point x="932" y="-87"/>
      <point x="932" y="-7" type="curve" smooth="yes"/>
      <point x="932" y="54"/>
      <point x="900" y="104"/>
      <point x="851" y="148" type="curve"/>
      <point x="812" y="98" type="line"/>
      <point x="828" y="88"/>
      <point x="843" y="63"/>
      <point x="843" y="43" type="curve" smooth="yes"/>
      <point x="843" y="15"/>
      <point x="820" y="-4"/>
      <point x="783" y="-4" type="curve" smooth="yes"/>
      <point x="739" y="-4"/>
      <point x="673" y="24"/>
      <point x="629" y="84" type="curve"/>
      <point x="619" y="-21" type="line"/>
      <point x="647" y="-76"/>
      <point x="713" y="-133"/>
      <point x="796" y="-133" type="curve" smooth="yes"/>
    </contour>
    <contour>
      <point x="818" y="29"/>
      <point x="850" y="57"/>
      <point x="867" y="102" type="curve"/>
      <point x="818" y="145" type="line"/>
      <point x="806" y="128"/>
      <point x="791" y="114"/>
      <point x="774" y="114" type="curve" smooth="yes"/>
      <point x="761" y="114"/>
      <point x="754" y="123"/>
      <point x="754" y="134" type="curve" smooth="yes"/>
      <point x="754" y="147"/>
      <point x="763" y="157"/>
      <point x="776" y="157" type="curve" smooth="yes"/>
      <point x="794" y="157"/>
      <point x="806" y="139"/>
      <point x="812" y="118" type="curve"/>
      <point x="843" y="170" type="line"/>
      <point x="832" y="189"/>
      <point x="806" y="206"/>
      <point x="779" y="206" type="curve" smooth="yes"/>
      <point x="740" y="206"/>
      <point x="698" y="172"/>
      <point x="698" y="112" type="curve" smooth="yes"/>
      <point x="698" y="63"/>
      <point x="736" y="29"/>
      <point x="780" y="29" type="curve" smooth="yes"/>
    </contour>
    <contour>
      <point x="540" y="-251"/>
      <point x="591" y="-244"/>
      <point x="632" y="-230" type="curve"/>
      <point x="649" y="-84"/>
      <point x="659" y="76"/>
      <point x="659" y="275" type="curve" smooth="yes"/>
      <point x="659" y="395"/>
      <point x="571" y="470"/>
      <point x="474" y="470" type="curve" smooth="yes"/>
      <point x="344" y="470"/>
      <point x="224" y="335"/>
      <point x="224" y="210" type="curve" smooth="yes"/>
      <point x="224" y="110"/>
      <point x="300" y="57"/>
      <point x="380" y="57" type="curve" smooth="yes"/>
      <point x="405" y="57"/>
      <point x="425" y="62"/>
      <point x="437" y="68" type="curve"/>
      <point x="460" y="98"/>
      <point x="478" y="156"/>
      <point x="478" y="201" type="curve" smooth="yes"/>
      <point x="478" y="211"/>
      <point x="477" y="219"/>
      <point x="476" y="222" type="curve"/>
      <point x="464" y="213"/>
      <point x="447" y="206"/>
      <point x="429" y="206" type="curve" smooth="yes"/>
      <point x="408" y="206"/>
      <point x="395" y="216"/>
      <point x="395" y="239" type="curve" smooth="yes"/>
      <point x="395" y="283"/>
      <point x="445" y="366"/>
      <point x="487" y="366" type="curve" smooth="yes"/>
      <point x="503" y="366"/>
      <point x="512" y="354"/>
      <point x="512" y="330" type="curve" smooth="yes"/>
      <point x="512" y="165"/>
      <point x="497" y="-22"/>
      <point x="468" y="-147" type="curve"/>
      <point x="505" y="-201" type="line"/>
      <point x="476" y="-59"/>
      <point x="446" y="1"/>
      <point x="382" y="1" type="curve" smooth="yes"/>
      <point x="335" y="1"/>
      <point x="277" y="-32"/>
      <point x="239" y="-32" type="curve" smooth="yes"/>
      <point x="215" y="-32"/>
      <point x="196" y="-19"/>
      <point x="196" y="14" type="curve" smooth="yes"/>
      <point x="196" y="33"/>
      <point x="202" y="63"/>
      <point x="214" y="90" type="curve"/>
      <point x="187" y="100"/>
      <point x="150" y="106"/>
      <point x="102" y="107" type="curve"/>
      <point x="82" y="58"/>
      <point x="68" y="-1"/>
      <point x="68" y="-52" type="curve" smooth="yes"/>
      <point x="68" y="-152"/>
      <point x="123" y="-213"/>
      <point x="208" y="-213" type="curve" smooth="yes"/>
      <point x="279" y="-213"/>
      <point x="347" y="-171"/>
      <point x="406" y="-171" type="curve" smooth="yes"/>
      <point x="465" y="-171"/>
      <point x="477" y="-214"/>
      <point x="497" y="-251" type="curve"/>
    </contour>
    <contour>
      <point x="440" y="-236" type="move" name="blwm"/>
    </contour>
    <contour>
      <point x="357" y="-236" type="move" name="haln"/>
    </contour>
    <contour>
      <point x="558.0" y="690.0" type="move" name="reph"/>
    </contour>
    <contour>
      <point x="558.0" y="690.0" type="move" name="chandrabindu"/>
    </contour>
  </outline>
</glyph>
<glyph name="bn_ch_ra" format="1">
  <advance width="560"/>
  <outline>
    <contour>
      <point x="500" y="-146"/>
      <point x="530" y="-114"/>
      <point x="553" y="-84" type="curve"/>
      <point x="432" y="5"/>
      <point x="336" y="90"/>
      <point x="229" y="145" type="curve"/>
      <point x="276" y="60" type="line"/>
      <point x="416" y="60"/>
      <point x="520" y="123"/>
      <point x="520" y="249" type="curve" smooth="yes"/>
      <point x="520" y="343"/>
      <point x="465" y="426"/>
      <point x="401" y="478" type="curve"/>
      <point x="303" y="488"/>
      <point x="198" y="518"/>
      <point x="179" y="562" type="curve"/>
      <point x="164" y="497" type="line"/>
      <point x="170" y="459"/>
      <point x="216" y="422"/>
      <point x="279" y="414" type="curve"/>
      <point x="267" y="444" type="line"/>
      <point x="270" y="436"/>
      <point x="271" y="428"/>
      <point x="271" y="419" type="curve" smooth="yes"/>
      <point x="271" y="364"/>
      <point x="231" y="316"/>
      <point x="201" y="316" type="curve" smooth="yes"/>
      <point x="188" y="316"/>
      <point x="185" y="324"/>
      <point x="185" y="344" type="curve" smooth="yes"/>
      <point x="185" y="391"/>
      <point x="195" y="494"/>
      <point x="210" y="553" type="curve"/>
      <point x="61" y="585" type="line"/>
      <point x="50" y="513"/>
      <point x="44" y="406"/>
      <point x="44" y="378" type="curve" smooth="yes"/>
      <point x="44" y="288"/>
      <point x="122" y="235"/>
      <point x="194" y="235" type="curve" smooth="yes"/>
      <point x="315" y="235"/>
      <point x="403" y="335"/>
      <point x="403" y="440" type="curve"/>
      <point x="350" y="383" type="line"/>
      <point x="369" y="365"/>
      <point x="380" y="342"/>
      <point x="380" y="308" type="curve" smooth="yes"/>
      <point x="380" y="240"/>
      <point x="329" y="199"/>
      <point x="242" y="199" type="curve" smooth="yes"/>
      <point x="198" y="199"/>
      <point x="143" y="207"/>
      <point x="85" y="228" type="curve"/>
      <point x="99" y="80" type="line"/>
      <point x="223.0" y="33.0"/>
      <point x="340.0" y="-59.0"/>
      <point x="467" y="-172" type="curve"/>
    </contour>
    <contour>
      <point x="389" y="-238" type="curve"/>
      <point x="371.230769231" y="-186.307692308"/>
      <point x="367.625" y="-95.125"/>
      <point x="386" y="2" type="curve"/>
      <point x="277" y="12" type="line"/>
      <point x="249.527777778" y="-75.1944444444"/>
      <point x="225.714285714" y="-197.571428571"/>
      <point x="238" y="-259" type="curve"/>
      <point x="284" y="-261"/>
      <point x="347" y="-257"/>
    </contour>
    <contour>
      <point x="262" y="-216" type="line"/>
      <point x="242" y="-78"/>
      <point x="202.937062937" y="-60.0"/>
      <point x="159" y="-60" type="curve" smooth="yes"/>
      <point x="144" y="-60"/>
      <point x="117" y="-62"/>
      <point x="105" y="-62" type="curve" smooth="yes"/>
      <point x="85" y="-62"/>
      <point x="70" y="-48"/>
      <point x="70" y="-27" type="curve" smooth="yes"/>
      <point x="70" y="-11"/>
      <point x="75" y="7"/>
      <point x="80" y="23" type="curve"/>
      <point x="55" y="33"/>
      <point x="18" y="40"/>
      <point x="-19" y="40" type="curve"/>
      <point x="-36" y="6"/>
      <point x="-48" y="-35"/>
      <point x="-48" y="-79" type="curve" smooth="yes"/>
      <point x="-48" y="-154"/>
      <point x="11" y="-203"/>
      <point x="105" y="-203" type="curve" smooth="yes"/>
      <point x="134" y="-203"/>
      <point x="160" y="-201"/>
      <point x="186" y="-201" type="curve" smooth="yes"/>
      <point x="215.956521739" y="-201.0"/>
      <point x="226" y="-227"/>
      <point x="238" y="-259" type="curve"/>
    </contour>
    <contour>
      <point x="58" y="519"/>
      <point x="173" y="532"/>
      <point x="286" y="532" type="curve" smooth="yes"/>
      <point x="399" y="532"/>
      <point x="502" y="519"/>
      <point x="560" y="504" type="curve"/>
      <point x="565" y="521"/>
      <point x="571" y="549"/>
      <point x="571" y="579" type="curve" smooth="yes"/>
      <point x="571" y="600"/>
      <point x="568" y="624"/>
      <point x="562" y="639" type="curve"/>
      <point x="511" y="657"/>
      <point x="400" y="671"/>
      <point x="286" y="671" type="curve" smooth="yes"/>
      <point x="172" y="671"/>
      <point x="51" y="657"/>
      <point x="0" y="639" type="curve"/>
      <point x="-6" y="624"/>
      <point x="-9" y="601"/>
      <point x="-9" y="578" type="curve" smooth="yes"/>
      <point x="-9" y="550"/>
      <point x="-5" y="521"/>
      <point x="0" y="504" type="curve"/>
    </contour>
    <contour>
      <point x="287" y="690" type="move" name="reph"/>
    </contour>
    <contour>
      <point x="287" y="690" type="move" name="chandrabindu"/>
    </contour>
    <contour>
      <point x="230" y="-223" type="move" name="haln"/>
    </contour>
    <contour>
      <point x="314" y="-222" type="move" name="blwm"/>
    </contour>
  </outline>
</glyph>
<glyph name="bn_d_bh_ra" format="1">
  <advance width="650"/>
  <outline>
    <contour>
      <point x="539" y="24" type="curve"/>
      <point x="529.784459201" y="68.6599284864"/>
      <point x="533.0" y="111.730337079"/>
      <point x="533" y="152" type="curve" smooth="yes"/>
      <point x="533.0" y="242.090452261"/>
      <point x="560.404891472" y="316.576346251"/>
      <point x="589" y="401" type="curve"/>
      <point x="545" y="452"/>
      <point x="501" y="484"/>
      <point x="441" y="504" type="curve"/>
      <point x="353" y="458"/>
      <point x="271" y="378"/>
      <point x="187" y="258" type="curve"/>
      <point x="285" y="279" type="line"/>
      <point x="293" y="355"/>
      <point x="300" y="432"/>
      <point x="300" y="500" type="curve" smooth="yes"/>
      <point x="300" y="518"/>
      <point x="299" y="536"/>
      <point x="298" y="552" type="curve"/>
      <point x="181" y="540" type="line"/>
      <point x="178" y="444"/>
      <point x="170" y="328"/>
      <point x="134" y="231" type="curve"/>
      <point x="170" y="209"/>
      <point x="244" y="190"/>
      <point x="298" y="184" type="curve"/>
      <point x="348" y="257"/>
      <point x="438" y="337"/>
      <point x="526" y="383" type="curve"/>
      <point x="472" y="385" type="line"/>
      <point x="443" y="319"/>
      <point x="427" y="237"/>
      <point x="427" y="158" type="curve" smooth="yes"/>
      <point x="427" y="104"/>
      <point x="439" y="50"/>
      <point x="450" y="-2" type="curve"/>
      <point x="472.76744186" y="-2.0"/>
      <point x="518.970849417" y="14.3860077201"/>
    </contour>
    <contour>
      <point x="323" y="531" type="curve" smooth="yes"/>
      <point x="441" y="531"/>
      <point x="571" y="518"/>
      <point x="650" y="504" type="curve"/>
      <point x="656" y="521"/>
      <point x="661" y="551"/>
      <point x="661" y="580" type="curve" smooth="yes"/>
      <point x="661" y="603"/>
      <point x="658" y="626"/>
      <point x="650" y="639" type="curve"/>
      <point x="572" y="656"/>
      <point x="443" y="670"/>
      <point x="323" y="670" type="curve" smooth="yes"/>
      <point x="203" y="670"/>
      <point x="77" y="656"/>
      <point x="0" y="639" type="curve"/>
      <point x="-7" y="626"/>
      <point x="-11" y="605"/>
      <point x="-11" y="581" type="curve" smooth="yes"/>
      <point x="-11" y="552"/>
      <point x="-6" y="521"/>
      <point x="0" y="504" type="curve"/>
      <point x="79" y="518"/>
      <point x="205" y="531"/>
    </contour>
    <contour>
      <point x="503" y="-290" type="curve"/>
      <point x="536" y="-290"/>
      <point x="605" y="-276"/>
      <point x="632" y="-260" type="curve"/>
      <point x="612.701116118" y="-150.639658002"/>
      <point x="604" y="-41"/>
      <point x="582" y="56" type="curve"/>
      <point x="553" y="80"/>
      <point x="514" y="106"/>
      <point x="483" y="123" type="curve"/>
      <point x="425" y="71"/>
      <point x="369" y="27"/>
      <point x="334" y="27" type="curve" smooth="yes"/>
      <point x="320" y="27"/>
      <point x="313" y="33"/>
      <point x="313" y="41" type="curve" smooth="yes"/>
      <point x="313" y="66"/>
      <point x="352" y="100"/>
      <point x="388" y="105" type="curve"/>
      <point x="371" y="135"/>
      <point x="327" y="164"/>
      <point x="289" y="167" type="curve"/>
      <point x="250" y="154"/>
      <point x="208" y="119"/>
      <point x="208" y="64" type="curve" smooth="yes"/>
      <point x="208" y="-17"/>
      <point x="290" y="-82"/>
      <point x="384" y="-82" type="curve" smooth="yes"/>
      <point x="447" y="-82"/>
      <point x="503" y="-48"/>
      <point x="548" y="13" type="curve"/>
      <point x="470" y="53" type="line"/>
      <point x="478" y="-66"/>
      <point x="483.5" y="-188.0"/>
    </contour>
    <contour>
      <point x="529" y="-240" type="line"/>
      <point x="480.671968578" y="-153.009543441"/>
      <point x="439.641975309" y="-104.0"/>
      <point x="375" y="-104" type="curve" smooth="yes"/>
      <point x="325.923076923" y="-104.0"/>
      <point x="239.195121951" y="-129.0"/>
      <point x="201" y="-129" type="curve" smooth="yes"/>
      <point x="165.835820896" y="-129.0"/>
      <point x="139.0" y="-105.710526316"/>
      <point x="139" y="-70" type="curve" smooth="yes"/>
      <point x="139.0" y="-48.56"/>
      <point x="147.224996225" y="-24.6800120813"/>
      <point x="154" y="-3" type="curve"/>
      <point x="129" y="7"/>
      <point x="92" y="14"/>
      <point x="55" y="14" type="curve"/>
      <point x="38" y="-20"/>
      <point x="26" y="-61"/>
      <point x="26" y="-105" type="curve" smooth="yes"/>
      <point x="26.0" y="-192.210144928"/>
      <point x="94.1081081081" y="-250.0"/>
      <point x="201" y="-250" type="curve" smooth="yes"/>
      <point x="274.645833333" y="-250.0"/>
      <point x="337.130434783" y="-227.0"/>
      <point x="403" y="-227" type="curve" smooth="yes"/>
      <point x="459.481481481" y="-227.0"/>
      <point x="473.335872666" y="-261.47680064"/>
      <point x="503" y="-290" type="curve"/>
    </contour>
    <contour>
      <point x="335" y="690" type="move" name="reph"/>
    </contour>
    <contour>
      <point x="335" y="690" type="move" name="chandrabindu"/>
    </contour>
    <contour>
      <point x="549" y="-259" type="move" name="blwm"/>
    </contour>
    <contour>
      <point x="395" y="-264" type="move" name="haln"/>
    </contour>
  </outline>
</glyph>
<glyph name="bn_d_d_ba" format="1">
  <advance width="737"/>
  <outline>
    <contour>
      <point x="606" y="-250"/>
      <point x="661" y="-235"/>
      <point x="688" y="-218" type="curve"/>
      <point x="672" y="-145"/>
      <point x="657" y="-78"/>
      <point x="657" y="-16" type="curve" smooth="yes"/>
      <point x="657.0" y="91.5714285714"/>
      <point x="676.415762428" y="161.427887373"/>
      <point x="718" y="235" type="curve"/>
      <point x="685" y="287"/>
      <point x="636" y="328"/>
      <point x="576" y="351" type="curve"/>
      <point x="506.978129423" y="312.883444607"/>
      <point x="449.618452189" y="248.424848603"/>
      <point x="382" y="169" type="curve"/>
      <point x="413" y="149" type="line"/>
      <point x="430" y="238"/>
      <point x="464" y="315"/>
      <point x="500" y="391" type="curve"/>
      <point x="466" y="443"/>
      <point x="418" y="484"/>
      <point x="358" y="507" type="curve"/>
      <point x="283" y="466"/>
      <point x="210" y="406"/>
      <point x="138" y="320" type="curve"/>
      <point x="205" y="236" type="line"/>
      <point x="213" y="324"/>
      <point x="220" y="413"/>
      <point x="220" y="492" type="curve" smooth="yes"/>
      <point x="220" y="513"/>
      <point x="219" y="533"/>
      <point x="218" y="552" type="curve"/>
      <point x="101" y="538" type="line"/>
      <point x="98" y="437"/>
      <point x="81" y="318"/>
      <point x="44" y="217" type="curve"/>
      <point x="77" y="183"/>
      <point x="139" y="155"/>
      <point x="189" y="147" type="curve"/>
      <point x="244" y="228"/>
      <point x="341" y="319"/>
      <point x="437" y="370" type="curve"/>
      <point x="363" y="372" type="line"/>
      <point x="315.247312635" y="309.266077383"/>
      <point x="286.570796159" y="178.673670231"/>
      <point x="275" y="89" type="curve"/>
      <point x="321" y="46"/>
      <point x="360" y="35"/>
      <point x="407" y="29" type="curve"/>
      <point x="467" y="101"/>
      <point x="561.407383993" y="163.603975996"/>
      <point x="655" y="214" type="curve"/>
      <point x="582" y="226" type="line"/>
      <point x="543.658068718" y="146.029686183"/>
      <point x="530.0" y="31.7674418605"/>
      <point x="530" y="-62" type="curve" smooth="yes"/>
      <point x="530" y="-130"/>
      <point x="545" y="-192"/>
      <point x="559" y="-250" type="curve"/>
    </contour>
    <contour>
      <point x="81" y="520"/>
      <point x="219" y="535"/>
      <point x="362" y="535" type="curve" smooth="yes"/>
      <point x="504" y="535"/>
      <point x="657" y="520"/>
      <point x="737" y="504" type="curve"/>
      <point x="742" y="520"/>
      <point x="747" y="551"/>
      <point x="747" y="577" type="curve" smooth="yes"/>
      <point x="747" y="600"/>
      <point x="743" y="625"/>
      <point x="737" y="639" type="curve"/>
      <point x="666" y="658"/>
      <point x="510" y="674"/>
      <point x="366" y="674" type="curve" smooth="yes"/>
      <point x="222" y="674"/>
      <point x="79" y="658"/>
      <point x="0" y="639" type="curve"/>
      <point x="-8" y="625"/>
      <point x="-11" y="598"/>
      <point x="-11" y="577" type="curve" smooth="yes"/>
      <point x="-11" y="551"/>
      <point x="-6" y="521"/>
      <point x="0" y="504" type="curve"/>
    </contour>
    <contour>
      <point x="575" y="-202" type="line"/>
      <point x="557" y="-146"/>
      <point x="501" y="-101"/>
      <point x="439" y="-77" type="curve"/>
      <point x="423" y="-127" type="line"/>
      <point x="455" y="-94"/>
      <point x="530" y="-43"/>
      <point x="567" y="-29" type="curve"/>
      <point x="563" y="97" type="line"/>
      <point x="494" y="65"/>
      <point x="396" y="2"/>
      <point x="346" y="-40" type="curve"/>
      <point x="350" y="-85"/>
      <point x="359" y="-112"/>
      <point x="378" y="-153" type="curve"/>
      <point x="451" y="-164"/>
      <point x="519" y="-202"/>
      <point x="559" y="-250" type="curve"/>
    </contour>
    <contour>
      <point x="410" y="690" type="move" name="reph"/>
    </contour>
    <contour>
      <point x="410" y="690" type="move" name="chandrabindu"/>
    </contour>
    <contour>
      <point x="596" y="-228" type="move" name="blwm"/>
    </contour>
    <contour>
      <point x="441" y="-227" type="move" name="haln"/>
    </contour>
  </outline>
</glyph>
<glyph name="bn_d_ga" format="1">
  <advance width="1058"/>
  <outline>
    <contour>
      <point x="489" y="-7" type="curve"/>
      <point x="479" y="48"/>
      <point x="474" y="99"/>
      <point x="474" y="147" type="curve" smooth="yes"/>
      <point x="474" y="231"/>
      <point x="488" y="306"/>
      <point x="509" y="378" type="curve"/>
      <point x="465" y="436"/>
      <point x="421" y="473"/>
      <point x="361" y="496" type="curve"/>
      <point x="256" y="433"/>
      <point x="156" y="329"/>
      <point x="57" y="166" type="curve"/>
      <point x="205" y="236" type="line"/>
      <point x="213" y="324"/>
      <point x="220" y="413"/>
      <point x="220" y="492" type="curve" smooth="yes"/>
      <point x="220" y="513"/>
      <point x="219" y="533"/>
      <point x="218" y="552" type="curve"/>
      <point x="101" y="538" type="line"/>
      <point x="98" y="420"/>
      <point x="73" y="280"/>
      <point x="34" y="158" type="curve"/>
      <point x="70" y="132"/>
      <point x="144" y="110"/>
      <point x="198" y="104" type="curve"/>
      <point x="253" y="196"/>
      <point x="350" y="299"/>
      <point x="446" y="357" type="curve"/>
      <point x="392" y="359" type="line"/>
      <point x="363" y="283"/>
      <point x="347" y="188"/>
      <point x="347" y="97" type="curve" smooth="yes"/>
      <point x="347" y="51"/>
      <point x="352" y="5"/>
      <point x="360" y="-37" type="curve"/>
      <point x="393" y="-37"/>
      <point x="462" y="-23"/>
    </contour>
    <contour>
      <point x="290" y="531" type="curve" smooth="yes"/>
      <point x="376" y="531"/>
      <point x="487" y="518"/>
      <point x="540" y="504" type="curve"/>
      <point x="545" y="522"/>
      <point x="549" y="552"/>
      <point x="549" y="582" type="curve" smooth="yes"/>
      <point x="549" y="604"/>
      <point x="546" y="625"/>
      <point x="540" y="639" type="curve"/>
      <point x="492" y="656"/>
      <point x="379" y="670"/>
      <point x="294" y="670" type="curve" smooth="yes"/>
      <point x="170" y="670"/>
      <point x="67" y="656"/>
      <point x="0" y="639" type="curve"/>
      <point x="-8" y="626"/>
      <point x="-11" y="605"/>
      <point x="-11" y="582" type="curve" smooth="yes"/>
      <point x="-11" y="554"/>
      <point x="-6" y="523"/>
      <point x="0" y="504" type="curve"/>
      <point x="68" y="518"/>
      <point x="167" y="531"/>
    </contour>
    <contour>
      <point x="816" y="309" type="curve" smooth="yes"/>
      <point x="816" y="397"/>
      <point x="759" y="464"/>
      <point x="693" y="464" type="curve" smooth="yes"/>
      <point x="637" y="464"/>
      <point x="591" y="434"/>
      <point x="554" y="402" type="curve"/>
      <point x="657" y="397" type="line"/>
      <point x="638" y="413"/>
      <point x="626" y="436"/>
      <point x="626" y="455" type="curve" smooth="yes"/>
      <point x="626" y="490"/>
      <point x="660" y="506"/>
      <point x="706" y="506" type="curve" smooth="yes"/>
      <point x="768" y="506"/>
      <point x="845" y="449"/>
      <point x="845" y="345" type="curve" smooth="yes"/>
      <point x="845" y="324"/>
      <point x="845" y="290"/>
      <point x="839" y="241" type="curve"/>
      <point x="895" y="303" type="line"/>
      <point x="895" y="502"/>
      <point x="819" y="657"/>
      <point x="693" y="657" type="curve" smooth="yes"/>
      <point x="582" y="657"/>
      <point x="512" y="560"/>
      <point x="512" y="440" type="curve" smooth="yes"/>
      <point x="512" y="418"/>
      <point x="516" y="395"/>
      <point x="521" y="373" type="curve"/>
      <point x="567" y="293" type="line"/>
      <point x="621" y="331"/>
      <point x="675" y="354"/>
      <point x="715" y="354" type="curve" smooth="yes"/>
      <point x="723" y="354"/>
      <point x="728" y="350"/>
      <point x="728" y="340" type="curve" smooth="yes"/>
      <point x="728" y="320"/>
      <point x="650" y="264"/>
      <point x="578" y="221" type="curve"/>
      <point x="604" y="174"/>
      <point x="643" y="131"/>
      <point x="697" y="93" type="curve"/>
      <point x="780" y="182"/>
      <point x="816" y="246"/>
    </contour>
    <contour>
      <point x="996" y="450" type="curve" smooth="yes"/>
      <point x="996" y="471"/>
      <point x="1005" y="487"/>
      <point x="1026" y="494" type="curve" smooth="yes"/>
      <point x="1039" y="498"/>
      <point x="1049" y="501"/>
      <point x="1058" y="504" type="curve"/>
      <point x="1064" y="523"/>
      <point x="1069" y="552"/>
      <point x="1069" y="576" type="curve" smooth="yes"/>
      <point x="1069" y="603"/>
      <point x="1065" y="626"/>
      <point x="1058" y="639" type="curve"/>
      <point x="1016" y="632"/>
      <point x="975" y="622"/>
      <point x="933" y="607" type="curve" smooth="yes"/>
      <point x="897" y="595"/>
      <point x="868" y="558"/>
      <point x="868" y="523" type="curve" smooth="yes"/>
      <point x="868" y="503"/>
      <point x="870" y="480"/>
      <point x="872" y="460" type="curve"/>
      <point x="847" y="478" type="line"/>
      <point x="848" y="277"/>
      <point x="830" y="112"/>
      <point x="797" y="-24" type="curve"/>
      <point x="835" y="-35"/>
      <point x="911" y="-43"/>
      <point x="963" y="-43" type="curve"/>
      <point x="982" y="69"/>
      <point x="996" y="275"/>
    </contour>
    <contour>
      <point x="721" y="0" type="move" name="blwm"/>
    </contour>
    <contour>
      <point x="603" y="-1" type="move" name="haln"/>
    </contour>
    <contour>
      <point x="773" y="690" type="move" name="reph"/>
    </contour>
    <contour>
      <point x="773" y="690" type="move" name="chandrabindu"/>
    </contour>
  </outline>
</glyph>
<glyph name="bn_d_gha" format="1">
  <advance width="1058"/>
  <outline>
    <contour>
      <point x="393" y="-37"/>
      <point x="462" y="-23"/>
      <point x="489" y="-7" type="curve"/>
      <point x="479" y="48"/>
      <point x="474" y="99"/>
      <point x="474" y="147" type="curve" smooth="yes"/>
      <point x="474" y="231"/>
      <point x="488" y="306"/>
      <point x="509" y="378" type="curve"/>
      <point x="465" y="436"/>
      <point x="421" y="473"/>
      <point x="361" y="496" type="curve"/>
      <point x="256" y="433"/>
      <point x="156" y="329"/>
      <point x="57" y="166" type="curve"/>
      <point x="205" y="236" type="line"/>
      <point x="213" y="324"/>
      <point x="220" y="413"/>
      <point x="220" y="492" type="curve" smooth="yes"/>
      <point x="220" y="513"/>
      <point x="219" y="533"/>
      <point x="218" y="552" type="curve"/>
      <point x="101" y="538" type="line"/>
      <point x="98" y="420"/>
      <point x="73" y="280"/>
      <point x="34" y="158" type="curve"/>
      <point x="70" y="132"/>
      <point x="144" y="110"/>
      <point x="198" y="104" type="curve"/>
      <point x="253" y="196"/>
      <point x="350" y="299"/>
      <point x="446" y="357" type="curve"/>
      <point x="392" y="359" type="line"/>
      <point x="363" y="283"/>
      <point x="347" y="188"/>
      <point x="347" y="97" type="curve" smooth="yes"/>
      <point x="347" y="51"/>
      <point x="352" y="5"/>
      <point x="360" y="-37" type="curve"/>
    </contour>
    <contour>
      <point x="852" y="31" type="line"/>
      <point x="818" y="124"/>
      <point x="729" y="198"/>
      <point x="638" y="244" type="curve"/>
      <point x="640" y="164" type="line"/>
      <point x="799" y="291" type="line"/>
      <point x="790" y="344"/>
      <point x="770" y="412"/>
      <point x="748" y="447" type="curve"/>
      <point x="717" y="413"/>
      <point x="695" y="402"/>
      <point x="676" y="402" type="curve" smooth="yes"/>
      <point x="656" y="402"/>
      <point x="636" y="414"/>
      <point x="636" y="442" type="curve" smooth="yes"/>
      <point x="636" y="473"/>
      <point x="661" y="509"/>
      <point x="740" y="532" type="curve"/>
      <point x="543" y="557" type="line"/>
      <point x="516" y="535"/>
      <point x="504" y="496"/>
      <point x="504" y="461" type="curve" smooth="yes"/>
      <point x="504" y="372"/>
      <point x="584" y="335"/>
      <point x="661" y="335" type="curve" smooth="yes"/>
      <point x="719" y="335"/>
      <point x="738" y="355"/>
      <point x="751" y="369" type="curve"/>
      <point x="639" y="380" type="line"/>
      <point x="528" y="283" type="line"/>
      <point x="526" y="229"/>
      <point x="549" y="168"/>
      <point x="596" y="122" type="curve"/>
      <point x="684" y="106"/>
      <point x="759" y="56"/>
      <point x="817" y="-34" type="curve"/>
    </contour>
    <contour>
      <point x="867" y="-34"/>
      <point x="936" y="-28"/>
      <point x="979" y="-10" type="curve"/>
      <point x="966" y="63"/>
      <point x="960" y="170"/>
      <point x="960" y="296" type="curve" smooth="yes"/>
      <point x="960" y="381"/>
      <point x="962" y="455"/>
      <point x="968" y="530" type="curve"/>
      <point x="844" y="560" type="line"/>
      <point x="823" y="392"/>
      <point x="815" y="282"/>
      <point x="815" y="105" type="curve" smooth="yes"/>
      <point x="815" y="56"/>
      <point x="814" y="5"/>
      <point x="817" y="-34" type="curve"/>
    </contour>
    <contour>
      <point x="114" y="522"/>
      <point x="333.310344828" y="535.0"/>
      <point x="537" y="535" type="curve" smooth="yes"/>
      <point x="727.011764706" y="535.0"/>
      <point x="950.798726922" y="520.030096909"/>
      <point x="1058" y="504" type="curve"/>
      <point x="1063" y="520"/>
      <point x="1068" y="551"/>
      <point x="1068" y="577" type="curve" smooth="yes"/>
      <point x="1068" y="600"/>
      <point x="1064" y="625"/>
      <point x="1058" y="639" type="curve"/>
      <point x="962.823697861" y="659.03711624"/>
      <point x="733.727810651" y="674.0"/>
      <point x="541" y="674" type="curve" smooth="yes"/>
      <point x="336.527559055" y="674.0"/>
      <point x="111" y="661"/>
      <point x="0" y="639" type="curve"/>
      <point x="-8" y="625"/>
      <point x="-11" y="598"/>
      <point x="-11" y="577" type="curve" smooth="yes"/>
      <point x="-11" y="551"/>
      <point x="-6" y="521"/>
      <point x="0" y="504" type="curve"/>
    </contour>
    <contour>
      <point x="872" y="-13" type="move" name="blwm"/>
    </contour>
    <contour>
      <point x="710" y="0" type="move" name="haln"/>
    </contour>
    <contour>
      <point x="901" y="690" type="move" name="reph"/>
    </contour>
    <contour>
      <point x="901" y="690" type="move" name="chandrabindu"/>
    </contour>
  </outline>
</glyph>
<glyph name="bn_d_ma" format="1">
  <advance width="1008"/>
  <outline>
    <contour>
      <point x="928" y="-207" type="curve"/>
      <point x="886" y="-81"/>
      <point x="850" y="87"/>
      <point x="850" y="296" type="curve" smooth="yes"/>
      <point x="850" y="382"/>
      <point x="854" y="465"/>
      <point x="859" y="540" type="curve"/>
      <point x="743" y="560" type="line"/>
      <point x="714" y="445"/>
      <point x="707" y="286"/>
      <point x="707" y="176" type="curve" smooth="yes"/>
      <point x="707" y="-44"/>
      <point x="742" y="-163"/>
      <point x="771" y="-250" type="curve"/>
      <point x="823" y="-250"/>
      <point x="887" y="-232"/>
    </contour>
    <contour>
      <point x="540" y="-41" type="curve"/>
      <point x="455" y="21" type="line"/>
      <point x="455" y="-13"/>
      <point x="423" y="-34"/>
      <point x="391" y="-34" type="curve" smooth="yes"/>
      <point x="367" y="-34"/>
      <point x="351" y="-22"/>
      <point x="351" y="-4" type="curve" smooth="yes"/>
      <point x="351" y="15"/>
      <point x="368" y="25"/>
      <point x="387" y="25" type="curve" smooth="yes"/>
      <point x="416" y="25"/>
      <point x="470" y="2"/>
      <point x="495" y="-46" type="curve"/>
      <point x="496" y="49" type="line"/>
      <point x="469" y="84"/>
      <point x="431" y="102"/>
      <point x="391" y="102" type="curve" smooth="yes"/>
      <point x="318" y="102"/>
      <point x="268" y="46"/>
      <point x="268" y="-28" type="curve" smooth="yes"/>
      <point x="268" y="-96"/>
      <point x="322" y="-152"/>
      <point x="403" y="-152" type="curve" smooth="yes"/>
      <point x="479" y="-152"/>
      <point x="535" y="-111"/>
    </contour>
    <contour>
      <point x="804" y="-215" type="line"/>
      <point x="785.48401603" y="-109.69034117"/>
      <point x="567.115804541" y="32.6399936381"/>
      <point x="481" y="69" type="curve"/>
      <point x="456" y="-29" type="line"/>
      <point x="574.869898733" y="-69.891245164"/>
      <point x="717.027975192" y="-138.222034234"/>
      <point x="773" y="-249" type="curve"/>
    </contour>
    <contour>
      <point x="510" y="541" type="curve" smooth="yes"/>
      <point x="710" y="541"/>
      <point x="902" y="522"/>
      <point x="1008" y="504" type="curve"/>
      <point x="1014" y="520"/>
      <point x="1019" y="549"/>
      <point x="1019" y="578" type="curve" smooth="yes"/>
      <point x="1019" y="604"/>
      <point x="1015" y="629"/>
      <point x="1008" y="639" type="curve"/>
      <point x="905" y="660"/>
      <point x="712" y="680"/>
      <point x="510" y="680" type="curve" smooth="yes"/>
      <point x="304" y="680"/>
      <point x="108" y="661"/>
      <point x="0" y="639" type="curve"/>
      <point x="-7" y="629"/>
      <point x="-11" y="604"/>
      <point x="-11" y="578" type="curve" smooth="yes"/>
      <point x="-11" y="549"/>
      <point x="-6" y="520"/>
      <point x="0" y="504" type="curve"/>
      <point x="110" y="522"/>
      <point x="305" y="541"/>
    </contour>
    <contour>
      <point x="455" y="63" type="curve"/>
      <point x="550" y="16" type="line"/>
      <point x="540" y="97"/>
      <point x="550.994168137" y="286.97007622"/>
      <point x="600" y="391" type="curve"/>
      <point x="566" y="443"/>
      <point x="518" y="484"/>
      <point x="458" y="507" type="curve"/>
      <point x="383" y="466"/>
      <point x="310" y="406"/>
      <point x="238" y="320" type="curve"/>
      <point x="305" y="236" type="line"/>
      <point x="313" y="324"/>
      <point x="320" y="413"/>
      <point x="320" y="492" type="curve" smooth="yes"/>
      <point x="320" y="513"/>
      <point x="319" y="533"/>
      <point x="318" y="552" type="curve"/>
      <point x="201" y="538" type="line"/>
      <point x="198" y="437"/>
      <point x="181" y="318"/>
      <point x="144" y="217" type="curve"/>
      <point x="177" y="183"/>
      <point x="239" y="155"/>
      <point x="289" y="147" type="curve"/>
      <point x="344" y="228"/>
      <point x="441" y="319"/>
      <point x="537" y="370" type="curve"/>
      <point x="483" y="372" type="line"/>
      <point x="444.949658152" y="322.534555598"/>
      <point x="451" y="169"/>
    </contour>
    <contour>
      <point x="769" y="690" type="move" name="reph"/>
    </contour>
    <contour>
      <point x="769" y="690" type="move" name="chandrabindu"/>
    </contour>
    <contour>
      <point x="835" y="-212" type="move" name="blwm"/>
    </contour>
    <contour>
      <point x="603" y="-222" type="move" name="haln"/>
    </contour>
  </outline>
</glyph>
<glyph name="bn_d_na" format="1">
  <advance width="676"/>
  <outline>
    <contour>
      <point x="553" y="-239"/>
      <point x="622" y="-225"/>
      <point x="649" y="-209" type="curve"/>
      <point x="623" y="-78"/>
      <point x="610.0" y="35.8438818565"/>
      <point x="610" y="147" type="curve" smooth="yes"/>
      <point x="610" y="231"/>
      <point x="624" y="306"/>
      <point x="645" y="378" type="curve"/>
      <point x="601" y="436"/>
      <point x="557" y="473"/>
      <point x="497" y="496" type="curve"/>
      <point x="392" y="433"/>
      <point x="292" y="329"/>
      <point x="193" y="166" type="curve"/>
      <point x="341" y="236" type="line"/>
      <point x="349" y="324"/>
      <point x="356" y="413"/>
      <point x="356" y="492" type="curve" smooth="yes"/>
      <point x="356" y="513"/>
      <point x="355" y="533"/>
      <point x="354" y="552" type="curve"/>
      <point x="237" y="538" type="line"/>
      <point x="234" y="420"/>
      <point x="209" y="280"/>
      <point x="170" y="158" type="curve"/>
      <point x="206" y="132"/>
      <point x="280" y="110"/>
      <point x="334" y="104" type="curve"/>
      <point x="389" y="196"/>
      <point x="486" y="299"/>
      <point x="582" y="357" type="curve"/>
      <point x="528" y="359" type="line"/>
      <point x="499" y="283"/>
      <point x="483" y="188"/>
      <point x="483" y="97" type="curve" smooth="yes"/>
      <point x="483.0" y="-17.5806451613"/>
      <point x="499.86786473" y="-132.418107395"/>
      <point x="520" y="-239" type="curve"/>
    </contour>
    <contour>
      <point x="77" y="520"/>
      <point x="187" y="531"/>
      <point x="326" y="531" type="curve" smooth="yes"/>
      <point x="446" y="531"/>
      <point x="603" y="523"/>
      <point x="676" y="504" type="curve"/>
      <point x="681" y="522"/>
      <point x="685" y="552"/>
      <point x="685" y="582" type="curve" smooth="yes"/>
      <point x="685" y="604"/>
      <point x="682" y="625"/>
      <point x="676" y="639" type="curve"/>
      <point x="610" y="662"/>
      <point x="450" y="670"/>
      <point x="330" y="670" type="curve" smooth="yes"/>
      <point x="191" y="670"/>
      <point x="76" y="658"/>
      <point x="0" y="639" type="curve"/>
      <point x="-8" y="626"/>
      <point x="-11" y="605"/>
      <point x="-11" y="582" type="curve" smooth="yes"/>
      <point x="-11" y="554"/>
      <point x="-6" y="523"/>
      <point x="0" y="504" type="curve"/>
    </contour>
    <contour>
      <point x="413" y="-208"/>
      <point x="412" y="-153"/>
      <point x="406" y="-111" type="curve"/>
      <point x="381" y="-126"/>
      <point x="348" y="-134"/>
      <point x="324" y="-134" type="curve" smooth="yes"/>
      <point x="288" y="-134"/>
      <point x="270" y="-121"/>
      <point x="270" y="-97" type="curve"/>
      <point x="270" y="-72"/>
      <point x="287" y="-54"/>
      <point x="334" y="-54" type="curve"/>
      <point x="425" y="-54"/>
      <point x="491" y="-116"/>
      <point x="520" y="-239" type="curve"/>
      <point x="536" y="-149" type="line"/>
      <point x="479" y="22"/>
      <point x="412" y="76"/>
      <point x="328" y="76" type="curve" smooth="yes"/>
      <point x="248" y="76"/>
      <point x="185" y="11"/>
      <point x="185" y="-79" type="curve" smooth="yes"/>
      <point x="185" y="-177"/>
      <point x="258" y="-257"/>
      <point x="343" y="-257" type="curve" smooth="yes"/>
      <point x="369" y="-257"/>
      <point x="400" y="-248"/>
      <point x="405" y="-244" type="curve"/>
    </contour>
    <contour>
      <point x="347" y="690" type="move" name="reph"/>
    </contour>
    <contour>
      <point x="347" y="690" type="move" name="chandrabindu"/>
    </contour>
    <contour>
      <point x="560" y="-212" type="move" name="blwm"/>
    </contour>
    <contour>
      <point x="394" y="-212" type="move" name="haln"/>
    </contour>
  </outline>
</glyph>
<glyph name="bn_d_ra" format="1">
  <advance width="676"/>
  <outline>
    <contour>
      <point x="529" y="-70" type="line"/>
      <point x="479" y="20"/>
      <point x="435" y="70"/>
      <point x="367" y="70" type="curve" smooth="yes"/>
      <point x="315" y="70"/>
      <point x="223" y="31"/>
      <point x="183" y="31" type="curve" smooth="yes"/>
      <point x="145" y="31"/>
      <point x="116" y="58"/>
      <point x="116" y="100" type="curve" smooth="yes"/>
      <point x="116" y="116"/>
      <point x="121" y="134"/>
      <point x="126" y="150" type="curve"/>
      <point x="101" y="160"/>
      <point x="64" y="167"/>
      <point x="27" y="167" type="curve"/>
      <point x="10" y="133"/>
      <point x="-2" y="92"/>
      <point x="-2" y="48" type="curve" smooth="yes"/>
      <point x="-2" y="-47"/>
      <point x="70" y="-110"/>
      <point x="183" y="-110" type="curve" smooth="yes"/>
      <point x="260" y="-110"/>
      <point x="326" y="-73"/>
      <point x="395" y="-73" type="curve" smooth="yes"/>
      <point x="456" y="-73"/>
      <point x="477" y="-95"/>
      <point x="503" y="-120" type="curve"/>
    </contour>
    <contour>
      <point x="536" y="-120"/>
      <point x="605" y="-106"/>
      <point x="632" y="-90" type="curve"/>
      <point x="617" y="-5"/>
      <point x="610" y="73"/>
      <point x="610" y="147" type="curve" smooth="yes"/>
      <point x="610" y="231"/>
      <point x="624" y="306"/>
      <point x="645" y="378" type="curve"/>
      <point x="601" y="436"/>
      <point x="557" y="473"/>
      <point x="497" y="496" type="curve"/>
      <point x="392" y="433"/>
      <point x="292" y="329"/>
      <point x="193" y="166" type="curve"/>
      <point x="341" y="236" type="line"/>
      <point x="349" y="324"/>
      <point x="356" y="413"/>
      <point x="356" y="492" type="curve" smooth="yes"/>
      <point x="356" y="513"/>
      <point x="355" y="533"/>
      <point x="354" y="552" type="curve"/>
      <point x="237" y="538" type="line"/>
      <point x="234" y="420"/>
      <point x="209" y="280"/>
      <point x="170" y="158" type="curve"/>
      <point x="206" y="132"/>
      <point x="280" y="110"/>
      <point x="334" y="104" type="curve"/>
      <point x="389" y="196"/>
      <point x="486" y="299"/>
      <point x="582" y="357" type="curve"/>
      <point x="528" y="359" type="line"/>
      <point x="499" y="283"/>
      <point x="483" y="188"/>
      <point x="483" y="97" type="curve" smooth="yes"/>
      <point x="483" y="23"/>
      <point x="490" y="-52"/>
      <point x="503" y="-120" type="curve"/>
    </contour>
    <contour>
      <point x="76.6827923939" y="519.787633728"/>
      <point x="187.488262911" y="531.0"/>
      <point x="326" y="531" type="curve" smooth="yes"/>
      <point x="446.4" y="531.0"/>
      <point x="602.994844938" y="523.284380582"/>
      <point x="676" y="504" type="curve"/>
      <point x="681" y="522"/>
      <point x="685" y="552"/>
      <point x="685" y="582" type="curve" smooth="yes"/>
      <point x="685" y="604"/>
      <point x="682" y="625"/>
      <point x="676" y="639" type="curve"/>
      <point x="610.374616925" y="662.242323172"/>
      <point x="449.552845528" y="670.0"/>
      <point x="330" y="670" type="curve" smooth="yes"/>
      <point x="191.093023256" y="670.0"/>
      <point x="75.5283533459" y="658.16391055"/>
      <point x="0" y="639" type="curve"/>
      <point x="-8" y="626"/>
      <point x="-11" y="605"/>
      <point x="-11" y="582" type="curve" smooth="yes"/>
      <point x="-11" y="554"/>
      <point x="-6" y="523"/>
      <point x="0" y="504" type="curve"/>
    </contour>
    <contour>
      <point x="292" y="690" type="move" name="reph"/>
    </contour>
    <contour>
      <point x="292" y="690" type="move" name="chandrabindu"/>
    </contour>
    <contour>
      <point x="445" y="-60" type="move" name="blwm"/>
    </contour>
    <contour>
      <point x="351" y="-58" type="move" name="haln"/>
    </contour>
  </outline>
</glyph>
<glyph name="bn_da_ukaar" format="1">
  <advance width="540"/>
  <outline>
    <contour>
      <point x="498" y="-176" type="curve"/>
      <point x="311" y="-45" type="line"/>
      <point x="271" y="-142" type="line"/>
      <point x="434" y="-264" type="line"/>
      <point x="461" y="-238"/>
      <point x="484" y="-206"/>
    </contour>
    <contour>
      <point x="290" y="531" type="curve" smooth="yes"/>
      <point x="376" y="531"/>
      <point x="487" y="518"/>
      <point x="540" y="504" type="curve"/>
      <point x="545" y="522"/>
      <point x="549" y="552"/>
      <point x="549" y="582" type="curve" smooth="yes"/>
      <point x="549" y="604"/>
      <point x="546" y="625"/>
      <point x="540" y="639" type="curve"/>
      <point x="492" y="656"/>
      <point x="379" y="670"/>
      <point x="294" y="670" type="curve" smooth="yes"/>
      <point x="170" y="670"/>
      <point x="67" y="656"/>
      <point x="0" y="639" type="curve"/>
      <point x="-8" y="626"/>
      <point x="-11" y="605"/>
      <point x="-11" y="582" type="curve" smooth="yes"/>
      <point x="-11" y="554"/>
      <point x="-6" y="523"/>
      <point x="0" y="504" type="curve"/>
      <point x="68" y="518"/>
      <point x="167" y="531"/>
    </contour>
    <contour>
      <point x="509" y="378" type="curve"/>
      <point x="465" y="436"/>
      <point x="421" y="473"/>
      <point x="361" y="496" type="curve"/>
      <point x="256" y="433"/>
      <point x="156" y="329"/>
      <point x="57" y="166" type="curve"/>
      <point x="205" y="236" type="line"/>
      <point x="213" y="324"/>
      <point x="220" y="413"/>
      <point x="220" y="492" type="curve" smooth="yes"/>
      <point x="220" y="513"/>
      <point x="219" y="533"/>
      <point x="218" y="552" type="curve"/>
      <point x="101" y="538" type="line"/>
      <point x="98" y="420"/>
      <point x="73" y="280"/>
      <point x="34" y="158" type="curve"/>
      <point x="70" y="132"/>
      <point x="144" y="110"/>
      <point x="198" y="104" type="curve"/>
      <point x="253" y="196"/>
      <point x="350" y="299"/>
      <point x="446" y="357" type="curve"/>
      <point x="367" y="346" type="line"/>
      <point x="335" y="10"/>
      <point x="269.546610169" y="-153.0"/>
      <point x="156" y="-153" type="curve" smooth="yes"/>
      <point x="131" y="-153"/>
      <point x="112" y="-140"/>
      <point x="112" y="-119" type="curve" smooth="yes"/>
      <point x="112" y="-99"/>
      <point x="129" y="-86"/>
      <point x="156" y="-86" type="curve" smooth="yes"/>
      <point x="188" y="-86"/>
      <point x="223" y="-110"/>
      <point x="254" y="-149" type="curve"/>
      <point x="303" y="-61" type="line"/>
      <point x="265.0" y="-12.0"/>
      <point x="224.0" y="25.0"/>
      <point x="166" y="25" type="curve" smooth="yes"/>
      <point x="94" y="25"/>
      <point x="36" y="-34"/>
      <point x="36" y="-113" type="curve" smooth="yes"/>
      <point x="36" y="-202"/>
      <point x="92" y="-260"/>
      <point x="183" y="-260" type="curve" smooth="yes"/>
      <point x="384" y="-260"/>
      <point x="476" y="-19"/>
    </contour>
    <contour>
      <point x="256" y="690" type="move" name="reph"/>
    </contour>
    <contour>
      <point x="256" y="690" type="move" name="chandrabindu"/>
    </contour>
    <contour>
      <point x="154" y="-250" type="move" name="haln"/>
    </contour>
  </outline>
</glyph>
<glyph name="bn_da_uukaar" format="1">
  <advance width="540"/>
  <outline>
    <contour>
      <point x="68" y="518"/>
      <point x="167" y="531"/>
      <point x="290" y="531" type="curve" smooth="yes"/>
      <point x="376" y="531"/>
      <point x="487" y="518"/>
      <point x="540" y="504" type="curve"/>
      <point x="545" y="522"/>
      <point x="549" y="552"/>
      <point x="549" y="582" type="curve" smooth="yes"/>
      <point x="549" y="604"/>
      <point x="546" y="625"/>
      <point x="540" y="639" type="curve"/>
      <point x="492" y="656"/>
      <point x="379" y="670"/>
      <point x="294" y="670" type="curve" smooth="yes"/>
      <point x="170" y="670"/>
      <point x="67" y="656"/>
      <point x="0" y="639" type="curve"/>
      <point x="-8" y="626"/>
      <point x="-11" y="605"/>
      <point x="-11" y="582" type="curve" smooth="yes"/>
      <point x="-11" y="554"/>
      <point x="-6" y="523"/>
      <point x="0" y="504" type="curve"/>
    </contour>
    <contour>
      <point x="396" y="-65" type="line"/>
      <point x="328" y="24"/>
      <point x="290" y="68"/>
      <point x="200" y="68" type="curve" smooth="yes"/>
      <point x="109" y="68"/>
      <point x="36" y="-6"/>
      <point x="36" y="-103" type="curve" smooth="yes"/>
      <point x="36" y="-198"/>
      <point x="92" y="-260"/>
      <point x="183" y="-260" type="curve" smooth="yes"/>
      <point x="260" y="-260"/>
      <point x="306" y="-247"/>
      <point x="340" y="-178" type="curve"/>
      <point x="240" y="-192" type="line"/>
      <point x="434" y="-264" type="line"/>
      <point x="461" y="-238"/>
      <point x="484" y="-206"/>
      <point x="498" y="-176" type="curve"/>
      <point x="252" y="-96" type="line"/>
      <point x="233" y="-138"/>
      <point x="196" y="-153"/>
      <point x="156" y="-153" type="curve" smooth="yes"/>
      <point x="131" y="-153"/>
      <point x="112" y="-136"/>
      <point x="112" y="-109" type="curve" smooth="yes"/>
      <point x="112" y="-75"/>
      <point x="156" y="-52"/>
      <point x="225" y="-52" type="curve" smooth="yes"/>
      <point x="273" y="-52"/>
      <point x="337" y="-66"/>
      <point x="404" y="-89" type="curve"/>
      <point x="448" y="36"/>
      <point x="492" y="176"/>
      <point x="509" y="378" type="curve"/>
      <point x="465" y="436"/>
      <point x="421" y="473"/>
      <point x="361" y="496" type="curve"/>
      <point x="256" y="433"/>
      <point x="156" y="329"/>
      <point x="57" y="166" type="curve"/>
      <point x="205" y="236" type="line"/>
      <point x="213" y="324"/>
      <point x="220" y="413"/>
      <point x="220" y="492" type="curve" smooth="yes"/>
      <point x="220" y="513"/>
      <point x="219" y="533"/>
      <point x="218" y="552" type="curve"/>
      <point x="101" y="538" type="line"/>
      <point x="98" y="420"/>
      <point x="73" y="280"/>
      <point x="34" y="158" type="curve"/>
      <point x="70" y="132"/>
      <point x="144" y="110"/>
      <point x="198" y="104" type="curve"/>
      <point x="253" y="196"/>
      <point x="350" y="299"/>
      <point x="446" y="357" type="curve"/>
      <point x="367" y="346" type="line"/>
      <point x="353" y="195"/>
      <point x="332" y="79"/>
      <point x="302" y="-3" type="curve"/>
    </contour>
    <contour>
      <point x="256" y="690" type="move" name="reph"/>
    </contour>
    <contour>
      <point x="256" y="690" type="move" name="chandrabindu"/>
    </contour>
    <contour>
      <point x="154" y="-250" type="move" name="haln"/>
    </contour>
  </outline>
</glyph>
<glyph name="bn_dd_ra" format="1">
  <advance width="627"/>
  <outline>
    <contour>
      <point x="430" y="-248"/>
      <point x="475" y="-242"/>
      <point x="513" y="-228" type="curve"/>
      <point x="518" y="-139"/>
      <point x="521" y="-43"/>
      <point x="521" y="40" type="curve"/>
      <point x="393" y="28" type="line"/>
      <point x="391" y="-47"/>
      <point x="384" y="-117"/>
      <point x="376" y="-174" type="curve"/>
      <point x="429" y="-219" type="line"/>
      <point x="375" y="-122"/>
      <point x="335" y="-65"/>
      <point x="266" y="-65" type="curve" smooth="yes"/>
      <point x="227" y="-65"/>
      <point x="158" y="-83"/>
      <point x="127" y="-83" type="curve" smooth="yes"/>
      <point x="100" y="-83"/>
      <point x="80" y="-64"/>
      <point x="80" y="-34" type="curve" smooth="yes"/>
      <point x="80" y="-18"/>
      <point x="85" y="0"/>
      <point x="90" y="16" type="curve"/>
      <point x="65" y="26"/>
      <point x="28" y="33"/>
      <point x="-9" y="33" type="curve"/>
      <point x="-26" y="-1"/>
      <point x="-38" y="-42"/>
      <point x="-38" y="-86" type="curve" smooth="yes"/>
      <point x="-38" y="-169"/>
      <point x="26" y="-224"/>
      <point x="127" y="-224" type="curve" smooth="yes"/>
      <point x="187" y="-224"/>
      <point x="239" y="-208"/>
      <point x="294" y="-208" type="curve" smooth="yes"/>
      <point x="348" y="-208"/>
      <point x="366" y="-228"/>
      <point x="389" y="-250" type="curve"/>
    </contour>
    <contour>
      <point x="530" y="-39"/>
      <point x="605" y="67"/>
      <point x="605" y="218" type="curve" smooth="yes"/>
      <point x="605" y="286"/>
      <point x="590" y="352"/>
      <point x="566" y="402" type="curve"/>
      <point x="528" y="420"/>
      <point x="481" y="436"/>
      <point x="442" y="445" type="curve"/>
      <point x="413" y="385"/>
      <point x="384" y="331"/>
      <point x="362" y="331" type="curve" smooth="yes"/>
      <point x="354" y="331"/>
      <point x="345" y="337"/>
      <point x="345" y="353" type="curve" smooth="yes"/>
      <point x="345" y="383"/>
      <point x="376" y="500"/>
      <point x="407" y="577" type="curve"/>
      <point x="251" y="613" type="line"/>
      <point x="235" y="546"/>
      <point x="222" y="463"/>
      <point x="222" y="419" type="curve" smooth="yes"/>
      <point x="222" y="322"/>
      <point x="286" y="198"/>
      <point x="399" y="198" type="curve" smooth="yes"/>
      <point x="474" y="198"/>
      <point x="512" y="249"/>
      <point x="541" y="305" type="curve"/>
      <point x="496" y="349" type="line"/>
      <point x="502" y="320"/>
      <point x="507" y="286"/>
      <point x="507" y="255" type="curve" smooth="yes"/>
      <point x="507" y="177"/>
      <point x="476" y="124"/>
      <point x="398" y="124" type="curve" smooth="yes"/>
      <point x="268" y="124"/>
      <point x="176" y="270"/>
      <point x="116" y="460" type="curve"/>
      <point x="79" y="448"/>
      <point x="44" y="433"/>
      <point x="10" y="414" type="curve"/>
      <point x="59" y="224"/>
      <point x="158" y="-39"/>
      <point x="386" y="-39" type="curve" smooth="yes"/>
    </contour>
    <contour>
      <point x="80" y="521"/>
      <point x="184" y="535"/>
      <point x="315" y="535" type="curve" smooth="yes"/>
      <point x="442" y="535"/>
      <point x="547" y="522"/>
      <point x="627" y="504" type="curve"/>
      <point x="634" y="525"/>
      <point x="638" y="558"/>
      <point x="638" y="584" type="curve" smooth="yes"/>
      <point x="638" y="606"/>
      <point x="635" y="626"/>
      <point x="627" y="639" type="curve"/>
      <point x="550" y="658"/>
      <point x="445" y="674"/>
      <point x="314" y="674" type="curve" smooth="yes"/>
      <point x="183" y="674"/>
      <point x="78" y="658"/>
      <point x="0" y="639" type="curve"/>
      <point x="-8" y="626"/>
      <point x="-11" y="604"/>
      <point x="-11" y="581" type="curve" smooth="yes"/>
      <point x="-11" y="553"/>
      <point x="-6" y="521"/>
      <point x="0" y="504" type="curve"/>
    </contour>
    <contour>
      <point x="380" y="690" type="move" name="reph"/>
    </contour>
    <contour>
      <point x="380" y="690" type="move" name="chandrabindu"/>
    </contour>
    <contour>
      <point x="437" y="-222" type="move" name="blwm"/>
    </contour>
    <contour>
      <point x="246" y="-213" type="move" name="haln"/>
    </contour>
  </outline>
</glyph>
<glyph name="bn_ddha.half" format="1">
  <advance width="522"/>
  <outline>
    <contour>
      <point x="374" y="140"/>
      <point x="496" y="249"/>
      <point x="496" y="351" type="curve" smooth="yes"/>
      <point x="496.0" y="431.6"/>
      <point x="422.0" y="475.0"/>
      <point x="344" y="475" type="curve" smooth="yes"/>
      <point x="313" y="475"/>
      <point x="295" y="471"/>
      <point x="283" y="466" type="curve"/>
      <point x="259.560370019" y="443.579484366"/>
      <point x="242.0" y="398.425742574"/>
      <point x="242" y="361" type="curve" smooth="yes"/>
      <point x="242" y="356"/>
      <point x="243" y="349"/>
      <point x="244" y="347" type="curve"/>
      <point x="256" y="354"/>
      <point x="273" y="359"/>
      <point x="292" y="359" type="curve" smooth="yes"/>
      <point x="312" y="359"/>
      <point x="325" y="348"/>
      <point x="325" y="327" type="curve" smooth="yes"/>
      <point x="325.0" y="294.666666667"/>
      <point x="277.633333333" y="230.0"/>
      <point x="238" y="230" type="curve" smooth="yes"/>
      <point x="219" y="230"/>
      <point x="210" y="240"/>
      <point x="210" y="265" type="curve" smooth="yes"/>
      <point x="210.0" y="378.225433526"/>
      <point x="233.297171818" y="510.765982698"/>
      <point x="263" y="597" type="curve"/>
      <point x="102" y="645" type="line"/>
      <point x="79" y="542"/>
      <point x="59" y="412"/>
      <point x="59" y="287" type="curve" smooth="yes"/>
      <point x="59" y="197"/>
      <point x="144" y="140"/>
      <point x="249" y="140" type="curve" smooth="yes"/>
    </contour>
    <contour>
      <point x="52" y="517"/>
      <point x="143" y="531"/>
      <point x="256" y="531" type="curve" smooth="yes"/>
      <point x="345" y="531"/>
      <point x="453" y="518"/>
      <point x="522" y="504" type="curve"/>
      <point x="529" y="521"/>
      <point x="533" y="549"/>
      <point x="533" y="574" type="curve" smooth="yes"/>
      <point x="533" y="600"/>
      <point x="530" y="624"/>
      <point x="522" y="639" type="curve"/>
      <point x="454" y="657"/>
      <point x="343" y="670"/>
      <point x="253" y="670" type="curve" smooth="yes"/>
      <point x="141" y="670"/>
      <point x="49" y="656"/>
      <point x="0" y="639" type="curve"/>
      <point x="-5" y="623"/>
      <point x="-8" y="597"/>
      <point x="-8" y="572" type="curve" smooth="yes"/>
      <point x="-8" y="546"/>
      <point x="-4" y="520"/>
      <point x="0" y="504" type="curve"/>
    </contour>
  </outline>
</glyph>
<glyph name="bn_dh_ba" format="1">
  <advance width="995"/>
  <outline>
    <contour>
      <point x="813" y="29" type="line"/>
      <point x="784" y="124"/>
      <point x="701" y="200"/>
      <point x="619" y="248" type="curve"/>
      <point x="606" y="191" type="line"/>
      <point x="674" y="259"/>
      <point x="774" y="317"/>
      <point x="856" y="343" type="curve"/>
      <point x="824" y="516" type="line"/>
      <point x="672" y="462"/>
      <point x="567" y="396"/>
      <point x="489" y="315" type="curve"/>
      <point x="493" y="250"/>
      <point x="514" y="196"/>
      <point x="554" y="135" type="curve"/>
      <point x="646" y="116"/>
      <point x="727" y="65"/>
      <point x="787" y="-37" type="curve"/>
    </contour>
    <contour>
      <point x="954" y="-4" type="curve"/>
      <point x="934" y="68"/>
      <point x="926" y="170"/>
      <point x="926" y="303" type="curve" smooth="yes"/>
      <point x="926" y="379"/>
      <point x="931" y="455"/>
      <point x="937" y="530" type="curve"/>
      <point x="829" y="560" type="line"/>
      <point x="792" y="392"/>
      <point x="780" y="282"/>
      <point x="780" y="107" type="curve" smooth="yes"/>
      <point x="780" y="50"/>
      <point x="781" y="-4"/>
      <point x="787" y="-37" type="curve"/>
      <point x="839" y="-37"/>
      <point x="909" y="-28"/>
    </contour>
    <contour>
      <point x="370" y="29" type="line"/>
      <point x="342" y="131"/>
      <point x="261" y="213"/>
      <point x="181" y="265" type="curve"/>
      <point x="168" y="208" type="line"/>
      <point x="238" y="259"/>
      <point x="339" y="303"/>
      <point x="423" y="323" type="curve"/>
      <point x="391" y="496" type="line"/>
      <point x="237" y="452"/>
      <point x="130" y="398"/>
      <point x="51" y="332" type="curve"/>
      <point x="55" y="267"/>
      <point x="76" y="213"/>
      <point x="116" y="152" type="curve"/>
      <point x="206" y="131"/>
      <point x="285" y="75"/>
      <point x="344" y="-37" type="curve"/>
    </contour>
    <contour>
      <point x="277" y="458" type="line"/>
      <point x="254" y="450"/>
      <point x="236" y="441"/>
      <point x="216" y="441" type="curve" smooth="yes"/>
      <point x="187" y="441"/>
      <point x="152" y="460"/>
      <point x="152" y="492" type="curve" smooth="yes"/>
      <point x="152" y="519"/>
      <point x="166" y="534"/>
      <point x="186" y="534" type="curve" smooth="yes"/>
      <point x="206" y="534"/>
      <point x="226" y="520"/>
      <point x="228" y="494" type="curve"/>
      <point x="271" y="511"/>
      <point x="302" y="535"/>
      <point x="335" y="577" type="curve"/>
      <point x="306" y="630"/>
      <point x="250" y="670"/>
      <point x="187" y="670" type="curve" smooth="yes"/>
      <point x="80" y="670"/>
      <point x="26" y="606"/>
      <point x="26" y="515" type="curve" smooth="yes"/>
      <point x="26" y="414"/>
      <point x="134" y="359"/>
      <point x="250" y="359" type="curve"/>
    </contour>
    <contour>
      <point x="748" y="531" type="curve" smooth="yes"/>
      <point x="826" y="531"/>
      <point x="932" y="518"/>
      <point x="995" y="504" type="curve"/>
      <point x="1001" y="521"/>
      <point x="1006" y="549"/>
      <point x="1006" y="577" type="curve" smooth="yes"/>
      <point x="1006" y="601"/>
      <point x="1002" y="624"/>
      <point x="995" y="639" type="curve"/>
      <point x="939" y="656"/>
      <point x="832" y="670"/>
      <point x="752" y="670" type="curve" smooth="yes"/>
      <point x="642.236724166" y="670.0"/>
      <point x="525" y="646"/>
      <point x="444" y="610" type="curve" smooth="yes"/>
      <point x="407" y="593"/>
      <point x="390" y="567"/>
      <point x="381" y="509" type="curve" smooth="yes"/>
      <point x="363" y="391"/>
      <point x="347" y="268"/>
      <point x="347" y="80" type="curve" smooth="yes"/>
      <point x="347" y="35"/>
      <point x="347" y="-4"/>
      <point x="344" y="-37" type="curve"/>
      <point x="396" y="-37"/>
      <point x="466" y="-28"/>
      <point x="511" y="-4" type="curve"/>
      <point x="498" y="68"/>
      <point x="493" y="170"/>
      <point x="493" y="303" type="curve" smooth="yes"/>
      <point x="493" y="326"/>
      <point x="494" y="388"/>
      <point x="498" y="442" type="curve" smooth="yes"/>
      <point x="500" y="469"/>
      <point x="502" y="484"/>
      <point x="518" y="490" type="curve" smooth="yes"/>
      <point x="594.413048288" y="520.565219315"/>
      <point x="664.912893618" y="531.0"/>
    </contour>
  </outline>
</glyph>
<glyph name="bn_g_da" format="1">
  <advance width="884"/>
  <outline>
    <contour>
      <point x="428" y="367" type="curve"/>
      <point x="478" y="338" type="line"/>
      <point x="478" y="518"/>
      <point x="402" y="657"/>
      <point x="276" y="657" type="curve" smooth="yes"/>
      <point x="165" y="657"/>
      <point x="95" y="570"/>
      <point x="95" y="462" type="curve" smooth="yes"/>
      <point x="95" y="442"/>
      <point x="99" y="421"/>
      <point x="104" y="401" type="curve"/>
      <point x="150" y="329" type="line"/>
      <point x="204" y="364"/>
      <point x="258" y="384"/>
      <point x="298" y="384" type="curve" smooth="yes"/>
      <point x="306" y="384"/>
      <point x="311" y="381"/>
      <point x="311" y="372" type="curve" smooth="yes"/>
      <point x="311" y="356"/>
      <point x="278" y="327"/>
      <point x="159" y="282" type="curve"/>
      <point x="181" y="246"/>
      <point x="205" y="211"/>
      <point x="248" y="183" type="curve"/>
      <point x="336" y="223"/>
      <point x="399" y="297"/>
      <point x="399" y="344" type="curve" smooth="yes"/>
      <point x="399" y="423"/>
      <point x="342" y="483"/>
      <point x="276" y="483" type="curve" smooth="yes"/>
      <point x="220" y="483"/>
      <point x="174" y="456"/>
      <point x="137" y="428" type="curve"/>
      <point x="240" y="423" type="line"/>
      <point x="221" y="437"/>
      <point x="209" y="458"/>
      <point x="209" y="475" type="curve" smooth="yes"/>
      <point x="209" y="507"/>
      <point x="243" y="521"/>
      <point x="289" y="521" type="curve" smooth="yes"/>
      <point x="351" y="521"/>
      <point x="428" y="466"/>
    </contour>
    <contour>
      <point x="447" y="552" type="curve"/>
      <point x="444" y="431"/>
      <point x="411" y="285"/>
      <point x="378" y="158" type="curve"/>
      <point x="414" y="132"/>
      <point x="488" y="110"/>
      <point x="542" y="104" type="curve"/>
      <point x="597" y="196"/>
      <point x="694" y="299"/>
      <point x="790" y="357" type="curve"/>
      <point x="736" y="359" type="line"/>
      <point x="707" y="283"/>
      <point x="691" y="188"/>
      <point x="691" y="97" type="curve" smooth="yes"/>
      <point x="691" y="51"/>
      <point x="696" y="5"/>
      <point x="704" y="-37" type="curve"/>
      <point x="737" y="-37"/>
      <point x="806" y="-23"/>
      <point x="833" y="-7" type="curve"/>
      <point x="823" y="48"/>
      <point x="818" y="99"/>
      <point x="818" y="147" type="curve" smooth="yes"/>
      <point x="818" y="231"/>
      <point x="832" y="306"/>
      <point x="853" y="378" type="curve"/>
      <point x="809" y="436"/>
      <point x="765" y="473"/>
      <point x="705" y="496" type="curve"/>
      <point x="600" y="433"/>
      <point x="500" y="329"/>
      <point x="401" y="166" type="curve"/>
      <point x="567" y="244" type="line"/>
      <point x="567" y="340"/>
      <point x="562" y="384"/>
      <point x="576" y="470" type="curve" smooth="yes"/>
      <point x="581.333333333" y="507.333333333"/>
      <point x="630" y="534"/>
      <point x="695" y="533" type="curve"/>
      <point x="760" y="533"/>
      <point x="811" y="524"/>
      <point x="884" y="504" type="curve"/>
      <point x="889" y="522"/>
      <point x="893" y="552"/>
      <point x="893" y="582" type="curve" smooth="yes"/>
      <point x="893" y="604"/>
      <point x="890" y="625"/>
      <point x="884" y="639" type="curve"/>
      <point x="823.079508231" y="657.813681282"/>
      <point x="772" y="669"/>
      <point x="691" y="669" type="curve" smooth="yes"/>
      <point x="590.259846996" y="669.0"/>
      <point x="467.793200501" y="645.569402257"/>
    </contour>
    <contour>
      <point x="552" y="690" type="move" name="reph"/>
    </contour>
    <contour>
      <point x="552" y="690" type="move" name="chandrabindu"/>
    </contour>
    <contour>
      <point x="756" y="0" type="move" name="blwm"/>
    </contour>
    <contour>
      <point x="595" y="0" type="move" name="haln"/>
    </contour>
  </outline>
</glyph>
<glyph name="bn_g_dha" format="1">
  <advance width="817"/>
  <outline>
    <contour>
      <point x="480" y="-149" type="line"/>
      <point x="460" y="-100"/>
      <point x="343" y="-40"/>
      <point x="276" y="-4" type="curve"/>
      <point x="259" y="-52" type="line"/>
      <point x="335.945786546" y="-2.08921953785"/>
      <point x="445" y="31"/>
      <point x="535" y="48" type="curve"/>
      <point x="441" y="169" type="line"/>
      <point x="329" y="140"/>
      <point x="247.625306571" y="104.958562045"/>
      <point x="182" y="56" type="curve"/>
      <point x="171" y="-2"/>
      <point x="176" y="-48"/>
      <point x="197" y="-94" type="curve"/>
      <point x="276" y="-101"/>
      <point x="408" y="-147"/>
      <point x="448" y="-204" type="curve"/>
    </contour>
    <contour>
      <point x="807" y="-133" type="curve"/>
      <point x="781" y="-72"/>
      <point x="773" y="-16"/>
      <point x="773" y="55" type="curve" smooth="yes"/>
      <point x="773" y="79"/>
      <point x="779" y="103"/>
      <point x="782" y="131" type="curve"/>
      <point x="696" y="240" type="line"/>
      <point x="652" y="227"/>
      <point x="610" y="222"/>
      <point x="567" y="205" type="curve"/>
      <point x="559" y="55" type="line"/>
      <point x="611" y="75"/>
      <point x="668" y="83"/>
      <point x="716" y="96" type="curve"/>
      <point x="669" y="143" type="line"/>
      <point x="665" y="98"/>
      <point x="657" y="55"/>
      <point x="657" y="15" type="curve" smooth="yes"/>
      <point x="657" y="-44"/>
      <point x="659" y="-97"/>
      <point x="672" y="-152" type="curve"/>
      <point x="724" y="-152"/>
      <point x="774" y="-144"/>
    </contour>
    <contour>
      <point x="459" y="523" type="curve" smooth="yes"/>
      <point x="437" y="417"/>
      <point x="429.0" y="275.0"/>
      <point x="429" y="112" type="curve" smooth="yes"/>
      <point x="429" y="49"/>
      <point x="442" y="-171"/>
      <point x="448" y="-204" type="curve"/>
      <point x="506" y="-204"/>
      <point x="571" y="-186"/>
      <point x="609" y="-158" type="curve"/>
      <point x="593" y="-92"/>
      <point x="575" y="161"/>
      <point x="575" y="288" type="curve" smooth="yes"/>
      <point x="575.0" y="354.947368421"/>
      <point x="574" y="377"/>
      <point x="583" y="450" type="curve" smooth="yes"/>
      <point x="585" y="465"/>
      <point x="596" y="480"/>
      <point x="628" y="482" type="curve" smooth="yes"/>
      <point x="648" y="483"/>
      <point x="669" y="484"/>
      <point x="685" y="486" type="curve" smooth="yes"/>
      <point x="735" y="491"/>
      <point x="778" y="499"/>
      <point x="817" y="504" type="curve"/>
      <point x="823" y="523"/>
      <point x="828" y="552"/>
      <point x="828" y="576" type="curve" smooth="yes"/>
      <point x="828" y="603"/>
      <point x="824" y="626"/>
      <point x="817" y="639" type="curve"/>
      <point x="769" y="632"/>
      <point x="703" y="613"/>
      <point x="665" y="609" type="curve" smooth="yes"/>
      <point x="633" y="606"/>
      <point x="606" y="602"/>
      <point x="571" y="600" type="curve" smooth="yes"/>
      <point x="513" y="596"/>
      <point x="470" y="574"/>
    </contour>
    <contour>
      <point x="435" y="335" type="curve"/>
      <point x="485" y="303" type="line"/>
      <point x="485" y="502"/>
      <point x="409" y="657"/>
      <point x="283" y="657" type="curve" smooth="yes"/>
      <point x="172" y="657"/>
      <point x="102" y="560"/>
      <point x="102" y="440" type="curve" smooth="yes"/>
      <point x="102" y="418"/>
      <point x="106" y="395"/>
      <point x="111" y="373" type="curve"/>
      <point x="157" y="293" type="line"/>
      <point x="211" y="331"/>
      <point x="265" y="354"/>
      <point x="305" y="354" type="curve" smooth="yes"/>
      <point x="313" y="354"/>
      <point x="318" y="350"/>
      <point x="318" y="340" type="curve" smooth="yes"/>
      <point x="318.0" y="323.193277311"/>
      <point x="285" y="290"/>
      <point x="166" y="240" type="curve"/>
      <point x="188" y="200"/>
      <point x="212.499885462" y="160.512902745"/>
      <point x="255" y="130" type="curve"/>
      <point x="343" y="175"/>
      <point x="406.0" y="256.791666667"/>
      <point x="406" y="309" type="curve" smooth="yes"/>
      <point x="406" y="397"/>
      <point x="349" y="464"/>
      <point x="283" y="464" type="curve" smooth="yes"/>
      <point x="227" y="464"/>
      <point x="181" y="434"/>
      <point x="144" y="402" type="curve"/>
      <point x="247" y="397" type="line"/>
      <point x="228" y="413"/>
      <point x="216" y="436"/>
      <point x="216" y="455" type="curve" smooth="yes"/>
      <point x="216" y="490"/>
      <point x="250" y="506"/>
      <point x="296" y="506" type="curve" smooth="yes"/>
      <point x="358" y="506"/>
      <point x="435" y="445"/>
    </contour>
    <contour>
      <point x="519" y="-177" type="move" name="blwm"/>
    </contour>
    <contour>
      <point x="347" y="-177" type="move" name="haln"/>
    </contour>
    <contour>
      <point x="514" y="690" type="move" name="reph"/>
    </contour>
    <contour>
      <point x="514" y="690" type="move" name="chandrabindu"/>
    </contour>
  </outline>
</glyph>
<glyph name="bn_g_ga" format="1">
  <advance width="673"/>
  <outline>
    <contour>
      <point x="448" y="-204" type="curve"/>
      <point x="480" y="-172" type="line"/>
      <point x="443.440493515" y="61.7197021727"/>
      <point x="403.5" y="208.0"/>
      <point x="276" y="208" type="curve" smooth="yes"/>
      <point x="165" y="208"/>
      <point x="95" y="124"/>
      <point x="95" y="20" type="curve" smooth="yes"/>
      <point x="95" y="1"/>
      <point x="99" y="-19"/>
      <point x="104" y="-39" type="curve"/>
      <point x="150" y="-108" type="line"/>
      <point x="204" y="-75"/>
      <point x="258" y="-55"/>
      <point x="298" y="-55" type="curve" smooth="yes"/>
      <point x="306" y="-55"/>
      <point x="311" y="-59"/>
      <point x="311" y="-67" type="curve" smooth="yes"/>
      <point x="311" y="-82"/>
      <point x="278" y="-111"/>
      <point x="159" y="-154" type="curve"/>
      <point x="181" y="-189"/>
      <point x="205" y="-223"/>
      <point x="248" y="-250" type="curve"/>
      <point x="336" y="-210"/>
      <point x="399" y="-139"/>
      <point x="399" y="-94" type="curve" smooth="yes"/>
      <point x="399" y="-18"/>
      <point x="342" y="40"/>
      <point x="276" y="40" type="curve" smooth="yes"/>
      <point x="220" y="40"/>
      <point x="174" y="14"/>
      <point x="137" y="-13" type="curve"/>
      <point x="240" y="-18" type="line"/>
      <point x="221" y="-4"/>
      <point x="209" y="16"/>
      <point x="209" y="33" type="curve" smooth="yes"/>
      <point x="209" y="63"/>
      <point x="243" y="77"/>
      <point x="289" y="77" type="curve" smooth="yes"/>
      <point x="359.920863309" y="77.0"/>
      <point x="429" y="14"/>
    </contour>
    <contour>
      <point x="448" y="-204" type="curve"/>
      <point x="506" y="-204"/>
      <point x="571" y="-186"/>
      <point x="609" y="-158" type="curve"/>
      <point x="593" y="-92"/>
      <point x="575" y="161"/>
      <point x="575" y="288" type="curve" smooth="yes"/>
      <point x="575" y="352"/>
      <point x="574" y="376"/>
      <point x="583" y="440" type="curve" smooth="yes"/>
      <point x="587" y="468"/>
      <point x="612" y="485"/>
      <point x="642" y="494" type="curve" smooth="yes"/>
      <point x="652" y="497"/>
      <point x="665" y="501"/>
      <point x="673" y="504" type="curve"/>
      <point x="679" y="523"/>
      <point x="684" y="555"/>
      <point x="684" y="579" type="curve" smooth="yes"/>
      <point x="684" y="606"/>
      <point x="680" y="626"/>
      <point x="673" y="639" type="curve"/>
      <point x="626" y="631"/>
      <point x="582" y="621"/>
      <point x="536" y="604" type="curve" smooth="yes"/>
      <point x="489" y="587"/>
      <point x="464" y="567"/>
      <point x="454" y="522" type="curve" smooth="yes"/>
      <point x="431" y="417"/>
      <point x="429" y="275"/>
      <point x="429" y="112" type="curve" smooth="yes"/>
      <point x="429" y="49"/>
      <point x="442" y="-171"/>
    </contour>
    <contour>
      <point x="435" y="367" type="curve"/>
      <point x="485" y="338" type="line"/>
      <point x="485" y="518"/>
      <point x="409" y="657"/>
      <point x="283" y="657" type="curve" smooth="yes"/>
      <point x="172" y="657"/>
      <point x="102" y="570"/>
      <point x="102" y="462" type="curve" smooth="yes"/>
      <point x="102" y="442"/>
      <point x="106" y="421"/>
      <point x="111" y="401" type="curve"/>
      <point x="157" y="329" type="line"/>
      <point x="211" y="364"/>
      <point x="265" y="384"/>
      <point x="305" y="384" type="curve" smooth="yes"/>
      <point x="313" y="384"/>
      <point x="318" y="381"/>
      <point x="318" y="372" type="curve" smooth="yes"/>
      <point x="318" y="356"/>
      <point x="285" y="327"/>
      <point x="166" y="282" type="curve"/>
      <point x="188" y="246"/>
      <point x="212" y="211"/>
      <point x="255" y="183" type="curve"/>
      <point x="343" y="223"/>
      <point x="406" y="297"/>
      <point x="406" y="344" type="curve" smooth="yes"/>
      <point x="406" y="423"/>
      <point x="349" y="483"/>
      <point x="283" y="483" type="curve" smooth="yes"/>
      <point x="227" y="483"/>
      <point x="181" y="456"/>
      <point x="144" y="428" type="curve"/>
      <point x="247" y="423" type="line"/>
      <point x="228" y="437"/>
      <point x="216" y="458"/>
      <point x="216" y="475" type="curve" smooth="yes"/>
      <point x="216" y="507"/>
      <point x="250" y="521"/>
      <point x="296" y="521" type="curve" smooth="yes"/>
      <point x="358" y="521"/>
      <point x="435" y="466"/>
    </contour>
    <contour>
      <point x="458.0" y="-100.0" type="move" name="blwm"/>
    </contour>
    <contour>
      <point x="333.0" y="-104.0" type="move" name="haln"/>
    </contour>
    <contour>
      <point x="474.0" y="690.0" type="move" name="reph"/>
    </contour>
    <contour>
      <point x="474.0" y="690.0" type="move" name="chandrabindu"/>
    </contour>
  </outline>
</glyph>
<glyph name="bn_gh_ba" format="1">
  <advance width="550"/>
  <outline>
    <contour>
      <point x="372" y="31" type="line"/>
      <point x="338" y="124"/>
      <point x="291" y="208"/>
      <point x="158" y="244" type="curve"/>
      <point x="160" y="164" type="line"/>
      <point x="319" y="291" type="line"/>
      <point x="310" y="344"/>
      <point x="290" y="412"/>
      <point x="268" y="447" type="curve"/>
      <point x="237" y="413"/>
      <point x="215" y="402"/>
      <point x="196" y="402" type="curve" smooth="yes"/>
      <point x="176" y="402"/>
      <point x="156" y="414"/>
      <point x="156" y="442" type="curve" smooth="yes"/>
      <point x="156" y="473"/>
      <point x="181" y="509"/>
      <point x="260" y="532" type="curve"/>
      <point x="63" y="557" type="line"/>
      <point x="36" y="535"/>
      <point x="24" y="496"/>
      <point x="24" y="461" type="curve" smooth="yes"/>
      <point x="24" y="372"/>
      <point x="104" y="335"/>
      <point x="181" y="335" type="curve" smooth="yes"/>
      <point x="239" y="335"/>
      <point x="258" y="355"/>
      <point x="271" y="369" type="curve"/>
      <point x="159" y="380" type="line"/>
      <point x="48" y="283" type="line"/>
      <point x="46" y="229"/>
      <point x="69" y="168"/>
      <point x="116" y="122" type="curve"/>
      <point x="205.994264094" y="124.999808803"/>
      <point x="305.037770603" y="76.5649349388"/>
      <point x="341" y="-37" type="curve"/>
    </contour>
    <contour>
      <point x="273" y="531" type="curve" smooth="yes"/>
      <point x="381" y="531"/>
      <point x="490" y="518"/>
      <point x="550" y="504" type="curve"/>
      <point x="555" y="521"/>
      <point x="559" y="551"/>
      <point x="559" y="579" type="curve" smooth="yes"/>
      <point x="559" y="602"/>
      <point x="557" y="624"/>
      <point x="550" y="639" type="curve"/>
      <point x="495" y="656"/>
      <point x="390" y="670"/>
      <point x="279" y="670" type="curve" smooth="yes"/>
      <point x="169" y="670"/>
      <point x="68" y="656"/>
      <point x="0" y="639" type="curve"/>
      <point x="-7" y="626"/>
      <point x="-10" y="604"/>
      <point x="-10" y="581" type="curve" smooth="yes"/>
      <point x="-10" y="553"/>
      <point x="-6" y="523"/>
      <point x="0" y="504" type="curve"/>
      <point x="69" y="518"/>
      <point x="166" y="531"/>
    </contour>
    <contour>
      <point x="516" y="-228" type="curve"/>
      <point x="484.084972802" y="-101.33723581"/>
      <point x="474.0" y="85.7739872068"/>
      <point x="474" y="292" type="curve" smooth="yes"/>
      <point x="474" y="385"/>
      <point x="477" y="460"/>
      <point x="483" y="538" type="curve"/>
      <point x="363" y="560" type="line"/>
      <point x="343" y="393"/>
      <point x="336" y="282"/>
      <point x="336" y="107" type="curve" smooth="yes"/>
      <point x="336.0" y="-21.3333333333"/>
      <point x="345.001276827" y="-143.027324089"/>
      <point x="350" y="-250" type="curve"/>
      <point x="402" y="-250"/>
      <point x="472" y="-244"/>
    </contour>
    <contour>
      <point x="382" y="-195" type="line"/>
      <point x="342" y="-119"/>
      <point x="267" y="-89"/>
      <point x="195" y="-87" type="curve"/>
      <point x="173" y="-126" type="line"/>
      <point x="235" y="-86"/>
      <point x="313.163958309" y="-40.8067054308"/>
      <point x="382" y="-28" type="curve"/>
      <point x="297" y="71" type="line"/>
      <point x="203.506259391" y="46.8205843252"/>
      <point x="136" y="11"/>
      <point x="80" y="-30" type="curve"/>
      <point x="80" y="-80"/>
      <point x="93" y="-122"/>
      <point x="122" y="-169" type="curve"/>
      <point x="213" y="-169"/>
      <point x="278" y="-188"/>
      <point x="350" y="-250" type="curve"/>
    </contour>
  </outline>
</glyph>
<glyph name="bn_gh_na" format="1">
  <advance width="550"/>
  <outline>
    <contour>
      <point x="372" y="31" type="line"/>
      <point x="338" y="124"/>
      <point x="291" y="208"/>
      <point x="158" y="244" type="curve"/>
      <point x="160" y="164" type="line"/>
      <point x="319" y="291" type="line"/>
      <point x="310" y="344"/>
      <point x="290" y="412"/>
      <point x="268" y="447" type="curve"/>
      <point x="237" y="413"/>
      <point x="215" y="402"/>
      <point x="196" y="402" type="curve" smooth="yes"/>
      <point x="176" y="402"/>
      <point x="156" y="414"/>
      <point x="156" y="442" type="curve" smooth="yes"/>
      <point x="156" y="473"/>
      <point x="181" y="509"/>
      <point x="260" y="532" type="curve"/>
      <point x="63" y="557" type="line"/>
      <point x="36" y="535"/>
      <point x="24" y="496"/>
      <point x="24" y="461" type="curve" smooth="yes"/>
      <point x="24" y="372"/>
      <point x="104" y="335"/>
      <point x="181" y="335" type="curve" smooth="yes"/>
      <point x="239" y="335"/>
      <point x="258" y="355"/>
      <point x="271" y="369" type="curve"/>
      <point x="159" y="380" type="line"/>
      <point x="48" y="283" type="line"/>
      <point x="46" y="229"/>
      <point x="69" y="168"/>
      <point x="116" y="122" type="curve"/>
      <point x="206" y="125"/>
      <point x="303" y="73"/>
      <point x="341" y="-47" type="curve"/>
    </contour>
    <contour>
      <point x="273" y="531" type="curve" smooth="yes"/>
      <point x="381" y="531"/>
      <point x="490" y="518"/>
      <point x="550" y="504" type="curve"/>
      <point x="555" y="521"/>
      <point x="559" y="551"/>
      <point x="559" y="579" type="curve" smooth="yes"/>
      <point x="559" y="602"/>
      <point x="557" y="624"/>
      <point x="550" y="639" type="curve"/>
      <point x="495" y="656"/>
      <point x="390" y="670"/>
      <point x="279" y="670" type="curve" smooth="yes"/>
      <point x="169" y="670"/>
      <point x="68" y="656"/>
      <point x="0" y="639" type="curve"/>
      <point x="-7" y="626"/>
      <point x="-10" y="604"/>
      <point x="-10" y="581" type="curve" smooth="yes"/>
      <point x="-10" y="553"/>
      <point x="-6" y="523"/>
      <point x="0" y="504" type="curve"/>
      <point x="69" y="518"/>
      <point x="166" y="531"/>
    </contour>
    <contour>
      <point x="233" y="-92" type="curve"/>
      <point x="208" y="-107"/>
      <point x="175" y="-115"/>
      <point x="151" y="-115" type="curve" smooth="yes"/>
      <point x="118" y="-115"/>
      <point x="97" y="-99"/>
      <point x="97" y="-81" type="curve" smooth="yes"/>
      <point x="97" y="-60"/>
      <point x="123" y="-43"/>
      <point x="159" y="-43" type="curve" smooth="yes"/>
      <point x="252" y="-43"/>
      <point x="333" y="-121"/>
      <point x="351" y="-229" type="curve"/>
      <point x="363" y="-94" type="line"/>
      <point x="326" y="17"/>
      <point x="210" y="78"/>
      <point x="151" y="78" type="curve" smooth="yes"/>
      <point x="73" y="78"/>
      <point x="12" y="20"/>
      <point x="12" y="-60" type="curve" smooth="yes"/>
      <point x="12" y="-158"/>
      <point x="85" y="-238"/>
      <point x="170" y="-238" type="curve" smooth="yes"/>
      <point x="196" y="-238"/>
      <point x="227" y="-229"/>
      <point x="232" y="-225" type="curve"/>
      <point x="240" y="-189"/>
      <point x="239" y="-134"/>
    </contour>
    <contour>
      <point x="517" y="-207" type="curve"/>
      <point x="485.901864858" y="-84.7521584058"/>
      <point x="474.0" y="94.1023454158"/>
      <point x="474" y="292" type="curve" smooth="yes"/>
      <point x="474" y="385"/>
      <point x="477" y="460"/>
      <point x="483" y="538" type="curve"/>
      <point x="363" y="560" type="line"/>
      <point x="343" y="393"/>
      <point x="336" y="282"/>
      <point x="336" y="107" type="curve" smooth="yes"/>
      <point x="336.0" y="-13.7843137255"/>
      <point x="346.59973707" y="-128.894018345"/>
      <point x="351" y="-229" type="curve"/>
      <point x="403" y="-229"/>
      <point x="473" y="-223"/>
    </contour>
    <contour>
      <point x="420" y="-201" type="move" name="blwm"/>
    </contour>
    <contour>
      <point x="294" y="-197" type="move" name="haln"/>
    </contour>
    <contour>
      <point x="431.0" y="690.0" type="move" name="reph"/>
    </contour>
    <contour>
      <point x="431.0" y="690.0" type="move" name="chandrabindu"/>
    </contour>
  </outline>
</glyph>
